<?xml version="1.0" encoding="UTF-8"?>
<!DOCTYPE svg PUBLIC "-//W3C//DTD SVG 1.1//EN" "http://www.w3.org/Graphics/SVG/1.1/DTD/svg11.dtd">
<!-- Creator: CorelDRAW 2017 -->
<svg xmlns="http://www.w3.org/2000/svg" xml:space="preserve" width="64px" height="76px" version="1.1" style="shape-rendering:geometricPrecision; text-rendering:geometricPrecision; image-rendering:optimizeQuality; fill-rule:evenodd; clip-rule:evenodd"
viewBox="0 0 627750 745530"
 xmlns:xlink="http://www.w3.org/1999/xlink">
 <defs>
  <style type="text/css">
   <![CDATA[
    .fil1 {fill:none}
    .fil5 {fill:#151136}
    .fil0 {fill:#E58923}
    .fil2 {fill:#F2C145}
    .fil3 {fill:url(#id5)}
    .fil4 {fill:url(#id6)}
   ]]>
  </style>
    <clipPath id="id0">
     <path d="M326950 56020c190390,0 300800,40460 300800,230860 0,190400 -110410,458650 -300800,458650 -190390,0 -294800,-76430 -294800,-266840 0,-190400 104410,-422670 294800,-422670z"/>
    </clipPath>
    <clipPath id="id1">
     <path d="M294800 0c190390,0 300800,40450 300800,230860 0,190400 -110410,458650 -300800,458650 -190390,0 -294800,-76440 -294800,-266840 0,-190400 104410,-422670 294800,-422670z"/>
    </clipPath>
    <clipPath id="id2">
     <path d="M295060 30940c173310,0 273810,36830 273810,210140 0,173310 -100500,417480 -273810,417480 -173290,0 -268330,-69570 -268330,-242880 0,-173310 95040,-384740 268330,-384740z"/>
    </clipPath>
    <clipPath id="id3">
     <path d="M295060 30940c173310,0 273810,36830 273810,210140 0,86530 -25060,190720 -71710,273360l-100590 -121510c0,0 -79720,-77120 -99960,-101360 -20240,-24240 -115970,-124310 -115970,-124310l-33920 -56590 -10010 -6590c41690,-44630 94750,-73140 158350,-73140z"/>
    </clipPath>
    <clipPath id="id4">
     <path d="M318350 202490c8620,0 15620,6990 15620,15620 0,8630 -7000,15620 -15620,15620 -8630,0 -15630,-6990 -15630,-15620 0,-8630 7000,-15620 15630,-15620zm-114960 154650c-13330,-8770 -26750,-22100 -46620,-22870 -24470,-940 -39540,8910 -45700,26910 -20470,59790 68230,108430 98810,181620 14410,34500 30410,63450 71810,68580 91540,11350 159850,-40110 179610,-104930 11500,-37780 12560,-82850 12890,-127710 360,-47990 -13680,-81400 -64350,-68870 -11990,-20850 -34000,-32940 -64770,-24210 -8220,-19150 -9400,-27330 -52760,-27330 810,-30790 6470,-78910 -5770,-101700 -14180,-26430 -57090,-27220 -74230,-3370 -18220,25340 -1430,159650 -8920,203880zm-24320 -155060c8620,0 15620,6990 15620,15620 0,8640 -7000,15630 -15620,15630 -8630,0 -15630,-6990 -15630,-15630 0,-8630 7000,-15620 15630,-15620zm-9850 -39790c8630,0 15620,6990 15620,15620 0,8630 -6990,15620 -15620,15620 -8640,0 -15640,-6990 -15640,-15620 0,-8630 7000,-15620 15640,-15620zm11380 -40170c8640,0 15640,7000 15640,15630 0,8640 -7000,15630 -15640,15630 -8620,0 -15620,-6990 -15620,-15630 0,-8630 7000,-15630 15620,-15630zm28590 -29210c8630,0 15620,7000 15620,15630 0,8630 -6990,15620 -15620,15620 -8630,0 -15620,-6990 -15620,-15620 0,-8630 6990,-15630 15620,-15630zm39510 -10870c8630,0 15620,7000 15620,15640 0,8630 -6990,15620 -15620,15620 -8630,0 -15620,-6990 -15620,-15620 0,-8640 6990,-15640 15620,-15640zm41200 10680c8630,0 15630,7000 15630,15630 0,8620 -7000,15620 -15630,15620 -8620,0 -15620,-7000 -15620,-15620 0,-8630 7000,-15630 15620,-15630zm27560 30160c8630,0 15630,7000 15630,15640 0,8630 -7000,15620 -15630,15620 -8620,0 -15620,-6990 -15620,-15620 0,-8640 7000,-15640 15620,-15640zm12050 39560c8630,0 15620,7000 15620,15630 0,8640 -6990,15630 -15620,15630 -8630,0 -15620,-6990 -15620,-15630 0,-8630 6990,-15630 15620,-15630zm-192790 220410c0,-39180 34110,-14320 47940,-3680 17070,13150 27970,26440 48450,31790l-70 -204910c-100,-8360 -520,-18520 470,-26850 3040,-25670 28840,-17700 30670,-980 570,5280 890,12910 910,23880 -80,32530 -6470,149740 5920,166960 37780,4630 14530,-50250 22370,-72610 3650,-10360 24710,-16950 26280,2470 4210,51460 -2800,107520 22790,92900 13840,-11670 3780,-41220 9810,-67160 5980,-25780 28480,-10850 32280,2470 3240,11360 1280,28570 1060,51860 -70,6990 -2140,49800 20590,36730 17330,-9950 4340,-37420 7450,-65700 2270,-20710 26150,-19350 31060,2570 3660,16370 1290,44320 1290,78460 0,140510 -121870,170300 -173300,149070 -20550,-8470 -27050,-24750 -35260,-45040 -27320,-67410 -100710,-120930 -100710,-152230z"/>
    </clipPath>
  <linearGradient id="id5" gradientUnits="userSpaceOnUse" x1="130520" y1="637370" x2="281770" y2="391580">
   <stop offset="0" style="stop-opacity:1; stop-color:#F7DA8F"/>
   <stop offset="1" style="stop-opacity:1; stop-color:#F2C145"/>
  </linearGradient>
  <linearGradient id="id6" gradientUnits="userSpaceOnUse" x1="509330" y1="39490" x2="324860" y2="261590">
   <stop offset="0" style="stop-opacity:1; stop-color:#F7D98B"/>
   <stop offset="1" style="stop-opacity:1; stop-color:#F2C145"/>
  </linearGradient>
 </defs>
 <g id="Layer_x0020_1">
  <metadata id="CorelCorpID_0Corel-Layer"/>
  <g id="_2229453648368">
   <path class="fil0" d="M326950 56020c190390,0 300800,40460 300800,230860 0,190400 -110410,458650 -300800,458650 -190390,0 -294800,-76430 -294800,-266840 0,-190400 104410,-422670 294800,-422670z"/>
   <g style="clip-path:url(#id0)">
   </g>
   <path id="1" class="fil1" d="M326950 56020c190390,0 300800,40460 300800,230860 0,190400 -110410,458650 -300800,458650 -190390,0 -294800,-76430 -294800,-266840 0,-190400 104410,-422670 294800,-422670z"/>
   <path class="fil2" d="M294800 0c190390,0 300800,40450 300800,230860 0,190400 -110410,458650 -300800,458650 -190390,0 -294800,-76440 -294800,-266840 0,-190400 104410,-422670 294800,-422670z"/>
   <g style="clip-path:url(#id1)">
   </g>
   <path id="1" class="fil1" d="M294800 0c190390,0 300800,40450 300800,230860 0,190400 -110410,458650 -300800,458650 -190390,0 -294800,-76440 -294800,-266840 0,-190400 104410,-422670 294800,-422670z"/>
   <path class="fil3" d="M295060 30940c173310,0 273810,36830 273810,210140 0,173310 -100500,417480 -273810,417480 -173290,0 -268330,-69570 -268330,-242880 0,-173310 95040,-384740 268330,-384740z"/>
   <g style="clip-path:url(#id2)">
   </g>
   <path id="1" class="fil1" d="M295060 30940c173310,0 273810,36830 273810,210140 0,173310 -100500,417480 -273810,417480 -173290,0 -268330,-69570 -268330,-242880 0,-173310 95040,-384740 268330,-384740z"/>
   <path class="fil4" d="M295060 30940c173310,0 273810,36830 273810,210140 0,86530 -25060,190720 -71710,273360l-100590 -121510c0,0 -79720,-77120 -99960,-101360 -20240,-24240 -115970,-124310 -115970,-124310l-33920 -56590 -10010 -6590c41690,-44630 94750,-73140 158350,-73140z"/>
   <g style="clip-path:url(#id3)">
   </g>
   <path id="1" class="fil1" d="M295060 30940c173310,0 273810,36830 273810,210140 0,86530 -25060,190720 -71710,273360l-100590 -121510c0,0 -79720,-77120 -99960,-101360 -20240,-24240 -115970,-124310 -115970,-124310l-33920 -56590 -10010 -6590c41690,-44630 94750,-73140 158350,-73140z"/>
   <path class="fil5" d="M318350 202490c8620,0 15620,6990 15620,15620 0,8630 -7000,15620 -15620,15620 -8630,0 -15630,-6990 -15630,-15620 0,-8630 7000,-15620 15630,-15620zm-114960 154650c-13330,-8770 -26750,-22100 -46620,-22870 -24470,-940 -39540,8910 -45700,26910 -20470,59790 68230,108430 98810,181620 14410,34500 30410,63450 71810,68580 91540,11350 159850,-40110 179610,-104930 11500,-37780 12560,-82850 12890,-127710 360,-47990 -13680,-81400 -64350,-68870 -11990,-20850 -34000,-32940 -64770,-24210 -8220,-19150 -9400,-27330 -52760,-27330 810,-30790 6470,-78910 -5770,-101700 -14180,-26430 -57090,-27220 -74230,-3370 -18220,25340 -1430,159650 -8920,203880zm-24320 -155060c8620,0 15620,6990 15620,15620 0,8640 -7000,15630 -15620,15630 -8630,0 -15630,-6990 -15630,-15630 0,-8630 7000,-15620 15630,-15620zm-9850 -39790c8630,0 15620,6990 15620,15620 0,8630 -6990,15620 -15620,15620 -8640,0 -15640,-6990 -15640,-15620 0,-8630 7000,-15620 15640,-15620zm11380 -40170c8640,0 15640,7000 15640,15630 0,8640 -7000,15630 -15640,15630 -8620,0 -15620,-6990 -15620,-15630 0,-8630 7000,-15630 15620,-15630zm28590 -29210c8630,0 15620,7000 15620,15630 0,8630 -6990,15620 -15620,15620 -8630,0 -15620,-6990 -15620,-15620 0,-8630 6990,-15630 15620,-15630zm39510 -10870c8630,0 15620,7000 15620,15640 0,8630 -6990,15620 -15620,15620 -8630,0 -15620,-6990 -15620,-15620 0,-8640 6990,-15640 15620,-15640zm41200 10680c8630,0 15630,7000 15630,15630 0,8620 -7000,15620 -15630,15620 -8620,0 -15620,-7000 -15620,-15620 0,-8630 7000,-15630 15620,-15630zm27560 30160c8630,0 15630,7000 15630,15640 0,8630 -7000,15620 -15630,15620 -8620,0 -15620,-6990 -15620,-15620 0,-8640 7000,-15640 15620,-15640zm12050 39560c8630,0 15620,7000 15620,15630 0,8640 -6990,15630 -15620,15630 -8630,0 -15620,-6990 -15620,-15630 0,-8630 6990,-15630 15620,-15630zm-192790 220410c0,-39180 34110,-14320 47940,-3680 17070,13150 27970,26440 48450,31790l-70 -204910c-100,-8360 -520,-18520 470,-26850 3040,-25670 28840,-17700 30670,-980 570,5280 890,12910 910,23880 -80,32530 -6470,149740 5920,166960 37780,4630 14530,-50250 22370,-72610 3650,-10360 24710,-16950 26280,2470 4210,51460 -2800,107520 22790,92900 13840,-11670 3780,-41220 9810,-67160 5980,-25780 28480,-10850 32280,2470 3240,11360 1280,28570 1060,51860 -70,6990 -2140,49800 20590,36730 17330,-9950 4340,-37420 7450,-65700 2270,-20710 26150,-19350 31060,2570 3660,16370 1290,44320 1290,78460 0,140510 -121870,170300 -173300,149070 -20550,-8470 -27050,-24750 -35260,-45040 -27320,-67410 -100710,-120930 -100710,-152230z"/>
   <g style="clip-path:url(#id4)">
   </g>
   <path id="1" class="fil1" d="M318350 202490c8620,0 15620,6990 15620,15620 0,8630 -7000,15620 -15620,15620 -8630,0 -15630,-6990 -15630,-15620 0,-8630 7000,-15620 15630,-15620zm-114960 154650c-13330,-8770 -26750,-22100 -46620,-22870 -24470,-940 -39540,8910 -45700,26910 -20470,59790 68230,108430 98810,181620 14410,34500 30410,63450 71810,68580 91540,11350 159850,-40110 179610,-104930 11500,-37780 12560,-82850 12890,-127710 360,-47990 -13680,-81400 -64350,-68870 -11990,-20850 -34000,-32940 -64770,-24210 -8220,-19150 -9400,-27330 -52760,-27330 810,-30790 6470,-78910 -5770,-101700 -14180,-26430 -57090,-27220 -74230,-3370 -18220,25340 -1430,159650 -8920,203880zm-24320 -155060c8620,0 15620,6990 15620,15620 0,8640 -7000,15630 -15620,15630 -8630,0 -15630,-6990 -15630,-15630 0,-8630 7000,-15620 15630,-15620zm-9850 -39790c8630,0 15620,6990 15620,15620 0,8630 -6990,15620 -15620,15620 -8640,0 -15640,-6990 -15640,-15620 0,-8630 7000,-15620 15640,-15620zm11380 -40170c8640,0 15640,7000 15640,15630 0,8640 -7000,15630 -15640,15630 -8620,0 -15620,-6990 -15620,-15630 0,-8630 7000,-15630 15620,-15630zm28590 -29210c8630,0 15620,7000 15620,15630 0,8630 -6990,15620 -15620,15620 -8630,0 -15620,-6990 -15620,-15620 0,-8630 6990,-15630 15620,-15630zm39510 -10870c8630,0 15620,7000 15620,15640 0,8630 -6990,15620 -15620,15620 -8630,0 -15620,-6990 -15620,-15620 0,-8640 6990,-15640 15620,-15640zm41200 10680c8630,0 15630,7000 15630,15630 0,8620 -7000,15620 -15630,15620 -8620,0 -15620,-7000 -15620,-15620 0,-8630 7000,-15630 15620,-15630zm27560 30160c8630,0 15630,7000 15630,15640 0,8630 -7000,15620 -15630,15620 -8620,0 -15620,-6990 -15620,-15620 0,-8640 7000,-15640 15620,-15640zm12050 39560c8630,0 15620,7000 15620,15630 0,8640 -6990,15630 -15620,15630 -8630,0 -15620,-6990 -15620,-15630 0,-8630 6990,-15630 15620,-15630zm-192790 220410c0,-39180 34110,-14320 47940,-3680 17070,13150 27970,26440 48450,31790l-70 -204910c-100,-8360 -520,-18520 470,-26850 3040,-25670 28840,-17700 30670,-980 570,5280 890,12910 910,23880 -80,32530 -6470,149740 5920,166960 37780,4630 14530,-50250 22370,-72610 3650,-10360 24710,-16950 26280,2470 4210,51460 -2800,107520 22790,92900 13840,-11670 3780,-41220 9810,-67160 5980,-25780 28480,-10850 32280,2470 3240,11360 1280,28570 1060,51860 -70,6990 -2140,49800 20590,36730 17330,-9950 4340,-37420 7450,-65700 2270,-20710 26150,-19350 31060,2570 3660,16370 1290,44320 1290,78460 0,140510 -121870,170300 -173300,149070 -20550,-8470 -27050,-24750 -35260,-45040 -27320,-67410 -100710,-120930 -100710,-152230z"/>
  </g>
 </g>
</svg>
