<?xml version="1.0" encoding="UTF-8"?>
<!DOCTYPE svg PUBLIC "-//W3C//DTD SVG 1.1//EN" "http://www.w3.org/Graphics/SVG/1.1/DTD/svg11.dtd">
<!-- Creator: CorelDRAW 2017 -->
<svg xmlns="http://www.w3.org/2000/svg" xml:space="preserve" width="64px" height="76px" version="1.1" style="shape-rendering:geometricPrecision; text-rendering:geometricPrecision; image-rendering:optimizeQuality; fill-rule:evenodd; clip-rule:evenodd"
viewBox="0 0 49990 59370"
 xmlns:xlink="http://www.w3.org/1999/xlink">
 <defs>
  <style type="text/css">
   <![CDATA[
    .fil1 {fill:none}
    .fil0 {fill:#151136}
    .fil2 {fill:#E58923;fill-rule:nonzero}
   ]]>
  </style>
    <clipPath id="id0">
     <path d="M23480 0c11890,0 19870,1980 22750,10160 2460,2790 3760,6860 3760,12690 0,15160 -8790,36520 -23950,36520 -11280,0 -18770,-3360 -21860,-11330 -2750,-3380 -4180,-8100 -4180,-14380 0,-15160 8320,-33660 23480,-33660z"/>
    </clipPath>
 </defs>
 <g id="Layer_x0020_1">
  <metadata id="CorelCorpID_0Corel-Layer"/>
  <g id="_1626318582544">
   <path class="fil0" d="M23480 0c11890,0 19870,1980 22750,10160 2460,2790 3760,6860 3760,12690 0,15160 -8790,36520 -23950,36520 -11280,0 -18770,-3360 -21860,-11330 -2750,-3380 -4180,-8100 -4180,-14380 0,-15160 8320,-33660 23480,-33660z"/>
   <g style="clip-path:url(#id0)">
   </g>
   <path id="1" class="fil1" d="M23480 0c11890,0 19870,1980 22750,10160 2460,2790 3760,6860 3760,12690 0,15160 -8790,36520 -23950,36520 -11280,0 -18770,-3360 -21860,-11330 -2750,-3380 -4180,-8100 -4180,-14380 0,-15160 8320,-33660 23480,-33660z"/>
   <path class="fil2" d="M28560 34790l-6870 0 0 -1320 3250 -3490c470,-540 810,-990 1010,-1360 190,-370 290,-720 290,-1030 0,-430 -110,-770 -340,-1040 -230,-270 -550,-410 -970,-410 -460,0 -820,160 -1060,480 -240,310 -360,730 -360,1260l-1960 0 -20 -40c-20,-910 280,-1680 900,-2310 620,-630 1450,-940 2500,-940 1040,0 1850,270 2440,810 590,540 890,1250 890,2150 0,610 -170,1170 -500,1680 -340,520 -890,1190 -1660,2020l-1780 1940 10 40 4230 0 0 1560z"/>
  </g>
 </g>
</svg>
