<?xml version="1.0" encoding="UTF-8"?>
<!DOCTYPE svg PUBLIC "-//W3C//DTD SVG 1.1//EN" "http://www.w3.org/Graphics/SVG/1.1/DTD/svg11.dtd">
<!-- Creator: CorelDRAW 2017 -->
<svg xmlns="http://www.w3.org/2000/svg" xml:space="preserve" width="64px" height="76px" version="1.1" style="shape-rendering:geometricPrecision; text-rendering:geometricPrecision; image-rendering:optimizeQuality; fill-rule:evenodd; clip-rule:evenodd"
viewBox="0 0 42500 50480"
 xmlns:xlink="http://www.w3.org/1999/xlink">
 <defs>
  <style type="text/css">
   <![CDATA[
    .fil1 {fill:none}
    .fil0 {fill:#151136}
    .fil2 {fill:#E58923;fill-rule:nonzero}
   ]]>
  </style>
    <clipPath id="id0">
     <path d="M19960 0c10110,0 16890,1690 19350,8640 2090,2370 3190,5830 3190,10780 0,12900 -7470,31060 -20360,31060 -9590,0 -15960,-2860 -18590,-9630 -2340,-2880 -3550,-6890 -3550,-12230 0,-12890 7070,-28620 19960,-28620z"/>
    </clipPath>
 </defs>
 <g id="Layer_x0020_1">
  <metadata id="CorelCorpID_0Corel-Layer"/>
  <g id="_1626253549440">
   <path class="fil0" d="M19960 0c10110,0 16890,1690 19350,8640 2090,2370 3190,5830 3190,10780 0,12900 -7470,31060 -20360,31060 -9590,0 -15960,-2860 -18590,-9630 -2340,-2880 -3550,-6890 -3550,-12230 0,-12890 7070,-28620 19960,-28620z"/>
   <g style="clip-path:url(#id0)">
   </g>
   <path id="1" class="fil1" d="M19960 0c10110,0 16890,1690 19350,8640 2090,2370 3190,5830 3190,10780 0,12900 -7470,31060 -20360,31060 -9590,0 -15960,-2860 -18590,-9630 -2340,-2880 -3550,-6890 -3550,-12230 0,-12890 7070,-28620 19960,-28620z"/>
   <path class="fil2" d="M20290 24510l960 0c410,0 710,-100 910,-320 190,-210 290,-510 290,-890 0,-340 -100,-620 -290,-820 -200,-210 -480,-310 -850,-310 -320,0 -590,90 -810,280 -220,190 -330,430 -330,740l-1660 0 -10 -40c-30,-670 230,-1220 760,-1650 540,-440 1200,-650 2000,-650 880,0 1590,210 2120,630 520,420 790,1020 790,1810 0,370 -120,720 -360,1060 -230,330 -550,590 -960,780 470,170 830,430 1080,770 250,350 370,760 370,1220 0,780 -280,1390 -850,1840 -570,450 -1300,670 -2190,670 -800,0 -1480,-210 -2050,-630 -560,-420 -840,-1010 -820,-1780l10 -30 1660 0c0,320 120,590 350,800 240,220 540,320 900,320 390,0 700,-110 930,-320 230,-220 350,-520 350,-890 0,-450 -120,-780 -340,-990 -230,-210 -560,-310 -1000,-310l-960 0 0 -1290z"/>
  </g>
 </g>
</svg>
