<?xml version="1.0" encoding="UTF-8"?>
<!DOCTYPE svg PUBLIC "-//W3C//DTD SVG 1.1//EN" "http://www.w3.org/Graphics/SVG/1.1/DTD/svg11.dtd">
<!-- Creator: CorelDRAW 2017 -->
<svg xmlns="http://www.w3.org/2000/svg" xml:space="preserve" width="64px" height="76px" version="1.1" style="shape-rendering:geometricPrecision; text-rendering:geometricPrecision; image-rendering:optimizeQuality; fill-rule:evenodd; clip-rule:evenodd"
viewBox="0 0 82190 97610"
 xmlns:xlink="http://www.w3.org/1999/xlink">
 <defs>
  <style type="text/css">
   <![CDATA[
    .fil1 {fill:none}
    .fil0 {fill:#151136}
    .fil2 {fill:#E58923;fill-rule:nonzero}
   ]]>
  </style>
   <clipPath id="id0">
    <path d="M38600 0c19550,0 32660,3260 37410,16700 4040,4600 6180,11280 6180,20860 0,24930 -14460,60050 -39380,60050 -18540,0 -30850,-5540 -35940,-18630 -4520,-5550 -6870,-13320 -6870,-23640 0,-24930 13670,-55340 38600,-55340z"/>
   </clipPath>
 </defs>
 <g id="Layer_x0020_1">
  <metadata id="CorelCorpID_0Corel-Layer"/>
  <path class="fil0" d="M38600 0c19550,0 32660,3260 37410,16700 4040,4600 6180,11280 6180,20860 0,24930 -14460,60050 -39380,60050 -18540,0 -30850,-5540 -35940,-18630 -4520,-5550 -6870,-13320 -6870,-23640 0,-24930 13670,-55340 38600,-55340z"/>
  <g style="clip-path:url(#id0)">
  </g>
  <path id="1" class="fil1" d="M38600 0c19550,0 32660,3260 37410,16700 4040,4600 6180,11280 6180,20860 0,24930 -14460,60050 -39380,60050 -18540,0 -30850,-5540 -35940,-18630 -4520,-5550 -6870,-13320 -6870,-23640 0,-24930 13670,-55340 38600,-55340z"/>
  <path class="fil2" d="M37720 49740l950 -9200 9220 0 0 2650 -6500 0 -460 3820c300,-230 670,-420 1100,-560 430,-150 910,-230 1430,-240 1590,-20 2820,460 3700,1440 870,990 1310,2360 1310,4110 0,1600 -480,2910 -1440,3970 -960,1050 -2330,1570 -4140,1570 -1520,0 -2820,-420 -3900,-1250 -1080,-830 -1600,-1970 -1570,-3430l30 -60 3180 -150c0,730 210,1310 630,1720 420,410 960,620 1630,620 780,0 1350,-280 1710,-830 370,-540 550,-1260 550,-2140 0,-950 -190,-1710 -590,-2290 -390,-570 -970,-860 -1740,-860 -640,0 -1130,120 -1460,350 -340,240 -580,550 -730,960l-2910 -200z"/>
 </g>
</svg>
