<?xml version="1.0" encoding="UTF-8"?>
<!DOCTYPE svg PUBLIC "-//W3C//DTD SVG 1.1//EN" "http://www.w3.org/Graphics/SVG/1.1/DTD/svg11.dtd">
<!-- Creator: CorelDRAW 2017 -->
<svg xmlns="http://www.w3.org/2000/svg" xml:space="preserve" width="853px" height="1280px" version="1.1" style="shape-rendering:geometricPrecision; text-rendering:geometricPrecision; image-rendering:optimizeQuality; fill-rule:evenodd; clip-rule:evenodd"
viewBox="0 0 7849980 11780220"
 xmlns:xlink="http://www.w3.org/1999/xlink">
 <defs>
  <style type="text/css">
   <![CDATA[
    .fil1 {fill:none}
    .fil0 {fill:#151136}
    .fil2 {fill:#E58923;fill-rule:nonzero}
   ]]>
  </style>
    <clipPath id="id0">
     <path d="M3686400 0c1867720,0 3119820,311500 3572800,1595210 386470,438880 590780,1076840 590780,1992170 0,2380970 -1380710,5735430 -3761510,5735430 -1770610,0 -2946270,-528860 -3432750,-1779250 -431540,-530540 -655720,-1272000 -655720,-2258100 0,-2380940 1305600,-5285460 3686400,-5285460z"/>
    </clipPath>
 </defs>
 <g id="Layer_x0020_1">
  <metadata id="CorelCorpID_0Corel-Layer"/>
  <g id="_1626154057792">
   <path class="fil0" d="M3686400 0c1867720,0 3119820,311500 3572800,1595210 386470,438880 590780,1076840 590780,1992170 0,2380970 -1380710,5735430 -3761510,5735430 -1770610,0 -2946270,-528860 -3432750,-1779250 -431540,-530540 -655720,-1272000 -655720,-2258100 0,-2380940 1305600,-5285460 3686400,-5285460z"/>
   <g style="clip-path:url(#id0)">
   </g>
   <path id="1" class="fil1" d="M3686400 0c1867720,0 3119820,311500 3572800,1595210 386470,438880 590780,1076840 590780,1992170 0,2380970 -1380710,5735430 -3761510,5735430 -1770610,0 -2946270,-528860 -3432750,-1779250 -431540,-530540 -655720,-1272000 -655720,-2258100 0,-2380940 1305600,-5285460 3686400,-5285460z"/>
   <path class="fil2" d="M296770 11412360l0 -1227940 377070 0c160920,0 289850,49240 387160,147950 97280,98750 145920,226240 145920,382550l0 167810c0,156870 -48640,284400 -145920,382550 -97310,98160 -226240,147080 -387160,147080l-377070 0zm166100 -1096670l0 965400 210970 0c113390,0 202920,-37420 268550,-111970 65640,-74550 98150,-170400 98150,-286950l0 -169280c0,-115390 -32510,-210680 -98150,-285230 -65630,-74550 -155160,-111970 -268550,-111970l-210970 0zm1372120 331600l-85190 -5170c-43740,0 -80880,10350 -110810,31080 -30250,20980 -53260,50080 -69660,87770l0 651390 -166100 0 0 -911860 148510 0 15840 133260c25920,-47210 57880,-84060 95850,-110810 38010,-26510 81480,-39730 130990,-39730 12380,0 24170,840 35390,2870 11230,2030 20730,4020 27940,6330l-22760 154870zm721040 765070c-5460,-27630 -9800,-51820 -12940,-72840 -3180,-21300 -4900,-42310 -5490,-63890 -31090,44030 -71370,80610 -121170,109940 -49510,29380 -103330,44060 -160600,44060 -95010,0 -167260,-24480 -217050,-73120 -49800,-48630 -74550,-115700 -74550,-201200 0,-87210 35110,-155430 105640,-204640 70530,-49230 166370,-73710 287260,-73710l180470 0 0 -89800c0,-52940 -16400,-94970 -48920,-126060 -32520,-31080 -78890,-46640 -138480,-46640 -53220,0 -96680,13530 -130080,40590 -33390,27070 -50390,59590 -50390,97290l-158300 0 -1710 -4900c-3460,-66190 27900,-126930 93820,-181900 66190,-54970 151410,-82320 256180,-82320 103330,0 186510,26190 249560,78850 63010,52390 94420,128370 94420,227120l0 439240c0,32800 1710,64200 4890,94410 3430,30530 9790,60150 18710,89520l-171270 0zm-275760 -122630c60180,0 114550,-15530 162910,-46340 48360,-30800 79730,-66190 94420,-105920l0 -148230 -186520 0c-66790,0 -120330,16690 -160610,50360 -40000,33670 -60150,73400 -60150,118890 0,40290 12660,72240 37980,95850 25040,23600 62450,35390 111970,35390zm628370 -316920c0,-146480 31970,-264780 96130,-354890 64200,-89800 152570,-134700 265690,-134700 57840,0 108780,11790 152570,35110 43740,23600 80280,57280 109650,101020l20150 -118850 132390 0 0 916750c0,116590 -33960,206390 -101900,269120 -68190,62490 -166060,93850 -294430,93850 -43780,0 -91270,-6050 -141900,-18140 -50950,-12070 -95890,-28500 -134730,-49200l42310 -128970c29650,16680 65630,30530 107940,40880 42030,10350 83750,15530 124630,15530 81200,0 139910,-18400 176730,-55250 36850,-36860 55280,-92700 55280,-168090l0 -102780c-29650,38010 -65350,67070 -107070,86380 -41750,19260 -89520,29050 -143370,29050 -111970,0 -199740,-40600 -263940,-121480 -64160,-80880 -96130,-186800 -96130,-317470l0 -17870zm166070 17870c0,91510 19300,165220 58150,220750 38850,55570 97870,83510 177320,83510 49800,0 91830,-11540 125500,-34270 33680,-22730 61580,-54970 83470,-96440l0 -419940c-21290,-38570 -49230,-69370 -83470,-92100 -34270,-22770 -75700,-34270 -124060,-34270 -79170,0 -138440,33110 -177890,99590 -39440,66190 -59020,151410 -59020,255300l0 17870zm1446980 -368420c31360,-43780 70210,-78020 115990,-102500 45770,-24480 96400,-36540 152250,-36540 97320,0 172990,29340 227120,87770 54410,58430 81470,148270 81470,269710l0 571660 -166100 0 0 -573370c0,-75430 -16120,-131270 -48640,-167250 -32240,-35990 -80320,-53820 -144490,-53820 -46050,0 -87800,10940 -125220,32520 -37410,21610 -68220,50950 -92380,88080l0 673840 -166100 0 0 -1315990 166100 0 0 525890zm1193910 807370c-126930,0 -227950,-42310 -303070,-126930 -75140,-84340 -112560,-194280 -112560,-329010l0 -37140c0,-129800 38570,-237750 115990,-324090 77140,-86090 168690,-129240 274610,-129240 122910,0 215890,37140 278940,111090 63010,74280 94410,172990 94410,296500l0 103610 -591800 0 -2620 4300c1750,87210 23920,158900 66510,215300 42870,56160 102770,84340 179590,84340 56440,0 105640,-8040 148270,-24160 42310,-15840 78850,-38010 109940,-66190l64760 108220c-32520,32520 -75390,59270 -128960,80880 -53220,21580 -117990,32520 -194010,32520zm-25030 -815170c-55850,0 -103340,23320 -142780,69650 -39130,46650 -63290,104800 -72520,174740l1740 4300 420810 0 0 -21580c0,-64750 -17270,-118570 -52100,-162040 -35110,-43460 -86650,-65070 -155150,-65070zm991620 32830l-85180 -5170c-43750,0 -80880,10350 -110820,31080 -30240,20980 -53250,50080 -69650,87770l0 651390 -166100 0 0 -911860 148510 0 15840 133260c25910,-47210 57870,-84060 95850,-110810 38010,-26510 81470,-39730 130990,-39730 12380,0 24160,840 35390,2870 11220,2030 20730,4020 27930,6330l-22760 154870zm522700 782340c-126930,0 -227950,-42310 -303070,-126930 -75140,-84340 -112560,-194280 -112560,-329010l0 -37140c0,-129800 38570,-237750 115990,-324090 77140,-86090 168690,-129240 274610,-129240 122910,0 215890,37140 278940,111090 63010,74280 94410,172990 94410,296500l0 103610 -591800 0 -2620 4300c1750,87210 23920,158900 66510,215300 42870,56160 102770,84340 179590,84340 56440,0 105640,-8040 148270,-24160 42310,-15840 78850,-38010 109940,-66190l64760 108220c-32520,32520 -75390,59270 -128960,80880 -53220,21580 -117990,32520 -194010,32520zm-25030 -815170c-55850,0 -103330,23320 -142780,69650 -39130,46650 -63290,104800 -72520,174740l1750 4300 420800 0 0 -21580c0,-64750 -17270,-118570 -52100,-162040 -35110,-43460 -86650,-65070 -155150,-65070z"/>
  </g>
 </g>
</svg>
