<?xml version="1.0" encoding="UTF-8"?>
<!DOCTYPE svg PUBLIC "-//W3C//DTD SVG 1.1//EN" "http://www.w3.org/Graphics/SVG/1.1/DTD/svg11.dtd">
<!-- Creator: CorelDRAW 2017 -->
<svg xmlns="http://www.w3.org/2000/svg" xml:space="preserve" width="719px" height="231px" version="1.1" style="shape-rendering:geometricPrecision; text-rendering:geometricPrecision; image-rendering:optimizeQuality; fill-rule:evenodd; clip-rule:evenodd"
viewBox="0 0 7190020 2315470"
 xmlns:xlink="http://www.w3.org/1999/xlink">
 <defs>
  <style type="text/css">
   <![CDATA[
    .fil1 {fill:#F6BF4A}
    .fil0 {fill:#F6BF4A;fill-rule:nonzero}
   ]]>
  </style>
 </defs>
 <g id="Layer_x0020_1">
  <metadata id="CorelCorpID_0Corel-Layer"/>
  <g id="_1626318586640">
   <path class="fil0" d="M757410 75380c-10170,2320 -10220,17510 610,19570 1550,220 2610,220 4150,-130 12880,-3130 25790,-6160 38750,-8990 12050,-2740 9470,-20870 -3300,-19710l-1010 170c-13110,2860 -26160,5930 -39200,9090zm-88710 47610c11500,-4380 6770,-21420 -5390,-19210 -470,120 -940,220 -1400,400l-15410 5710 -15190 5950 -7210 2970c-11280,4830 -5660,22190 6820,18780l960 -350 6890 -2840 14860 -5810 15070 -5600zm-126080 56880c10230,-5630 3960,-21670 -7770,-18320 -690,230 -1260,460 -1920,820l-3310 1790 -13850 7820 -13680 8050 -4260 2600c-4060,2560 -5640,7310 -4130,11840 2090,5980 9350,8520 14710,5140l3960 -2430 13390 -7860 13550 -7660 3310 -1790zm-115860 75640c3630,-2810 4900,-7780 3010,-11980 -2660,-5900 -10140,-7810 -15270,-3830l-3380 2580 -12300 9710 -12130 9900 -3770 3190c-7560,6670 -1910,18890 8040,17470 1770,-250 3640,-1100 5000,-2300l3510 -2970 11870 -9690 12040 -9500 3380 -2580zm-103180 92300c8440,-8970 -3600,-22410 -13510,-14700l-940 860 -2350 2420 -10700 11350 -10520 11510 -3920 4430c-7670,8680 3560,21780 13600,14530 540,-400 1020,-860 1480,-1380l3710 -4200 10310 -11280 10490 -11120 2350 -2420zm-88920 106250c7390,-10800 -7810,-21960 -15910,-12120l-1740 2360 -9060 12740 -8870 12890 -3750 5620c-6660,10550 7760,21300 15960,12000l770 -1020 3580 -5380 8710 -12640 8880 -12500 1430 -1950zm-73800 117360c1060,-1930 1460,-4350 1040,-6510 -1780,-9340 -14090,-11270 -18640,-2990l-8430 15830 -7180 14020 -3000 6050c-1890,3980 -1070,8460 2020,11540 5040,4730 12890,3380 15980,-2790l2870 -5800 7060 -13780 8280 -15570zm-58340 125840c4280,-11230 -11340,-19180 -17870,-8830 -300,520 -570,1030 -790,1590l-1120 2850 -5650 14830 -5450 14920 -1850 5280c-3590,11280 11340,18460 17920,8600 400,-690 760,-1350 1010,-2110l1760 -5040 5360 -14660 5550 -14580 1130 -2850zm-42840 132000c2850,-10440 -11540,-17750 -18200,-7750 -560,970 -890,1710 -1180,2770l-1310 4960 -3870 15520 -3680 15580 -710 3200c-2460,10810 12630,17150 18530,6970 500,-950 800,-1730 1030,-2760l660 -2950 3610 -15320 3810 -15260 1310 -4960zm-27340 136080c1590,-12190 -16250,-16140 -19640,-3700l-190 1010 -1160 8200 -2060 15960 -1830 15790c-1150,13210 18180,15280 19880,2180l1810 -15540 2020 -15710 1170 -8190zm-11820 138310c0,-12870 -18850,-13850 -19990,-770l-330 12660 -200 16180 10 11810c0,10750 15150,13990 19360,3480 430,-1240 640,-2260 640,-3610l0 -11560 190 -15920 320 -12270zm3820 138870c-550,-6280 -6660,-10500 -12750,-8760 -4550,1300 -7600,5710 -7190,10460l1550 17010 1700 16150 840 7040c440,3440 2550,6330 5680,7820 7070,3350 15180,-2530 14170,-10310l-810 -6770 -1670 -15900 -1520 -16740zm19640 137370c-2780,-12250 -20840,-9590 -19730,3190l1320 6750 3430 15930 4090 17680c3390,12460 21830,8390 19490,-4500l-4050 -17520 -3370 -15670 -1180 -5860zm35590 134070c-3200,-10050 -18920,-8640 -19470,3030 0,1300 150,2220 540,3450l3710 11110 5420 15470 4190 11450c4190,11000 20910,7060 19240,-5120 -120,-650 -270,-1270 -500,-1900l-4100 -11170 -5320 -15200 -3710 -11120zm51610 128840c-970,-2050 -2650,-3740 -4690,-4710 -8550,-4040 -17400,4850 -13360,13330l8080 16690 7460 14760 2490 4760c6130,11150 23030,3050 17940,-8830l-2650 -5080 -7310 -14500 -7960 -16420zm67340 121140c-7200,-10530 -23330,-990 -16930,10650l5680 8810 9300 13930 7650 11090c5930,8650 20070,3160 17990,-7790 -340,-1430 -760,-2460 -1610,-3700l-7480 -10840 -9130 -13670 -5470 -8480zm82460 111510c-8260,-9350 -22620,1470 -15990,11960 220,350 490,710 760,1020l2470 2950 11180 12900 11420 12770 1660 1800c7270,7720 20220,300 16700,-10260 -540,-1350 -1110,-2370 -2110,-3430l-1450 -1570 -11210 -12520 -10970 -12670 -2460 -2950zm96300 99780c-9020,-7960 -21830,3590 -14730,13410 370,480 810,990 1280,1400l13600 12170 13340 11530 3540 2960c9730,7570 21610,-4940 13980,-14200 -400,-460 -800,-850 -1270,-1240l-3290 -2760 -13090 -11320 -13360 -11950zm108390 86480c-9980,-6830 -21460,6610 -12620,15450 370,350 770,670 1190,960l16680 11460 15290 10100 1630 1040c9660,6100 20790,-6590 12400,-15530 -590,-560 -1080,-980 -1780,-1420l-16370 -10790 -16420 -11270zm118340 72290c-2380,-1190 -4660,-1430 -7220,-790 -8820,2520 -10100,14100 -2030,18530l8340 4430 17010 8700 10570 5200c10920,5200 20110,-9970 10060,-17220 -460,-290 -860,-560 -1370,-800l-10290 -5060 -16730 -8560 -8340 -4430zm126160 58060c-10330,-3940 -18810,9330 -9920,17100 830,640 1640,1150 2660,1540l4540 1810 18770 7150 14410 5250c10610,3850 18730,-10660 9050,-17650 -790,-530 -1450,-860 -2350,-1200l-14130 -5140 -18480 -7050 -4550 -1810zm131740 44120c-11380,-3100 -17910,12910 -7170,18570 620,310 1240,550 1890,730l7510 2110 20540 5470 10910 2730c10670,2420 16930,-11180 8370,-17730 -1140,-800 -2270,-1400 -3640,-1710l-10630 -2670 -20270 -5390 -7510 -2110zm135480 31110c-6730,-1220 -12800,4900 -11520,11620 810,4230 3940,7330 8170,8100l19290 3410 20300 3310c12930,1680 16110,-16960 3450,-19710l-20400 -3320 -19290 -3410zm137880 19170c-4730,-420 -9250,2640 -10500,7210 -1730,6050 2510,12170 8740,12710l17770 1690 22220 1810c11250,980 15550,-15580 3490,-19600 -720,-170 -1240,-280 -1990,-350l-21960 -1790 -17770 -1680zm139000 8440c-8900,0 -13430,10420 -7370,16900 1920,1920 4340,3110 7120,3110l24630 450 15500 110c4580,0 8660,-3170 9720,-7620 1510,-6330 -3210,-12390 -9710,-12390l-15260 -100 -24630 -460zm139420 -1210c-4800,210 -8790,3870 -9440,8620 -850,6220 4120,11630 10370,11360l14110 -570 25970 -1360c4650,-200 8660,-3900 9310,-8480 880,-6390 -4020,-11770 -10470,-11490l-25740 1340 -14110 580zm139130 -9710c-10770,940 -12650,16980 -970,19760 1070,190 1920,240 3010,140l10620 -1020 29380 -3190c10460,-1360 12240,-15970 1560,-19530 -1390,-350 -2560,-510 -4020,-320l-28950 3130 -10630 1030zm138440 -17260c-12170,2110 -10780,19880 1800,19880l1270 -110 14660 -2210 24970 -4010c12310,-2240 10430,-20400 -2330,-19850l-950 110 -24760 3990 -14660 2200zm137460 -23950c-12530,2850 -9370,21370 3610,19680l26990 -5430 12740 -2690c11830,-2690 9770,-20310 -2840,-19760 -470,40 -940,100 -1390,200l-12550 2660 -26560 5340zm136410 -29970c-11580,3160 -9250,19720 2580,19720 800,-40 1410,-110 2190,-290l14640 -3520 24290 -6080c11920,-3250 8780,-20760 -3550,-19640 -470,60 -930,130 -1380,250l-24130 6040 -14640 3520zm135160 -35270c-10820,2950 -9280,19620 3080,19620 840,-30 1560,-150 2370,-370l8460 -2360 30090 -8660c10450,-2850 9320,-19060 -2630,-19600 -1110,0 -1940,110 -2980,400l-29930 8610 -8460 2360zm133830 -40060c-11070,3530 -8290,20610 4360,19460 590,-80 1170,-210 1730,-400l8130 -2560 30030 -9730c10800,-3440 8260,-20040 -3770,-19490 -900,80 -1600,200 -2470,480l-29880 9680 -8130 2560zm132500 -44350c-11610,4420 -6820,21440 5340,19230 460,-110 900,-210 1350,-380l13690 -4790 24070 -8660c11510,-4380 6670,-21400 -5300,-19220 -530,120 -1020,230 -1530,420l-23930 8600 -13690 4800zm131150 -48220c-9900,3770 -7750,18800 3280,19320 1500,0 2590,-150 3980,-680l25180 -9690 12190 -4810c10020,-3810 7480,-19300 -3790,-19300 -1390,60 -2310,220 -3600,710l-12060 4750 -25180 9700zm129890 -51760c-11210,4810 -5890,21710 6270,18950 480,-140 930,-270 1390,-470l5310 -2170 31680 -13270c11260,-4830 5660,-22180 -6830,-18780l-960 350 -31560 13220 -5300 2170zm128510 -54950c-3780,1620 -6270,5780 -5890,9890 630,6980 7610,11130 14060,8370l27550 -12210 9060 -4090c10710,-5100 5560,-21140 -6250,-18890 -750,170 -1330,370 -2040,680l-8940 4040 -27550 12210zm127290 -57900c-10670,5080 -5250,21460 6680,18750 660,-190 1220,-360 1850,-660l16390 -7660 19860 -9440c3930,-1870 6170,-6080 5580,-10410 -960,-6700 -8110,-10550 -14230,-7630l-19730 9380 -16400 7670zm126050 -60580c-4500,2250 -6640,7390 -5040,12170 1900,5710 8520,8460 13910,5760l9140 -4480 26750 -13350c4160,-2080 6280,-6700 5250,-11230 -1500,-6290 -8440,-9530 -14230,-6640l-26650 13290 -9130 4480zm124840 -63050c-10990,6050 -3660,22180 7860,18350 470,-180 870,-340 1340,-580l5740 -2950 29810 -15550c10850,-5970 3680,-22180 -7970,-18300 -450,180 -900,340 -1340,590l-29700 15500 -5740 2940zm123670 -65330c-10610,5840 -3700,22160 8120,18220 480,-180 940,-370 1390,-620l6200 -3330 29020 -15790c3080,-1700 5010,-4830 5180,-8340 360,-7770 -8000,-12950 -14800,-9210l-28920 15750 -6190 3320zm122430 -67510c-8930,4910 -5310,19170 5600,18670 1660,-160 2820,-470 4310,-1290 11630,-6600 23230,-13320 34770,-20080 10260,-6160 3090,-21890 -8370,-18080 -630,260 -1180,470 -1780,830 -11460,6720 -22980,13390 -34530,19950zm120090 -71370c-9220,5820 -3960,19930 6710,18410 1380,-250 2560,-610 3790,-1380 11380,-7000 22710,-14090 34040,-21180 8280,-5230 4880,-18030 -4870,-18470 -2020,-100 -4050,440 -5770,1520 -11280,7070 -22560,14130 -33900,21100zm118000 -74930c-1890,1300 -3140,2880 -3840,4560 -8660,-9010 -17320,-18040 -25860,-27150 -1680,-1770 -3910,-2890 -6320,-3120 -9210,-880 -14570,10120 -8300,16790 9170,9740 18400,19480 27720,29070 3290,3290 8320,4090 12340,1630 2030,-1170 3450,-2990 4210,-5050 2680,1870 6310,2440 10160,510l830 -490c11190,-7290 22360,-14610 33510,-21970 4150,-2840 5740,-8200 3460,-12760 -2660,-5300 -9510,-7340 -14500,-3930 -11110,7340 -22250,14640 -33410,21910zm116460 -77460c-9970,6820 -1480,22440 9910,17320 460,-240 890,-470 1320,-760 11060,-7480 22090,-15000 33120,-22530 6170,-4220 5680,-13600 -980,-17100 -3270,-1730 -7240,-1520 -10320,590 -11000,7520 -22010,15020 -33050,22480zm115340 -79210c-3200,2190 -4850,6220 -4120,10040 1360,7160 9540,10490 15550,6380l32850 -22890c1920,-1320 3390,-3440 3950,-5690 2170,-9130 -7750,-15950 -15420,-10700l-32810 22860zm114610 -80350c-3410,2340 -5000,6870 -3860,10850 2010,6720 9610,9460 15420,5490l32670 -23110c2290,-1560 3900,-4330 4160,-7070 820,-8650 -8560,-14160 -15720,-9260l-32670 23100zm114220 -80980c-8970,6130 -2500,21080 8910,17660 1010,-340 1810,-760 2690,-1360l32600 -23190c8970,-6140 2510,-21090 -8910,-17660 -1000,330 -1810,760 -2680,1360l-32610 23190zm114120 -81180c-8580,5870 -3080,20030 7790,17960 1510,-360 2500,-760 3800,-1650l32620 -23160c8560,-5860 3180,-20050 -7890,-17940 -1430,340 -2450,770 -3680,1620l-32640 23170zm114310 -80970c-8610,5890 -3170,20060 7840,17960 1430,-340 2450,-770 3690,-1610l32700 -23030c8650,-5910 3170,-20070 -7800,-17980 -1430,340 -2460,760 -3700,1610l-32730 23050zm114760 -80400c-8940,6110 -2870,20540 8170,17910 1230,-350 2150,-740 3230,-1480l32860 -22780c2030,-1390 3440,-3470 4030,-5850 2140,-8960 -7810,-15800 -15390,-10620l-32900 22820zm115440 -79460c-9730,6660 -1890,22060 9570,17470 600,-270 1140,-550 1670,-920l33090 -22440c9050,-6190 3150,-20650 -8300,-17930 -1040,310 -1980,720 -2890,1350l-33140 22470zm116380 -78140c-10220,6990 -1470,22460 9730,17420 450,-220 880,-440 1280,-720l33400 -21980c2250,-1550 3420,-3270 4200,-5860 2130,-8970 -7390,-15790 -15170,-10880l-33440 22020zm117550 -76430c-9580,6050 -3090,21270 8280,18020 900,-300 1630,-620 2450,-1130 11230,-7170 22490,-14300 33750,-21420 7430,-4700 5630,-16040 -2940,-18180 -2650,-630 -5390,-220 -7720,1250 -11290,7140 -22560,14280 -33820,21460zm118940 -74290c-10600,6700 -2050,22780 9500,17580l900 -480c11370,-6940 22770,-13840 34180,-20710 10240,-6150 2830,-22320 -8950,-17830 -460,180 -930,430 -1360,680 -11440,6900 -22860,13810 -34270,20760zm120590 -71670c-9240,5080 -4900,20180 6700,18530 1240,-240 2150,-570 3290,-1190 11520,-6660 23060,-13290 34640,-19850 3500,-1930 5570,-6050 5000,-10030 -1010,-7050 -8580,-10830 -14830,-7390 -11630,6590 -23230,13240 -34800,19930zm122450 -68520c-4280,2360 -6290,7330 -4730,11990 1940,5830 8810,8600 14230,5620 11700,-6340 23440,-12600 35200,-18820 10820,-5960 3690,-22180 -7980,-18290 -460,180 -900,340 -1350,590 -11810,6250 -23620,12540 -35370,18910zm124570 -64760c-7930,3970 -7230,15490 1170,18430 2660,800 5140,790 7690,-490 11930,-5920 23870,-11790 35840,-17620 9980,-4990 5760,-19970 -5430,-18960 -1240,180 -2140,400 -3290,950 -12020,5850 -24010,11750 -35980,17690zm126830 -60230c-9590,4110 -6920,19130 4260,19130 1510,-60 2540,-280 3930,-870l18330 -8210 18130 -7960c10400,-4460 6480,-20700 -5650,-19050 -820,160 -1520,350 -2300,690l-18280 8030 -18420 8240zm129330 -54900c-10220,3890 -7480,19820 4390,19280 1080,-100 1910,-280 2930,-670l10020 -3960 13360 -5220 13760 -5280c11430,-4360 6590,-21920 -6060,-19050 -4950,1590 -10040,3800 -14920,5670l-13460 5260 -10020 3970zm131910 -48580c-10460,3330 -8490,19500 3400,19500 1070,-50 1890,-190 2900,-510l12870 -4310 13380 -4400 11650 -3760c11150,-3550 8160,-20590 -4220,-19460 -650,90 -1230,200 -1860,400l-11760 3790 -13500 4440 -12860 4310zm134500 -41090c-11970,3260 -8520,21270 4130,19550l1000 -210 13400 -3600 13390 -3500 11790 -3010c12450,-3390 8390,-21830 -4500,-19490l-12300 3130 -13510 3530 -13400 3600zm136950 -32310c-11260,2050 -10760,19260 1760,19830 710,0 1330,-60 2020,-180l11640 -2280 13380 -2530 14080 -2540c11990,-2180 10630,-19860 -1940,-19860 -470,20 -940,60 -1400,140l-14380 2590 -13520 2550 -11640 2280zm139030 -22110c-12280,1600 -11460,19380 790,19940l1460 -60 7820 -920 13360 -1460 13350 -1350 5020 -470c6400,-560 10650,-7000 8600,-13140 -1450,-4370 -5740,-7190 -10370,-6790l-18700 1850 -13510 1480 -7820 920zm140450 -10500c-11740,510 -13300,17050 -1880,19770 810,160 1590,270 2450,230l15770 -400 13310 -200 10650 -60c11610,0 14020,-16950 2050,-19800 -710,-130 -1330,-210 -2070,-210l-10830 70 -13500 200 -15950 400zm140980 2460c-10440,-910 -15260,13630 -5120,18970 1300,590 2250,860 3660,990l9760 660 13270 1030 16570 1490c11870,1030 15540,-15660 3900,-19540 -610,-170 -1240,-310 -1870,-370l-16950 -1520 -13460 -1040 -9760 -670zm140010 16390c-10430,-1900 -16330,12130 -7160,18250 1270,780 2310,1200 3760,1470l4090 680 13210 2340 13200 2490 8550 1700c12200,2220 16870,-14840 5400,-19210 -490,-170 -910,-280 -1410,-400l-8740 -1730 -13400 -2520 -13410 -2390 -4090 -680zm137600 30750c-11220,-3060 -17950,12360 -7490,18420 690,360 1370,650 2110,850 12700,3480 25470,7290 38030,11260 11180,3550 18490,-12140 7850,-18300 -630,-320 -1140,-560 -1810,-770 -12770,-4040 -25770,-7920 -38690,-11460zm133540 45890c-10540,-4520 -19380,9960 -9830,17260 670,480 1310,850 2090,1180 12140,5060 24230,10440 36130,16060 10190,4860 19500,-8490 11050,-16420 -770,-660 -1500,-1190 -2450,-1640 -12150,-5770 -24580,-11270 -36990,-16440zm125710 65240c-9800,-6200 -20550,6310 -12870,15090 620,660 1240,1230 2010,1710 11100,7120 21910,14500 32580,22240 9500,6860 21020,-5450 13580,-14490 -600,-680 -1070,-1110 -1790,-1670 -10960,-7960 -22110,-15580 -33510,-22880zm110570 89060c-8560,-8560 -22200,2450 -15360,12710 320,450 650,870 1050,1270 9210,9360 18050,19000 26600,28960 7320,8300 20580,780 17020,-9900 -460,-1140 -970,-2150 -1790,-3070 -8830,-10310 -18000,-20290 -27520,-29970zm86660 112630c-6150,-10250 -21890,-3090 -18070,8370 240,620 480,1190 830,1780 6700,11320 13000,22780 18990,34490 1590,3180 4850,5300 8400,5470 7710,350 12890,-7620 9440,-14510 -6170,-12090 -12670,-23910 -19590,-35600zm58810 129070c-3270,-10270 -19480,-8600 -19480,3600 50,1030 220,1860 530,2830 4240,12500 8160,25030 11810,37710 2950,10830 19620,9150 19620,-3000 -40,-900 -150,-1620 -380,-2480 -3760,-13000 -7760,-25850 -12100,-38660zm34800 137090c-2200,-12080 -20390,-10440 -19830,2470l130 1010c2320,13040 4460,26080 6380,39180 1390,10570 17010,11920 19700,630 230,-1220 270,-2230 110,-3490 -2000,-13320 -4130,-26540 -6490,-39800zm17600 139840c-450,-5110 -4480,-8970 -9610,-9210 -5920,-250 -10850,4880 -10340,10790 1060,13220 1930,26450 2710,39690 480,10950 16460,13200 19650,2050 270,-1130 380,-1980 330,-3170 -770,-13380 -1680,-26780 -2740,-40150zm6300 140530c0,-10890 -15710,-13830 -19460,-3110 -390,1150 -540,2160 -540,3390l150 15010 -20 11230 -200 13340c-470,10790 15030,14660 19380,3770 390,-1100 570,-2000 620,-3190l200 -13770 30 -11450 -160 -15220zm-7270 141190c610,-4670 -2180,-9270 -6640,-10760 -5980,-2090 -12380,1920 -13190,8150l-870 6910 -1430 10410 -1540 10340 -1860 11470c-2120,11630 14770,16930 19310,5000 160,-490 290,-970 380,-1480l1940 -11930 1570 -10570 1470 -10630 860 -6910zm-28210 138570c2830,-10380 -10060,-17460 -17340,-9140 -850,1100 -1500,2180 -1880,3560l-3230 10960 -2930 9480 -3030 9420 -2640 7870c-2500,7850 4440,15080 12370,12810 2990,-900 5610,-3330 6560,-6340l2710 -8090 3110 -9640 3000 -9710 3300 -11180zm-50230 132300c5030,-10550 -9250,-19770 -16810,-10600 -490,650 -880,1230 -1240,1980l-4230 8730 -4290 8610 -4390 8550 -4920 9300c-1700,3080 -1640,6950 200,9970 4020,6590 13620,6420 17340,-350l5130 -9690 4490 -8750 4390 -8810 4330 -8940zm-71150 122370c3020,-4420 2190,-10340 -2030,-13630 -4490,-3480 -11140,-2550 -14350,2140l-2940 4240 -5510 7760 -5600 7720 -5670 7650 -3540 4670c-7050,9070 4830,21600 14590,13560 490,-460 890,-870 1300,-1400l3660 -4830 5800 -7820 5710 -7880 5640 -7940 2940 -4240zm-88960 109820c7960,-8460 -2790,-21860 -13070,-15010 -550,400 -1050,830 -1520,1340l-6700 7080 -6670 6910 -6730 6850 -7500 7480c-8400,8410 2000,22140 12680,15400 440,-320 880,-660 1270,-1060l7760 -7730 6860 -6990 6790 -7040 6830 -7230zm-103140 96550c7950,-6180 2270,-20070 -9140,-17350 -1440,480 -2300,910 -3510,1850l-4980 4100 -7590 6140 -7650 6090 -10810 8420c-9360,7290 -550,21910 10260,17040 690,-340 1280,-670 1890,-1140l11060 -8620 7780 -6190 7710 -6250 4980 -4090zm-113630 83560c10450,-7160 1210,-22900 -10150,-17220l-770 460 -12970 8420 -8430 5360 -12120 7550c-10540,6660 -2060,22780 9550,17560l900 -490 12350 -7700 8540 -5440 13100 -8500zm-121330 71690c10840,-5960 3700,-22180 -7970,-18290 -460,180 -900,340 -1340,580l-15440 8120 -9050 4650 -10850 5490c-9650,4820 -5870,19470 4990,18950 1440,-130 2580,-370 3900,-1030l11060 -5590 9160 -4710 15540 -8170zm-126830 61030c10440,-4480 6380,-20760 -5670,-19040 -810,150 -1540,360 -2300,690 -12150,5310 -24400,10440 -36660,15490 -3990,1720 -6400,5450 -6200,9820 310,6750 7530,11380 13780,8700 12390,-5110 24760,-10290 37050,-15660zm-130920 51600c11780,-4490 6730,-21970 -5930,-19100 -12690,3970 -25660,8990 -38360,13270 -10460,3330 -8490,19500 3400,19500 1070,-50 1890,-190 2900,-520 12710,-4260 25360,-8670 37990,-13150zm-133820 43140c10460,-2850 9430,-19060 -2700,-19610 -1030,0 -1890,130 -2860,390 -12750,3710 -25540,7300 -38350,10810 -11300,3080 -9050,20200 3360,19630 660,-60 1250,-150 1880,-320 12910,-3540 25810,-7160 38670,-10900zm-136020 35530c11110,-2530 10020,-19210 -2040,-19760 -870,0 -1610,70 -2440,260 -12960,3000 -25930,5920 -38920,8780 -12050,2740 -9590,20870 3370,19700l890 -160c13060,-2870 26100,-5810 39140,-8820zm-137580 28480c11540,-2100 10680,-19290 -1540,-19850 -710,0 -1330,40 -2020,160 -13080,2380 -26170,4660 -39280,6870 -12310,2240 -10440,20400 2330,19850l950 -120c13200,-2220 26390,-4520 39560,-6910zm-138800 21870c11540,-1510 11730,-18780 -720,-19910 -650,-30 -1260,-10 -1900,70 -13180,1760 -26360,3440 -39560,5030 -12150,1590 -11490,19370 900,19940 500,0 970,-10 1460,-70 13290,-1610 26560,-3290 39820,-5060zm-139630 15410c3140,-270 6020,-2040 7640,-4690 4310,-7050 -1190,-15950 -9370,-15240 -13220,1160 -26480,2230 -39720,3190 -12540,1100 -12220,19410 450,19980 13040,-310 27860,-2080 41000,-3240zm-140230 8860c12300,-530 13080,-18810 250,-19980 -13190,-140 -27500,920 -40850,1250 -12960,560 -12900,19410 -70,20000 13430,0 27220,-850 40670,-1270zm-140580 1750c12360,0 13910,-17670 1810,-19870 -480,-60 -960,-130 -1450,-130 -13280,-210 -26560,-500 -39830,-960 -11170,-480 -14790,15730 -3190,19590 840,250 1600,370 2480,410 13400,440 26780,750 40180,960zm-140540 -6770c11090,960 15300,-14440 4830,-19150 -1060,-430 -1950,-680 -3090,-780l-18560 -1580 -21250 -1910c-11420,-990 -15370,14960 -4480,19320 890,310 1680,520 2630,600l21360 1920 18560 1580zm-139670 -13840c10960,1430 15830,-14070 5370,-19020 -1010,-460 -1920,-710 -3010,-850l-12090 -1400 -27530 -3370c-11530,-1500 -15890,14860 -4950,19230 800,300 1540,500 2380,610l27740 3400 12090 1400zm-139190 -18540c12600,1640 16290,-16230 3870,-19620l-760 -140 -19480 -3010 -19980 -3210c-4790,-830 -9570,2110 -11090,6660 -1980,5930 1750,12020 7860,13090l20090 3220 19490 3010zm-138400 -23840c12620,2300 17000,-16070 4290,-19540l-19030 -3750 -20460 -4150c-10590,-2410 -17150,12290 -7080,18450 1050,550 1780,850 2920,1110l20700 4220 18660 3660zm-137270 -29790c9660,2200 16300,-9000 9830,-16390 -1360,-1560 -3060,-2490 -5070,-3040l-10420 -2520 -17640 -4390 -10640 -2720c-10490,-2860 -17730,11550 -7780,18190 960,560 1700,890 2760,1180l10770 2750 17760 4420 10430 2520zm-135760 -36420c10290,3270 17970,-10640 8850,-17610 -990,-720 -1890,-1170 -3060,-1540l-12310 -3670 -16370 -5010 -9460 -2960c-11190,-3560 -18490,12140 -7850,18300 630,320 1140,560 1800,770l9590 3000 16500 5050 12310 3670zm-133590 -43760c10130,3860 18710,-9770 9580,-17290 -880,-670 -1690,-1120 -2740,-1520l-6550 -2350 -15190 -5590 -15590 -5860c-11240,-4280 -19630,11600 -8170,18230 5320,2380 11290,4320 16790,6390l15320 5630 6550 2360zm-130790 -51780c11140,4770 19750,-10700 9390,-17610 -420,-260 -890,-520 -1350,-710l-8740 -3800 -13980 -6190 -13710 -6210c-11770,-5040 -20000,11490 -9000,17860l690 350 13850 6260 14110 6250 8740 3800zm-127110 -60290c9600,4800 19090,-6400 12360,-15200 -1000,-1150 -1760,-1790 -3130,-2540l-16980 -8880 -12760 -6820 -5410 -2940c-9050,-4970 -19030,5480 -12990,14540 990,1290 1890,2190 3360,3000l5540 3010 12890 6890 17120 8940zm-122630 -69060c9310,5880 20270,-6020 12880,-15000 -730,-830 -1440,-1440 -2380,-2030l-6490 -3970 -11790 -7330 -15460 -9800c-10230,-6470 -21190,7320 -12080,15870 380,330 790,650 1220,920l15700 9960 11910 7410 6490 3970zm-117340 -77680c9990,6830 21010,-5980 13320,-14770 -530,-570 -1010,-1020 -1640,-1480l-14690 -10580 -10750 -7900 -6710 -4990c-1740,-1350 -3720,-1900 -5860,-2000 -9710,0 -13830,12030 -6140,18010l6820 5070 10860 7970 14790 10670zm-111570 -85770c8900,7420 21440,-3950 14410,-13680 -550,-670 -940,-1100 -1610,-1690l-8150 -6740 -9970 -8360 -12380 -10520c-8380,-7390 -21250,3020 -14900,13070 530,790 1090,1430 1820,2070l12570 10680 10060 8430 8150 6740zm-105610 -92790c2570,2410 6050,3190 9420,2350 7600,-2170 9970,-11580 4230,-16980l-9400 -8820 -9270 -8790 -10210 -9790c-1620,-1620 -4050,-2700 -6330,-2810 -9350,-440 -14200,10570 -7610,17150l10350 9930 9340 8860 9480 8900zm-195550 -201680c2420,2740 6240,3930 9770,3080 7390,-1760 10170,-10720 5170,-16390 -8850,-9940 -17670,-19890 -26440,-29900 -2220,-2520 -5540,-3810 -8890,-3330 -7880,1130 -11430,10540 -6180,16490 8810,10060 17690,20060 26570,30050zm-91930 -105980c5940,6740 16760,3270 17600,-5560 130,-2710 -480,-5260 -2320,-7350 -8610,-10170 -17200,-20350 -25770,-30560 -7810,-8850 -21490,70 -16700,10730 400,790 800,1450 1360,2120 8580,10230 17200,20430 25830,30620zm-89860 -107550c7730,9280 22570,-670 16230,-11610 -260,-420 -510,-750 -810,-1140l-25500 -30830c-3020,-3620 -8160,-4700 -12340,-2500 -5730,3150 -7070,10100 -3080,15240l25500 30840zm-89280 -107870c7760,8790 21090,150 16970,-10150 -460,-1020 -870,-1780 -1580,-2640 -8540,-10260 -17150,-20480 -25650,-30760 -8420,-9540 -22910,1590 -15840,12190 8110,10510 17550,21070 26100,31360zm-90110 -106990c3190,3620 8110,4520 12380,2270 5500,-3030 7010,-10530 2800,-15300 -8680,-10150 -17410,-20260 -26170,-30350 -2490,-2830 -6230,-4040 -9900,-3160 -7230,1720 -10130,10690 -5200,16280 8730,10060 17430,20140 26090,30260zm-92220 -105020c6970,7910 20540,540 16760,-10260 -510,-1270 -1050,-2170 -1950,-3180 -8970,-9920 -17950,-19820 -27020,-29640 -8620,-9170 -23160,2740 -15020,13200 8870,10050 18220,19910 27230,29880zm-95400 -102030c8890,8880 22780,-3210 14930,-13290l-600 -670 -14020 -14380 -14090 -14260c-1660,-1660 -3810,-2670 -6110,-2890 -9340,-890 -14650,10430 -8050,17020 9370,9430 18680,18920 27940,28470zm-99310 -98110c8530,8030 21830,-2860 15080,-12990 -420,-580 -830,-1070 -1370,-1580l-14410 -13540 -14960 -13840c-1980,-1740 -4200,-2620 -6840,-2620 -9050,0 -13360,11470 -6660,17380l14810 13710 14350 13480zm-103690 -93360c8040,7090 21020,-2480 14940,-12970 -610,-910 -1140,-1530 -1970,-2270l-18280 -15530 -12420 -10390c-9730,-7570 -21610,4940 -13980,14210 400,460 790,850 1270,1240l12250 10250 18190 15460zm-108260 -88010c8730,6790 20780,-3930 14300,-13650 -680,-900 -1200,-1500 -2120,-2220l-14670 -11230 -17350 -13050c-7900,-6140 -19590,2620 -14890,12540 800,1520 1620,2480 2980,3530l17160 12920 14590 11160zm-112740 -82180c3910,2680 9100,2260 12510,-940 4670,-4380 4070,-11960 -1170,-15540l-15140 -10360 -18130 -12190c-8620,-5890 -20180,4370 -13570,14290 750,990 1480,1680 2530,2400l17940 12050 15030 10290zm-116900 -76070c10520,6320 21210,-8320 11360,-16430l-950 -650 -6740 -4140 -14250 -8630 -13360 -7990c-4010,-2400 -9220,-1630 -12370,1740 -4420,4710 -3320,12170 2160,15470l13250 7920 14150 8570 6750 4140zm-120740 -69960c9930,5470 20100,-7610 11750,-15970 -690,-640 -1340,-1130 -2180,-1590l-18260 -9900 -17150 -9130c-1810,-900 -3320,-1200 -5330,-1110 -10110,970 -12810,13970 -3920,18860l16940 9010 18150 9830zm-124060 -63880c10890,5190 20160,-9930 10020,-17250 -420,-280 -850,-540 -1320,-770l-21300 -10240 -14920 -7040c-10500,-5000 -19940,9520 -10220,17080 520,400 1130,750 1740,1040l14810 6990 21190 10190zm-127860 -52810c10380,3300 18010,-10640 8890,-17610 -960,-690 -1880,-1160 -3010,-1520 -12850,-3970 -25760,-7690 -38730,-11260 -11370,-3100 -17920,12920 -7160,18580 670,300 1190,530 1890,730 12770,3500 25470,7170 38120,11080zm-134790 -34460c10750,2450 17210,-12590 6890,-18560 -970,-480 -1660,-760 -2710,-1000 -13100,-2810 -26220,-5480 -39370,-8080 -11640,-2120 -16890,14040 -5770,19050 630,250 1280,460 1940,590 13030,2550 26040,5220 39020,8000zm-137150 -25310c2240,290 3980,30 6010,-930 8700,-4580 6700,-17170 -2920,-18840 -13220,-2080 -26450,-4060 -39690,-5980 -11490,-1490 -16080,14280 -5330,19120 810,320 1620,570 2480,690 13170,1890 26310,3870 39450,5940zm-138350 -18510c12360,1070 15550,-16370 3450,-19670l-1260 -220c-13290,-1470 -26600,-2860 -39920,-4170 -12030,-1050 -15490,16210 -3440,19650 500,110 980,210 1500,260 13230,1320 26450,2690 39670,4150zm-139040 -12340c1940,90 3610,-230 5330,-1140 8850,-4920 6090,-17950 -4030,-18830 -13350,-870 -26700,-1690 -40050,-2410 -12640,-550 -14650,18160 -1580,19940 13340,1030 26940,1560 40330,2440zm-139450 -6190c12410,0 13950,-17670 1810,-19880l-1390 -120c-13380,-290 -26760,-490 -40140,-610 -12310,0 -14010,18200 -1050,19960l890 50c13300,120 26590,310 39880,600zm-139540 290c12540,-540 13090,-18870 330,-19980l-890 -20c-13390,360 -26760,810 -40140,1370 -11120,480 -13440,16430 -2020,19690 950,230 1870,340 2870,300 13280,-570 26560,-1010 39850,-1360zm-139300 7390c10160,-880 12760,-14600 3280,-19090 -1660,-670 -3070,-1000 -4900,-840 -13360,1050 -26700,2270 -40030,3560 -11180,980 -12500,17670 -560,19850 870,120 1640,140 2520,60 13220,-1280 26450,-2490 39690,-3540zm-138520 15420c10610,-1380 11820,-17140 580,-19690 -1230,-240 -2230,-270 -3490,-100 -13260,1920 -26510,3920 -39730,6110 -12310,2240 -10440,20400 2330,19850l950 -120c13090,-2170 26220,-4140 39360,-6050z"/>
   <path class="fil1" d="M1770660 140l5280 1040 5280 1040c2040,400 3720,1600 4800,3200 1070,1600 470,3690 1140,5650l20880 61170 -42500 48690c-1360,1560 -1600,3720 -3200,4800 -1610,1080 -3620,1540 -5650,1140l-5290 -1040 -5280 -1040c-2030,-400 -3720,-1590 -4790,-3200 -1080,-1600 -2510,-4080 -1150,-5650l42500 -48690 -20870 -61170c-670,-1960 1590,-3720 3200,-4800 1600,-1070 3610,-1540 5650,-1140z"/>
   <path class="fil1" d="M2998520 692610l3580 4030 3570 4020c1380,1550 2000,3520 1880,5450 -110,1930 -1850,3230 -2510,5190l-20400 61330 -63300 13040c-2030,410 -3530,1990 -5460,1880 -1920,-120 -3810,-970 -5180,-2510l-3580 -4030 -3580 -4020c-1370,-1550 -1990,-3530 -1870,-5450 110,-1930 470,-4780 2500,-5190l63310 -13040 20400 -61330c660,-1960 3530,-1990 5450,-1880 1930,120 3820,960 5190,2510z"/>
   <path class="fil1" d="M4064790 1782020l4180 3390 4180 3400c1610,1300 2540,3150 2740,5070 200,1920 -1310,3490 -1630,5530l-10190 63820 -60350 23130c-1930,750 -3150,2540 -5070,2750 -1920,190 -3920,-340 -5530,-1640l-4180 -3390 -4180 -3390c-1610,-1310 -2540,-3160 -2740,-5070 -200,-1930 -300,-4790 1630,-5530l60350 -23140 10190 -63820c330,-2050 3150,-2540 5070,-2740 1930,-200 3920,330 5530,1630z"/>
   <path class="fil1" d="M5910520 2089450l5330 -690 5340 -690c2060,-270 4040,330 5570,1500 1530,1180 1620,3360 2880,5000l39240 51350 -24810 59690c-800,1910 -330,4030 -1510,5560 -1180,1530 -2940,2610 -5000,2880l-5330 690 -5340 700c-2060,260 -4040,-330 -5570,-1510 -1530,-1180 -3680,-3080 -2880,-5000l24810 -59670 -39240 -51360c-1260,-1650 330,-4040 1510,-5570 1180,-1530 2940,-2610 5000,-2880z"/>
   <path class="fil1" d="M5960200 231550l-5180 1450 -5190 1440c-2000,550 -4040,240 -5720,-710 -1680,-950 -2090,-3090 -3560,-4530l-46120 -45280 16100 -62600c520,-2000 -240,-4040 710,-5720 950,-1680 2540,-3000 4540,-3560l5180 -1440 5190 -1440c2000,-560 4040,-250 5720,700 1680,950 4080,2530 3560,4540l-16110 62590 46120 45280c1480,1450 250,4040 -700,5720 -950,1690 -2540,3010 -4540,3560z"/>
   <path class="fil1" d="M2547800 2105560l-4930 2150 -4930 2150c-1910,830 -3970,800 -5770,90 -1800,-700 -2490,-2760 -4160,-3990l-51960 -38430 7240 -64220c240,-2060 -800,-3970 -90,-5770 700,-1800 2100,-3330 4000,-4160l4930 -2140 4940 -2150c1900,-830 3960,-810 5760,-100 1800,710 4390,1930 4160,3990l-7250 64230 51970 38430c1660,1230 800,3960 90,5760 -700,1800 -2090,3330 -4000,4160z"/>
   <path class="fil1" d="M257820 1970400l-3220 -4320 -3210 -4320c-1240,-1660 -1690,-3680 -1410,-5590 290,-1910 2130,-3060 2950,-4960l25620 -59330 64190 -7530c2060,-250 3680,-1690 5590,-1410 1920,280 3720,1290 4960,2950l3220 4320 3210 4320c1240,1660 1680,3680 1400,5590 -280,1910 -890,4710 -2940,4950l-64200 7530 -25610 59340c-830,1900 -3690,1690 -5600,1400 -1910,-270 -3710,-1280 -4950,-2940z"/>
  </g>
 </g>
</svg>
