<?xml version="1.0" encoding="UTF-8"?>
<!DOCTYPE svg PUBLIC "-//W3C//DTD SVG 1.1//EN" "http://www.w3.org/Graphics/SVG/1.1/DTD/svg11.dtd">
<!-- Creator: CorelDRAW 2017 -->
<svg xmlns="http://www.w3.org/2000/svg" xml:space="preserve" width="733px" height="227px" version="1.1" style="shape-rendering:geometricPrecision; text-rendering:geometricPrecision; image-rendering:optimizeQuality; fill-rule:evenodd; clip-rule:evenodd"
viewBox="0 0 7330000 2272630"
 xmlns:xlink="http://www.w3.org/1999/xlink">
 <defs>
  <style type="text/css">
   <![CDATA[
    .fil0 {fill:#F6BF4A}
    .fil1 {fill:#F6BF4A;fill-rule:nonzero}
   ]]>
  </style>
 </defs>
 <g id="Layer_x0020_1">
  <metadata id="CorelCorpID_0Corel-Layer"/>
  <g id="_1626154042048">
   <path class="fil0" d="M2472320 0l5380 0 5380 0c2080,0 3960,850 5330,2210 1360,1370 1180,3540 2210,5330l32290 55980 -32290 55970c-1030,1800 -850,3960 -2210,5330 -1370,1360 -3250,2210 -5330,2210l-5380 0 -5380 0c-2070,0 -3960,-850 -5320,-2210 -1370,-1370 -3250,-3530 -2220,-5330l32300 -55970 -32300 -55980c-1030,-1800 850,-3960 2220,-5330 1360,-1360 3250,-2210 5320,-2210z"/>
   <path class="fil0" d="M4612320 0l5390 0 5380 0c2070,0 3960,850 5320,2210 1370,1370 1180,3540 2210,5330l32300 55980 -32300 55970c-1030,1800 -840,3960 -2210,5330 -1360,1360 -3250,2210 -5320,2210l-5380 0 -5390 0c-2070,0 -3950,-850 -5320,-2210 -1360,-1370 -3250,-3530 -2210,-5330l32290 -55970 -32290 -55980c-1040,-1800 850,-3960 2210,-5330 1370,-1360 3250,-2210 5320,-2210z"/>
   <path class="fil0" d="M7330000 1117600l0 5380 0 5380c0,2070 -850,3960 -2210,5330 -1370,1360 -3530,1170 -5330,2210l-55970 32290 -55980 -32290c-1790,-1030 -3960,-850 -5320,-2210 -1370,-1370 -2220,-3260 -2220,-5330l0 -5380 0 -5380c0,-2070 850,-3960 2220,-5330 1360,-1360 3520,-3250 5320,-2210l55980 32290 55970 -32290c1800,-1030 3960,850 5330,2210 1360,1370 2210,3260 2210,5330z"/>
   <path class="fil1" d="M63520 58840c-11060,0 -14120,15660 -3040,19530 1050,300 1920,470 3040,470l40000 0c11060,0 14120,-15660 3040,-19530 -1050,-310 -1920,-470 -3040,-470l-40000 0zm10000 32960c0,-5700 -4750,-10230 -10460,-9990 -5330,230 -9550,4640 -9550,9990l0 40010c0,11050 15660,14120 19540,3030 300,-1040 470,-1910 470,-3030l0 -40010zm0 140030c0,-5700 -4750,-10240 -10460,-9990 -5330,230 -9550,4640 -9550,9990l0 40010c0,11050 15660,14110 19540,3030 300,-1050 470,-1910 470,-3030l0 -40010zm0 140030c0,-5710 -4750,-10240 -10460,-9990 -5330,230 -9550,4640 -9550,9990l0 40000c0,11060 15660,14120 19540,3040 300,-1050 470,-1920 470,-3040l0 -40000zm0 140020c0,-5700 -4750,-10230 -10460,-9990 -5330,230 -9550,4640 -9550,9990l0 40010c0,11050 15660,14120 19540,3030 300,-1050 470,-1910 470,-3030l0 -40010zm0 140030c0,-5700 -4750,-10240 -10460,-9990 -5330,230 -9550,4640 -9550,9990l0 40010c0,11050 15660,14110 19540,3030 300,-1050 470,-1910 470,-3030l0 -40010zm0 140030c0,-5710 -4750,-10240 -10460,-10000 -5330,240 -9550,4650 -9550,10000l0 40000c0,11060 15660,14120 19540,3040 300,-1050 470,-1920 470,-3040l0 -40000zm0 140020c0,-5700 -4750,-10240 -10460,-9990 -5330,230 -9550,4640 -9550,9990l0 40010c0,11050 15660,14110 19540,3030 300,-1050 470,-1910 470,-3030l0 -40010zm0 140030c0,-5700 -4750,-10240 -10460,-9990 -5330,230 -9550,4640 -9550,9990l0 40010c0,11050 15660,14110 19540,3030 300,-1050 470,-1910 470,-3030l0 -40010zm0 140020c0,-5700 -4750,-10230 -10460,-9990 -5330,240 -9550,4640 -9550,9990l0 40010c0,11060 15660,14120 19540,3040 300,-1050 470,-1920 470,-3040l0 -40010zm0 140030c0,-5700 -4750,-10240 -10460,-9990 -5330,230 -9550,4640 -9550,9990l0 40010c0,11050 15660,14110 19540,3030 300,-1050 470,-1910 470,-3030l0 -40010zm0 140030c0,-5700 -4750,-10240 -10460,-9990 -5330,230 -9550,4640 -9550,9990l0 40000c0,11060 15660,14120 19540,3040 300,-1050 470,-1920 470,-3040l0 -40000zm0 140020c0,-5700 -4750,-10230 -10460,-9990 -5330,240 -9550,4640 -9550,9990l0 40010c0,11050 15660,14120 19540,3030 300,-1040 470,-1910 470,-3030l0 -40010zm0 140030c0,-5700 -4750,-10240 -10460,-9990 -5330,230 -9550,4640 -9550,9990l0 40010c0,11050 15660,14110 19540,3030 300,-1050 470,-1910 470,-3030l0 -40010zm0 140030c0,-5700 -4750,-10240 -10460,-9990 -5330,230 -9550,4640 -9550,9990l0 40000c0,11060 15660,14120 19540,3040 300,-1050 470,-1920 470,-3040l0 -40000zm0 140020c0,-5700 -4750,-10230 -10460,-9990 -5330,230 -9550,4640 -9550,9990l0 40010c0,11050 15660,14120 19540,3030 300,-1040 470,-1910 470,-3030l0 -40010zm0 140030c0,-5700 -4750,-10240 -10460,-9990 -5330,230 -9550,4640 -9550,9990l30 16940c-30,3890 2110,7810 6940,9500 1050,300 1920,470 3040,470l23090 0c11060,0 14120,-15660 3040,-19530 -1050,-300 -1920,-470 -3040,-470l-13090 0 0 -6910zm113110 6910c-11050,0 -14110,15660 -3030,19530 1050,300 1910,470 3030,470l40010 0c11060,0 14120,-15660 3030,-19530 -1040,-300 -1910,-470 -3030,-470l-40010 0zm140030 0c-11050,0 -14120,15660 -3030,19530 1050,300 1910,470 3030,470l40010 0c11050,0 14110,-15660 3030,-19530 -1050,-300 -1910,-470 -3030,-470l-40010 0zm140030 0c-11060,0 -14120,15660 -3040,19530 1050,300 1920,470 3040,470l40000 0c11060,0 14120,-15660 3040,-19530 -1050,-300 -1920,-470 -3040,-470l-40000 0zm140020 0c-11050,0 -14110,15660 -3030,19530 1050,300 1910,470 3030,470l40010 0c11050,0 14120,-15660 3030,-19530 -1040,-300 -1910,-470 -3030,-470l-40010 0zm140030 0c-11050,0 -14120,15660 -3030,19530 1050,300 1910,470 3030,470l40010 0c11050,0 14110,-15660 3030,-19530 -1050,-300 -1910,-470 -3030,-470l-40010 0zm140030 0c-11060,0 -14120,15660 -3040,19530 1050,300 1920,470 3040,470l40000 0c11060,0 14120,-15660 3040,-19530 -1050,-300 -1920,-470 -3040,-470l-40000 0zm140020 0c-11050,0 -14110,15660 -3030,19530 1050,300 1910,470 3030,470l40010 0c11050,0 14120,-15660 3030,-19530 -1050,-300 -1910,-470 -3030,-470l-40010 0zm140030 0c-11050,0 -14120,15660 -3030,19530 1040,300 1910,470 3030,470l40010 0c11050,0 14110,-15660 3030,-19530 -1050,-300 -1910,-470 -3030,-470l-40010 0zm140030 0c-11060,0 -14120,15660 -3040,19530 1050,300 1920,470 3040,470l40000 0c11060,0 14120,-15660 3040,-19530 -1050,-300 -1920,-470 -3040,-470l-40000 0zm140020 0c-11050,0 -14110,15660 -3030,19530 1050,300 1910,470 3030,470l40010 0c11050,0 14110,-15660 3030,-19530 -1050,-300 -1910,-470 -3030,-470l-40010 0zm140030 0c-11060,0 -14120,15660 -3040,19530 1050,300 1920,470 3040,470l40010 0c11050,0 14110,-15660 3030,-19530 -1050,-300 -1910,-470 -3030,-470l-40010 0zm140020 0c-11050,0 -14110,15660 -3030,19530 1050,300 1910,470 3030,470l40010 0c11060,0 14120,-15660 3040,-19530 -1050,-300 -1920,-470 -3040,-470l-40010 0zm140030 0c-11050,0 -14110,15660 -3030,19530 1050,300 1910,470 3030,470l40010 0c11050,0 14110,-15660 3030,-19530 -1050,-300 -1910,-470 -3030,-470l-40010 0zm140030 0c-11060,0 -14120,15660 -3040,19530 1050,300 1920,470 3040,470l40000 0c11060,0 14120,-15660 3040,-19530 -1050,-300 -1920,-470 -3040,-470l-40000 0zm140020 0c-11050,0 -14110,15660 -3030,19530 1050,300 1910,470 3030,470l40010 0c11060,0 14120,-15660 3030,-19530 -1040,-300 -1910,-470 -3030,-470l-40010 0zm140030 0c-11050,0 -14120,15660 -3030,19530 1050,300 1910,470 3030,470l40010 0c11050,0 14110,-15660 3030,-19530 -1050,-300 -1910,-470 -3030,-470l-40010 0zm140030 0c-11060,0 -14120,15660 -3040,19530 1050,300 1920,470 3040,470l40000 0c11060,0 14120,-15660 3040,-19530 -1050,-300 -1920,-470 -3040,-470l-40000 0zm140020 0c-11050,0 -14110,15660 -3030,19530 1050,300 1910,470 3030,470l40010 0c11050,0 14120,-15660 3030,-19530 -1040,-300 -1910,-470 -3030,-470l-40010 0zm140030 0c-11050,0 -14120,15660 -3030,19530 1040,300 1910,470 3030,470l40010 0c11050,0 14110,-15660 3030,-19530 -1050,-300 -1910,-470 -3030,-470l-40010 0zm140030 0c-11060,0 -14120,15660 -3040,19530 1050,300 1920,470 3040,470l40000 0c11060,0 14120,-15660 3040,-19530 -1050,-300 -1920,-470 -3040,-470l-40000 0zm140020 0c-11050,0 -14110,15660 -3030,19530 1050,300 1910,470 3030,470l40010 0c11050,0 14120,-15660 3030,-19530 -1050,-300 -1910,-470 -3030,-470l-40010 0zm140030 0c-11050,0 -14120,15660 -3030,19530 1040,300 1910,470 3030,470l40010 0c11050,0 14110,-15660 3030,-19530 -1050,-300 -1910,-470 -3030,-470l-40010 0zm140030 0c-11060,0 -14120,15660 -3040,19530 1050,300 1920,470 3040,470l40000 0c11060,0 14120,-15660 3040,-19530 -1050,-300 -1920,-470 -3040,-470l-40000 0zm140020 0c-11050,0 -14110,15660 -3030,19530 1050,300 1910,470 3030,470l40010 0c5700,0 10240,-4750 9990,-10450 -230,-5330 -4640,-9550 -9990,-9550l-40010 0zm140030 0c-11060,0 -14120,15660 -3040,19530 1050,300 1920,470 3040,470l40010 0c5700,0 10230,-4750 9990,-10450 -240,-5330 -4640,-9550 -9990,-9550l-40010 0zm140020 0c-11050,0 -14110,15660 -3030,19530 1050,300 1910,470 3030,470l40010 0c5700,0 10240,-4750 9990,-10450 -230,-5330 -4640,-9550 -9990,-9550l-40010 0zm140030 0c-11050,0 -14110,15660 -3030,19530 1050,300 1910,470 3030,470l40010 0c5700,0 10240,-4750 9990,-10450 -230,-5330 -4640,-9550 -9990,-9550l-40010 0zm140030 0c-11060,0 -14120,15660 -3040,19530 1050,300 1920,470 3040,470l40000 0c5710,0 10240,-4750 10000,-10450 -240,-5330 -4650,-9550 -10000,-9550l-40000 0zm140020 0c-11050,0 -14110,15660 -3030,19530 1050,300 1910,470 3030,470l40010 0c5700,0 10240,-4750 9990,-10450 -230,-5330 -4640,-9550 -9990,-9550l-40010 0zm140030 0c-11050,0 -14120,15660 -3030,19530 1050,300 1910,470 3030,470l40010 0c5700,0 10230,-4750 9990,-10450 -230,-5330 -4640,-9550 -9990,-9550l-40010 0zm140030 0c-11060,0 -14120,15660 -3040,19530 1050,300 1920,470 3040,470l40000 0c5710,0 10240,-4750 9990,-10450 -230,-5330 -4640,-9550 -9990,-9550l-40000 0zm140020 0c-11050,0 -14110,15660 -3030,19530 1050,300 1910,470 3030,470l40010 0c5700,0 10240,-4750 9990,-10450 -230,-5330 -4640,-9550 -9990,-9550l-40010 0zm140030 0c-11050,0 -14120,15660 -3030,19530 1040,300 1910,470 3030,470l40010 0c5700,0 10230,-4750 9990,-10450 -230,-5330 -4640,-9550 -9990,-9550l-40010 0zm140030 0c-11060,0 -14120,15660 -3040,19530 1050,300 1920,470 3040,470l40000 0c5700,0 10240,-4750 9990,-10450 -230,-5330 -4640,-9550 -9990,-9550l-40000 0zm140020 0c-11050,0 -14110,15660 -3030,19530 1050,300 1910,470 3030,470l40010 0c5700,0 10230,-4750 9990,-10450 -230,-5330 -4640,-9550 -9990,-9550l-40010 0zm140030 0c-11060,0 -14120,15660 -3040,19530 1050,300 1920,470 3040,470l40000 0c5700,0 10240,-4750 9990,-10450 -230,-5330 -4640,-9550 -9990,-9550l-40000 0zm140020 0c-11050,0 -14110,15660 -3030,19530 1050,300 1910,470 3030,470l40010 0c5700,0 10240,-4750 9990,-10450 -230,-5330 -4640,-9550 -9990,-9550l-40010 0zm140030 0c-11050,0 -14120,15660 -3030,19530 1040,300 1910,470 3030,470l40010 0c5700,0 10230,-4750 9990,-10450 -240,-5330 -4640,-9550 -9990,-9550l-40010 0zm140030 0c-11060,0 -14120,15660 -3040,19530 1050,300 1920,470 3040,470l40000 0c5700,0 10240,-4750 9990,-10450 -230,-5330 -4640,-9550 -9990,-9550l-40000 0zm140020 0c-11050,0 -14110,15660 -3030,19530 1050,300 1910,470 3030,470l40010 0c5700,0 10240,-4750 9990,-10450 -230,-5330 -4640,-9550 -9990,-9550l-40010 0zm140030 0c-11060,0 -14120,15660 -3040,19530 1050,300 1920,470 3040,470l40010 0c5700,0 10230,-4750 9990,-10450 -240,-5330 -4640,-9550 -9990,-9550l-40010 0zm140020 0c-11050,0 -14110,15660 -3030,19530 1050,300 1910,470 3030,470l40010 0c5700,0 10240,-4750 9990,-10450 -230,-5330 -4640,-9550 -9990,-9550l-40010 0zm140030 0c-11050,0 -14110,15660 -3030,19530 1050,300 1910,470 3030,470l40010 0c5700,0 10240,-4750 9990,-10450 -230,-5330 -4640,-9550 -9990,-9550l-40010 0zm140030 0c-11060,0 -14120,15660 -3040,19530 1050,300 1920,470 3040,470l40000 0c5710,0 10240,-4750 10000,-10450 -240,-5330 -4650,-9550 -10000,-9550l-40000 0zm140020 0c-11050,0 -14110,15660 -3030,19530 1050,300 1910,470 3030,470l40010 0c5700,0 10240,-4750 9990,-10450 -230,-5330 -4640,-9550 -9990,-9550l-40010 0zm140030 0c-11050,0 -14120,15660 -3030,19530 1050,300 1910,470 3030,470l40010 0c5700,0 10230,-4750 9990,-10450 -230,-5330 -4640,-9550 -9990,-9550l-40010 0zm140030 0c-11060,0 -14120,15660 -3040,19530 1050,300 1920,470 3040,470l40000 0c5710,0 10240,-4750 9990,-10450 -230,-5330 -4640,-9550 -9990,-9550l-40000 0zm140020 0c-11050,0 -14110,15660 -3030,19530 1050,300 1910,470 3030,470l40010 0c5700,0 10240,-4750 9990,-10450 -230,-5330 -4640,-9550 -9990,-9550l-40010 0zm140030 0c-11050,0 -14120,15660 -3030,19530 1040,300 1910,470 3030,470l40010 0c5700,0 10230,-4750 9990,-10450 -240,-5330 -4640,-9550 -9990,-9550l-40010 0zm140030 0c-11060,0 -14120,15660 -3040,19530 1050,300 1920,470 3040,470l40000 0c5700,0 10240,-4750 9990,-10450 -230,-5330 -4640,-9550 -9990,-9550l-40000 0zm140020 0c-11050,0 -14110,15660 -3030,19530 1050,300 1910,470 3030,470l40010 0c5700,0 10240,-4750 9990,-10450 -230,-5330 -4640,-9550 -9990,-9550l-40010 0zm68540 -51490c0,11050 15650,14110 19530,3030 300,-1050 470,-1910 470,-3030l0 -40010c0,-11060 -15660,-14120 -19540,-3030 -300,1040 -460,1910 -460,3030l0 40010zm0 -140030c0,11050 15650,14120 19530,3030 300,-1050 470,-1910 470,-3030l0 -40010c0,-11050 -15660,-14110 -19540,-3030 -300,1050 -460,1910 -460,3030l0 40010zm0 -140030c0,11060 15650,14120 19530,3040 300,-1050 470,-1920 470,-3040l0 -40000c0,-11060 -15660,-14120 -19540,-3040 -300,1050 -460,1920 -460,3040l0 40000zm0 -140020c0,11050 15650,14110 19530,3030 300,-1050 470,-1910 470,-3030l0 -40010c0,-11050 -15660,-14120 -19540,-3030 -300,1040 -460,1910 -460,3030l0 40010zm0 -140030c0,11050 15650,14120 19530,3030 300,-1050 470,-1910 470,-3030l0 -40010c0,-11050 -15660,-14110 -19540,-3030 -300,1050 -460,1910 -460,3030l0 40010zm0 -140030c0,11060 15650,14120 19530,3040 300,-1050 470,-1920 470,-3040l0 -40000c0,-11060 -15660,-14120 -19540,-3040 -300,1050 -460,1920 -460,3040l0 40000zm0 -140020c0,11050 15650,14110 19530,3030 300,-1050 470,-1910 470,-3030l0 -40010c0,-11050 -15660,-14120 -19540,-3030 -300,1050 -460,1910 -460,3030l0 40010zm0 -140030c0,11050 15650,14120 19530,3030 300,-1040 470,-1910 470,-3030l0 -40010c0,-11050 -15660,-14110 -19540,-3030 -300,1050 -460,1910 -460,3030l0 40010zm0 -140030c0,11060 15650,14120 19530,3040 300,-1050 470,-1920 470,-3040l0 -40000c0,-11060 -15660,-14120 -19540,-3040 -300,1050 -460,1920 -460,3040l0 40000zm0 -140020c0,11050 15650,14110 19530,3030 300,-1050 470,-1910 470,-3030l0 -40010c0,-11050 -15660,-14110 -19540,-3030 -300,1050 -460,1910 -460,3030l0 40010zm0 -140030c0,11060 15650,14120 19530,3040 300,-1050 470,-1920 470,-3040l0 -40010c0,-11050 -15660,-14110 -19540,-3030 -300,1050 -460,1910 -460,3030l0 40010zm0 -140020c0,11050 15650,14110 19530,3030 300,-1050 470,-1910 470,-3030l0 -40010c0,-11060 -15660,-14120 -19540,-3040 -300,1050 -460,1920 -460,3040l0 40010zm0 -140030c0,11050 15650,14110 19530,3030 300,-1050 470,-1910 470,-3030l0 -40010c0,-11050 -15660,-14110 -19540,-3030 -300,1050 -460,1910 -460,3030l0 40010zm0 -140030c0,11060 15650,14120 19530,3040 300,-1050 470,-1920 470,-3040l0 -40000c0,-11060 -15660,-14120 -19540,-3040 -300,1050 -460,1920 -460,3040l0 40000zm0 -140020c0,11050 15650,14110 19530,3030 300,-1050 470,-1910 470,-3030l0 -40010c0,-11050 -15660,-14110 -19540,-3030 -300,1050 -460,1910 -460,3030l0 40010zm-11620 -108410c5700,0 10230,-4750 9990,-10450 -230,-5330 -4640,-9550 -9990,-9550l-40010 0c-11050,0 -14120,15660 -3030,19530 1050,300 1910,470 3030,470l40010 0zm-140030 0c5700,0 10240,-4750 9990,-10450 -230,-5330 -4640,-9550 -9990,-9550l-40010 0c-11050,0 -14110,15660 -3030,19530 1050,300 1910,470 3030,470l40010 0zm-140030 0c5710,0 10240,-4750 10000,-10450 -240,-5330 -4650,-9550 -10000,-9550l-40000 0c-11060,0 -14120,15660 -3040,19530 1050,300 1920,470 3040,470l40000 0zm-140020 0c5700,0 10240,-4750 9990,-10450 -230,-5330 -4640,-9550 -9990,-9550l-40010 0c-11050,0 -14110,15660 -3030,19530 1050,300 1910,470 3030,470l40010 0zm-140030 0c5700,0 10240,-4750 9990,-10450 -230,-5330 -4640,-9550 -9990,-9550l-40010 0c-11050,0 -14110,15660 -3030,19530 1050,300 1910,470 3030,470l40010 0zm-140020 0c5700,0 10230,-4750 9990,-10450 -240,-5330 -4640,-9550 -9990,-9550l-40010 0c-11060,0 -14120,15660 -3040,19530 1050,300 1920,470 3040,470l40010 0zm-140030 0c5700,0 10240,-4750 9990,-10450 -230,-5330 -4640,-9550 -9990,-9550l-40010 0c-11050,0 -14110,15660 -3030,19530 1050,300 1910,470 3030,470l40010 0zm-140030 0c5700,0 10240,-4750 9990,-10450 -230,-5330 -4640,-9550 -9990,-9550l-40000 0c-11060,0 -14120,15660 -3040,19530 1050,300 1920,470 3040,470l40000 0zm-140020 0c5700,0 10230,-4750 9990,-10450 -240,-5330 -4640,-9550 -9990,-9550l-40010 0c-11050,0 -14120,15660 -3030,19530 1040,300 1910,470 3030,470l40010 0zm-140030 0c5700,0 10240,-4750 9990,-10450 -230,-5330 -4640,-9550 -9990,-9550l-40010 0c-11050,0 -14110,15660 -3030,19530 1050,300 1910,470 3030,470l40010 0zm-140030 0c5700,0 10240,-4750 9990,-10450 -230,-5330 -4640,-9550 -9990,-9550l-40000 0c-11060,0 -14120,15660 -3040,19530 1050,300 1920,470 3040,470l40000 0zm-140020 0c5700,0 10230,-4750 9990,-10450 -230,-5330 -4640,-9550 -9990,-9550l-40010 0c-11050,0 -14120,15660 -3030,19530 1050,300 1910,470 3030,470l40010 0zm-140030 0c5700,0 10240,-4750 9990,-10450 -230,-5330 -4640,-9550 -9990,-9550l-40010 0c-11050,0 -14110,15660 -3030,19530 1050,300 1910,470 3030,470l40010 0zm-140030 0c5710,0 10240,-4750 9990,-10450 -230,-5330 -4640,-9550 -9990,-9550l-40000 0c-11060,0 -14120,15660 -3040,19530 1050,300 1920,470 3040,470l40000 0zm-140020 0c5700,0 10230,-4750 9990,-10450 -230,-5330 -4640,-9550 -9990,-9550l-40010 0c-11050,0 -14120,15660 -3030,19530 1050,300 1910,470 3030,470l40010 0zm-140030 0c5700,0 10240,-4750 9990,-10450 -230,-5330 -4640,-9550 -9990,-9550l-40010 0c-11050,0 -14110,15660 -3030,19530 1050,300 1910,470 3030,470l40010 0zm-140030 0c5710,0 10240,-4750 10000,-10450 -240,-5330 -4650,-9550 -10000,-9550l-40000 0c-11060,0 -14120,15660 -3040,19530 1050,300 1920,470 3040,470l40000 0zm-140020 0c5700,0 10240,-4750 9990,-10450 -230,-5330 -4640,-9550 -9990,-9550l-40010 0c-11050,0 -14110,15660 -3030,19530 1050,300 1910,470 3030,470l40010 0zm-140030 0c5700,0 10240,-4750 9990,-10450 -230,-5330 -4640,-9550 -9990,-9550l-40010 0c-11050,0 -14110,15660 -3030,19530 1050,300 1910,470 3030,470l40010 0zm-140020 0c5700,0 10230,-4750 9990,-10450 -240,-5330 -4640,-9550 -9990,-9550l-40010 0c-11060,0 -14120,15660 -3040,19530 1050,300 1920,470 3040,470l40010 0zm-140030 0c5700,0 10240,-4750 9990,-10450 -230,-5330 -4640,-9550 -9990,-9550l-40010 0c-11050,0 -14110,15660 -3030,19530 1050,300 1910,470 3030,470l40010 0zm-140030 0c5700,0 10240,-4750 9990,-10450 -230,-5330 -4640,-9550 -9990,-9550l-40000 0c-11060,0 -14120,15660 -3040,19530 1050,300 1920,470 3040,470l40000 0zm-140020 0c5700,0 10230,-4750 9990,-10450 -240,-5330 -4640,-9550 -9990,-9550l-40010 0c-11050,0 -14120,15660 -3030,19530 1040,300 1910,470 3030,470l40010 0zm-140030 0c5700,0 10240,-4750 9990,-10450 -230,-5330 -4640,-9550 -9990,-9550l-40010 0c-11050,0 -14110,15660 -3030,19530 1050,300 1910,470 3030,470l40010 0zm-140030 0c5700,0 10240,-4750 9990,-10450 -230,-5330 -4640,-9550 -9990,-9550l-40000 0c-11060,0 -14120,15660 -3040,19530 1050,300 1920,470 3040,470l40000 0zm-140020 0c5700,0 10230,-4750 9990,-10450 -230,-5330 -4640,-9550 -9990,-9550l-40010 0c-11050,0 -14120,15660 -3030,19530 1050,300 1910,470 3030,470l40010 0zm-140030 0c5700,0 10240,-4750 9990,-10450 -230,-5330 -4640,-9550 -9990,-9550l-40010 0c-11050,0 -14110,15660 -3030,19530 1050,300 1910,470 3030,470l40010 0zm-140030 0c5710,0 10240,-4750 9990,-10450 -230,-5330 -4640,-9550 -9990,-9550l-40000 0c-11060,0 -14120,15660 -3040,19530 1050,300 1920,470 3040,470l40000 0zm-140020 0c11050,0 14110,-15660 3030,-19530 -1050,-310 -1910,-470 -3030,-470l-40010 0c-11050,0 -14120,15660 -3030,19530 1050,300 1910,470 3030,470l40010 0zm-140030 0c11060,0 14120,-15660 3030,-19530 -1040,-310 -1910,-470 -3030,-470l-40010 0c-11050,0 -14110,15660 -3030,19530 1050,300 1910,470 3030,470l40010 0zm-140020 0c11050,0 14110,-15660 3030,-19530 -1050,-310 -1920,-470 -3030,-470l-40010 0c-11060,0 -14120,15660 -3040,19530 1050,300 1920,470 3040,470l40010 0zm-140030 0c11050,0 14110,-15660 3030,-19530 -1050,-310 -1910,-470 -3030,-470l-40010 0c-11050,0 -14110,15660 -3030,19530 1050,300 1910,470 3030,470l40010 0zm-140030 0c11060,0 14120,-15660 3040,-19530 -1050,-310 -1920,-470 -3040,-470l-40010 0c-11050,0 -14110,15660 -3030,19530 1050,300 1910,470 3030,470l40010 0zm-140020 0c11050,0 14110,-15660 3030,-19530 -1050,-310 -1910,-470 -3030,-470l-40010 0c-11060,0 -14120,15660 -3040,19530 1050,300 1920,470 3040,470l40010 0zm-140030 0c11050,0 14110,-15660 3030,-19530 -1050,-310 -1910,-470 -3030,-470l-40010 0c-11050,0 -14110,15660 -3030,19530 1050,300 1910,470 3030,470l40010 0zm-140030 0c11060,0 14120,-15660 3040,-19530 -1050,-310 -1920,-470 -3040,-470l-40000 0c-11060,0 -14120,15660 -3040,19530 1050,300 1920,470 3040,470l40000 0zm-140020 0c11050,0 14110,-15660 3030,-19530 -1050,-310 -1910,-470 -3030,-470l-40010 0c-11050,0 -14120,15660 -3030,19530 1040,300 1910,470 3030,470l40010 0zm-140030 0c11050,0 14120,-15660 3030,-19530 -1050,-310 -1910,-470 -3030,-470l-40010 0c-11050,0 -14110,15660 -3030,19530 1050,300 1910,470 3030,470l40010 0zm-140030 0c11060,0 14120,-15660 3040,-19530 -1050,-310 -1920,-470 -3040,-470l-40000 0c-11060,0 -14120,15660 -3040,19530 1050,300 1920,470 3040,470l40000 0zm-140020 0c11050,0 14110,-15660 3030,-19530 -1050,-310 -1910,-470 -3030,-470l-40010 0c-11050,0 -14120,15660 -3030,19530 1050,300 1910,470 3030,470l40010 0zm-140030 0c11050,0 14120,-15660 3030,-19530 -1040,-310 -1910,-470 -3030,-470l-40010 0c-11050,0 -14110,15660 -3030,19530 1050,300 1910,470 3030,470l40010 0zm-140030 0c11060,0 14120,-15660 3040,-19530 -1050,-310 -1920,-470 -3040,-470l-40000 0c-11060,0 -14120,15660 -3040,19530 1050,300 1920,470 3040,470l40000 0zm-140020 0c11050,0 14110,-15660 3030,-19530 -1050,-310 -1910,-470 -3030,-470l-40010 0c-11050,0 -14120,15660 -3030,19530 1050,300 1910,470 3030,470l40010 0zm-140030 0c11060,0 14120,-15660 3030,-19530 -1040,-310 -1910,-470 -3030,-470l-40010 0c-11050,0 -14110,15660 -3030,19530 1050,300 1910,470 3030,470l40010 0zm-140020 0c11050,0 14110,-15660 3030,-19530 -1050,-310 -1920,-470 -3030,-470l-40010 0c-11060,0 -14120,15660 -3040,19530 1050,300 1920,470 3040,470l40010 0zm-140030 0c11060,0 14120,-15660 3030,-19530 -1040,-310 -1910,-470 -3030,-470l-40010 0c-11050,0 -14110,15660 -3030,19530 1050,300 1910,470 3030,470l40010 0zm-140020 0c11050,0 14110,-15660 3030,-19530 -1050,-310 -1920,-470 -3030,-470l-40010 0c-11060,0 -14120,15660 -3040,19530 1050,300 1920,470 3040,470l40010 0zm-140030 0c11050,0 14110,-15660 3030,-19530 -1050,-310 -1910,-470 -3030,-470l-40010 0c-11050,0 -14110,15660 -3030,19530 1050,300 1910,470 3030,470l40010 0zm-140030 0c11060,0 14120,-15660 3040,-19530 -1050,-310 -1920,-470 -3040,-470l-40010 0c-11050,0 -14110,15660 -3030,19530 1050,300 1910,470 3030,470l40010 0zm-140020 0c11050,0 14110,-15660 3030,-19530 -1050,-310 -1910,-470 -3030,-470l-40010 0c-11060,0 -14120,15660 -3040,19530 1050,300 1920,470 3040,470l40010 0zm-140030 0c11050,0 14110,-15660 3030,-19530 -1050,-310 -1910,-470 -3030,-470l-40010 0c-11050,0 -14110,15660 -3030,19530 1050,300 1910,470 3030,470l40010 0z"/>
   <path class="fil0" d="M2472320 2145590l5380 0 5380 0c2080,0 3960,860 5330,2220 1360,1370 1180,3530 2210,5320l32290 55980 -32290 55980c-1030,1790 -850,3950 -2210,5320 -1370,1370 -3250,2220 -5330,2220l-5380 0 -5380 0c-2070,0 -3960,-850 -5320,-2220 -1370,-1370 -3250,-3530 -2220,-5320l32300 -55980 -32300 -55980c-1030,-1790 850,-3950 2220,-5320 1360,-1360 3250,-2220 5320,-2220z"/>
   <path class="fil0" d="M4612320 2145590l5390 0 5380 0c2070,0 3960,860 5320,2220 1370,1370 1180,3530 2210,5320l32300 55980 -32300 55980c-1030,1790 -840,3950 -2210,5320 -1360,1370 -3250,2220 -5320,2220l-5380 0 -5390 0c-2070,0 -3950,-850 -5320,-2220 -1360,-1370 -3250,-3530 -2210,-5320l32290 -55980 -32290 -55980c-1040,-1790 850,-3950 2210,-5320 1370,-1360 3250,-2220 5320,-2220z"/>
   <path class="fil0" d="M127030 1160360l0 -5390 0 -5380c0,-2070 -850,-3960 -2210,-5320 -1370,-1370 -3540,-1180 -5330,-2210l-55970 -32300 -55980 32300c-1800,1030 -3960,840 -5330,2210 -1360,1360 -2210,3250 -2210,5320l0 5380 0 5390c0,2070 850,3950 2210,5320 1370,1360 3530,3250 5330,2210l55980 -32290 55970 32290c1800,1040 3960,-850 5330,-2210 1360,-1370 2210,-3250 2210,-5320z"/>
  </g>
 </g>
</svg>
