<?xml version="1.0" encoding="UTF-8"?>
<!DOCTYPE svg PUBLIC "-//W3C//DTD SVG 1.1//EN" "http://www.w3.org/Graphics/SVG/1.1/DTD/svg11.dtd">
<!-- Creator: CorelDRAW 2017 -->
<svg xmlns="http://www.w3.org/2000/svg" xml:space="preserve" width="724px" height="265px" version="1.1" style="shape-rendering:geometricPrecision; text-rendering:geometricPrecision; image-rendering:optimizeQuality; fill-rule:evenodd; clip-rule:evenodd"
viewBox="0 0 7262200 2653090"
 xmlns:xlink="http://www.w3.org/1999/xlink">
 <defs>
  <style type="text/css">
   <![CDATA[
    .fil1 {fill:#F6BF4A}
    .fil0 {fill:#F6BF4A;fill-rule:nonzero}
   ]]>
  </style>
 </defs>
 <g id="Layer_x0020_1">
  <metadata id="CorelCorpID_0Corel-Layer"/>
  <g id="_1626066591264">
   <path class="fil0" d="M1447910 2597000c2330,2070 5010,2740 7530,2430l16300 0c11090,0 14160,-15700 3050,-19590 -1060,-300 -1920,-470 -3050,-470l-13560 0 -27590 -23740c-8580,-7580 -21840,3540 -14480,13730 450,560 840,990 1400,1470l30400 26170zm124130 -17630c-5720,0 -10270,4770 -10020,10480 230,5350 4650,9580 10020,9580l40110 0c11090,0 14160,-15700 3040,-19590 -1050,-300 -1910,-470 -3040,-470l-40110 0zm140410 0c-5720,0 -10270,4770 -10020,10480 230,5350 4650,9580 10020,9580l40110 0c11090,0 14160,-15700 3040,-19590 -1050,-300 -1910,-470 -3040,-470l-40110 0zm140400 0c-5710,0 -10260,4770 -10010,10480 230,5350 4650,9580 10010,9580l40120 0c11090,0 14160,-15700 3040,-19590 -1050,-300 -1920,-470 -3040,-470l-40120 0zm140410 0c-5710,0 -10260,4770 -10010,10480 230,5350 4650,9580 10010,9580l40120 0c11080,0 14150,-15700 3040,-19590 -1050,-300 -1920,-470 -3040,-470l-40120 0zm140410 0c-5710,0 -10260,4770 -10010,10480 230,5350 4650,9580 10010,9580l40120 0c11080,0 14150,-15700 3040,-19590 -1050,-300 -1920,-470 -3040,-470l-40120 0zm140410 0c-5710,0 -10260,4770 -10020,10480 240,5350 4660,9580 10020,9580l40120 0c11080,0 14150,-15700 3040,-19590 -1050,-300 -1920,-470 -3040,-470l-40120 0zm140410 0c-5720,0 -10260,4770 -10020,10480 240,5350 4660,9580 10020,9580l40120 0c11080,0 14150,-15700 3040,-19590 -1050,-300 -1920,-470 -3040,-470l-40120 0zm140410 0c-5720,0 -10260,4770 -10020,10480 240,5350 4660,9580 10020,9580l40120 0c11080,0 14150,-15700 3040,-19590 -1050,-300 -1920,-470 -3040,-470l-40120 0zm140410 0c-5720,0 -10270,4770 -10020,10480 230,5350 4660,9580 10020,9580l40120 0c11080,0 14150,-15700 3040,-19590 -1050,-300 -1920,-470 -3040,-470l-40120 0zm140410 0c-5720,0 -10270,4770 -10020,10480 230,5350 4650,9580 10020,9580l40120 0c11080,0 14150,-15700 3040,-19590 -1050,-300 -1920,-470 -3040,-470l-40120 0zm140410 0c-5720,0 -10270,4770 -10020,10480 230,5350 4650,9580 10020,9580l40110 0c11090,0 14160,-15700 3050,-19590 -1060,-300 -1920,-470 -3050,-470l-40110 0zm140410 0c-5720,0 -10270,4770 -10020,10480 230,5350 4650,9580 10020,9580l40110 0c11090,0 14160,-15700 3050,-19590 -1060,-300 -1920,-470 -3050,-470l-40110 0zm140410 0c-5720,0 -10270,4770 -10020,10480 230,5350 4650,9580 10020,9580l40110 0c11090,0 14160,-15700 3050,-19590 -1060,-300 -1920,-470 -3050,-470l-40110 0zm140410 0c-5720,0 -10270,4770 -10020,10480 230,5350 4650,9580 10020,9580l40110 0c11090,0 14160,-15700 3040,-19590 -1050,-300 -1910,-470 -3040,-470l-40110 0zm140400 0c-11080,0 -14150,15700 -3040,19590 1050,300 1920,470 3040,470l40120 0c11090,0 14160,-15700 3040,-19590 -1050,-300 -1920,-470 -3040,-470l-40120 0zm140410 0c-11080,0 -14150,15700 -3040,19590 1050,300 1920,470 3040,470l40120 0c11080,0 14160,-15700 3040,-19590 -1050,-300 -1920,-470 -3040,-470l-40120 0zm140410 0c-11080,0 -14150,15700 -3040,19590 1050,300 1920,470 3040,470l40120 0c11080,0 14150,-15700 3040,-19590 -1050,-300 -1920,-470 -3040,-470l-40120 0zm140410 0c-11080,0 -14150,15700 -3040,19590 1050,300 1920,470 3040,470l40120 0c11080,0 14150,-15700 3040,-19590 -1050,-300 -1920,-470 -3040,-470l-40120 0zm140410 0c-11080,0 -14150,15700 -3040,19590 1050,300 1920,470 3040,470l40120 0c11080,0 14150,-15700 3040,-19590 -1050,-300 -1920,-470 -3040,-470l-40120 0zm140410 0c-11080,0 -14150,15700 -3040,19590 1050,300 1920,470 3040,470l40120 0c11080,0 14150,-15700 3040,-19590 -1050,-300 -1920,-470 -3040,-470l-40120 0zm140410 0c-11080,0 -14150,15700 -3040,19590 1050,300 1920,470 3040,470l40120 0c11080,0 14150,-15700 3040,-19590 -1050,-300 -1920,-470 -3040,-470l-40120 0zm140410 0c-11080,0 -14150,15700 -3040,19590 1050,300 1920,470 3040,470l40120 0c11080,0 14150,-15700 3040,-19590 -1050,-300 -1920,-470 -3040,-470l-40120 0zm140410 0c-11090,0 -14160,15700 -3040,19590 1050,300 1920,470 3040,470l40120 0c11080,0 14150,-15700 3040,-19590 -1050,-300 -1920,-470 -3040,-470l-40120 0zm140410 0c-11090,0 -14160,15700 -3040,19590 1050,300 1910,470 3040,470l40110 0c11090,0 14160,-15700 3050,-19590 -1060,-300 -1920,-470 -3050,-470l-40110 0zm140410 0c-11090,0 -14160,15700 -3040,19590 1050,300 1910,470 3040,470l40110 0c11090,0 14160,-15700 3050,-19590 -1060,-300 -1920,-470 -3050,-470l-40110 0zm140410 0c-11090,0 -14160,15700 -3050,19590 1060,300 1920,470 3050,470l40110 0c11090,0 14160,-15700 3040,-19590 -1050,-300 -1910,-470 -3040,-470l-40110 0zm140410 0c-11090,0 -14160,15700 -3050,19590 1060,300 1920,470 3050,470l40110 0c11090,0 14160,-15700 3040,-19590 -1050,-300 -1910,-470 -3040,-470l-40110 0zm140400 0c-11080,0 -14150,15700 -3040,19590 1050,300 1920,470 3040,470l40120 0c11090,0 14160,-15700 3040,-19590 -1050,-300 -1920,-470 -3040,-470l-40120 0zm140410 0c-11080,0 -14150,15700 -3040,19590 1050,300 1920,470 3040,470l40120 0c11080,0 14150,-15700 3040,-19590 -1050,-300 -1920,-470 -3040,-470l-40120 0zm140410 0c-11080,0 -14150,15700 -3040,19590 1050,300 1920,470 3040,470l40120 0c11080,0 14150,-15700 3040,-19590 -1050,-300 -1920,-470 -3040,-470l-40120 0zm140090 -120c-12470,550 -13130,18870 -320,20040l960 10 18470 -490 21730 -800c3070,-140 5970,-1690 7720,-4170 4850,-6870 -250,-16240 -8560,-15880l-21530 800 -18470 490zm139550 -7720c-10480,920 -12730,15830 -2140,19540 1420,400 2510,570 4020,440l12760 -1130 21880 -2180 5500 -600c12510,-1630 11370,-20000 -1340,-20000l-960 70 -5290 580 -21660 2150 -12770 1130zm138710 -16970c-12110,2110 -10820,19930 1880,19930 420,-20 860,-50 1270,-120l22100 -3630 17670 -3120c12010,-2180 10460,-20460 -2570,-19870l-1020 140 -17460 3080 -21870 3590zm136940 -27050c-11140,2530 -9930,19780 2680,19780 720,-30 1320,-120 2010,-280l4500 -1050 19510 -4820 15130 -3920c12000,-3270 8550,-21330 -4130,-19600l-1010 210 -14910 3870 -19290 4760 -4490 1050zm134330 -37830c-10820,3440 -8270,20090 3780,19540 910,-80 1600,-200 2480,-480l19590 -6550 18710 -6530c10660,-4060 7570,-19950 -4170,-19420 -960,90 -1860,250 -2770,600l-18260 6370 -19360 6470zm130400 -49250c-2120,910 -3990,2700 -4970,4770 -4020,8500 4460,17270 13040,13590l9930 -4290 16780 -7480 10140 -4680c10940,-5210 5020,-22010 -7140,-18690 -480,160 -910,300 -1370,520l-9920 4580 -16550 7390 -9940 4290zm125250 -61130c-9900,5440 -4270,21120 7250,18500 910,-210 1740,-550 2580,-1010l12060 -6690 15320 -8750 7710 -4530c10230,-6140 3080,-22470 -9140,-17810l-1140 580 -7490 4410 -15100 8620 -12050 6680zm118530 -73240c-9000,6160 -2650,21040 8790,17770 1040,-340 1850,-740 2760,-1360l9270 -6450 13860 -9890 9720 -7120c9630,-7490 590,-22010 -10160,-17170 -640,320 -1240,630 -1800,1070l-9510 6970 -13660 9740 -9270 6440zm110210 -85210c-2830,2500 -4040,6240 -3170,9920 1730,7260 10720,10160 16330,5220l3240 -2790 12410 -10920 12220 -11040 2370 -2190c2620,-2470 3730,-6140 2900,-9630 -1790,-7480 -11030,-10270 -16630,-5000l-2180 2020 -12030 10870 -12210 10750 -3250 2790zm100180 -96630c-1750,1980 -2620,4210 -2620,6860 0,9060 11500,13390 17430,6670l6480 -7010 10760 -11930 9740 -11090c6930,-7860 -1660,-20230 -11940,-15610 -1330,700 -2220,1340 -3210,2460l-9570 10900 -10590 11750 -6480 7000zm88730 -107230c-7410,10830 7830,22010 15950,12150l6890 -9400 9120 -12800 7700 -11110c6130,-8960 -4530,-20210 -14060,-13860 -1020,780 -1750,1450 -2500,2540l-7550 10890 -8970 12600 -6580 8990zm75940 -116640c-5970,10840 9150,20730 16730,10990 270,-370 540,-770 770,-1180l4920 -8640 7470 -13520 7080 -13190c5010,-9100 -6160,-19380 -15160,-12500 -1150,1000 -1810,1750 -2570,3120l-6960 12970 -7360 13300 -4920 8650zm62060 -124610c-4520,10570 10100,19830 17660,9370 320,-510 590,-1010 830,-1570l2620 -6110 5840 -14100 5650 -14140 1210 -3130c1250,-3300 650,-7150 -1600,-9870 -4860,-5990 -14410,-4450 -17160,2770l-1120 2890 -5560 13920 -5750 13860 -2620 6110zm47350 -130920c-3150,11570 12410,18050 18410,7690 360,-690 590,-1260 830,-1990l4720 -16240 4020 -14560 2160 -8190c2850,-10460 -11570,-17790 -18250,-7760 -560,970 -890,1710 -1180,2780l-2090 7950 -3960 14320 -4660 16000zm31980 -135380c-540,3090 430,6070 2440,8370 5790,6200 15830,3250 17340,-5060l1840 -10600 2390 -14810 2140 -14440c490,-3690 -950,-7180 -3850,-9400 -6040,-4620 -15020,-940 -16000,6570l-2110 14200 -2350 14570 -1840 10600zm16280 -138280c-550,12520 17640,14670 19910,2150l110 -1020 250 -4010 750 -14920 570 -14930 180 -6580c0,-12930 -18900,-13880 -20040,-790l-180 6730 -570 14680 -730 14680 -250 4010zm300 -139110c1100,12710 19480,12260 20040,-410l-20 -900 -690 -11630 -1060 -14870 -1150 -13750c-1020,-11650 -18290,-12450 -19960,-240 -60,700 -80,1330 -20,2030l1130 13510 1040 14630 690 11630zm-15760 -138330c2200,12110 20450,10460 19880,-2480l-130 -1020 -730 -4290 -2690 -14680 -2870 -14640 -1290 -6160c-2810,-12380 -21410,-9370 -19700,3720l1330 6420 2820 14400 2650 14430 730 4300zm-31700 -135430c3770,11860 21710,7730 19390,-5030l-230 -870 -3490 -11590 -4500 -14280 -4150 -12630c-3250,-10200 -19010,-8670 -19540,2990 0,1270 150,2210 530,3400l4070 12380 4430 14040 3490 11590zm-47470 -130840c4350,10140 20230,6710 19150,-5250 -150,-1010 -370,-1840 -770,-2790l-2240 -5210 -6120 -13770 -6310 -13700 -2010 -4230c-5010,-10530 -21610,-5210 -18720,6950 170,620 380,1190 670,1790l1890 3990 6200 13470 6030 13540 2230 5210zm-62650 -124270c6170,10290 22000,3260 18090,-8490 -240,-590 -450,-1040 -760,-1610l-7920 -13390 -7920 -13030 -5160 -8220c-6060,-9600 -21310,-3100 -18060,8300 310,910 620,1640 1140,2460l5010 8000 7790 12810 7790 13170zm-77030 -115730c2660,3420 7170,4760 11260,3330 6430,-2250 8790,-10210 4610,-15590l-7290 -9570 -9550 -12210 -8050 -10010c-6270,-8060 -20090,-2060 -17470,8920 460,1530 930,2480 1920,3750l7890 9810 9390 12000 7290 9570zm-90380 -105790c8600,8600 22710,-2600 15000,-13280l-690 -770 -7790 -8050 -11170 -11230 -9530 -9330c-7550,-7540 -20750,1030 -16050,11490 550,1160 1210,2040 2110,2940l9340 9140 10980 11040 7800 8050zm-102230 -94380c4810,3740 11540,2610 14800,-2540 2660,-4210 1670,-10050 -2260,-13110l-10790 -8770 -12790 -10110 -8060 -6200c-9010,-7010 -21660,4810 -13530,14680 460,490 870,880 1400,1290l7860 6050 12580 9940 10790 8770zm-112530 -82060c10270,6480 21120,-7470 12190,-15840 -440,-390 -860,-730 -1360,-1050l-3840 -2500 -14220 -8980 -16300 -9980c-10710,-5890 -20460,7980 -11850,16060 560,480 1050,850 1690,1240l15850 9700 14000 8850 3840 2500zm-120790 -69130c10700,5100 19890,-9240 10660,-16850 -620,-470 -1160,-820 -1870,-1180l-15390 -7620 -15820 -7590 -5130 -2380c-11910,-5100 -20140,11790 -8790,18030l5360 2500 15590 7470 15390 7620zm-127620 -56250c10800,4120 19050,-10570 9290,-17620 -690,-450 -1360,-820 -2130,-1120l-17700 -6640 -17250 -6220 -3070 -1060c-12200,-3890 -18820,13480 -7170,18720l20570 7390 17460 6550zm-132390 -43530c11400,3110 17960,-12950 7170,-18630 -660,-300 -1190,-530 -1890,-720l-7870 -2200 -18490 -4920 -12650 -3220c-12420,-2820 -17590,14890 -5680,19220l860 260 12420 3150 18250 4860 7880 2200zm-135920 -31560c4570,830 9080,-1540 10970,-5730 2670,-5930 -940,-12830 -7310,-13990l-3460 -660 -19730 -3550 -16550 -2780c-10950,-1910 -16620,13600 -5850,18990 900,410 1680,640 2640,810l16330 2750 19500 3500 3460 660zm-138100 -20290c12180,1060 15620,-16230 3480,-19700 -460,-110 -920,-210 -1390,-250l-5570 -610 -20970 -2080 -13610 -1200c-11260,-970 -15330,15000 -4410,19370 990,330 1710,530 2760,620l13390 1180 20740 2060 5580 610zm-139270 -9920c10570,460 14730,-14530 4120,-19300 -1200,-480 -2240,-700 -3540,-760l-15230 -510 -25080 -560c-12340,0 -14050,18240 -1060,20010 8430,430 17100,400 25560,600l15230 520zm-140090 -820c11080,0 14150,-15700 3040,-19590 -1060,-300 -1920,-470 -3040,-470l-40120 0c-11090,0 -14160,15700 -3040,19590 1050,300 1920,470 3040,470l40120 0zm-140410 0c11080,0 14150,-15700 3040,-19590 -1050,-300 -1920,-470 -3040,-470l-40120 0c-11080,0 -14160,15700 -3040,19590 1050,300 1920,470 3040,470l40120 0zm-140410 0c11080,0 14150,-15700 3040,-19590 -1050,-300 -1920,-470 -3040,-470l-40120 0c-11080,0 -14150,15700 -3040,19590 1050,300 1920,470 3040,470l40120 0zm-140410 0c11080,0 14150,-15700 3040,-19590 -1050,-300 -1920,-470 -3040,-470l-40120 0c-11080,0 -14150,15700 -3040,19590 1050,300 1920,470 3040,470l40120 0zm-140410 0c11080,0 14150,-15700 3040,-19590 -1050,-300 -1920,-470 -3040,-470l-40120 0c-11080,0 -14150,15700 -3040,19590 1050,300 1920,470 3040,470l40120 0zm-140410 0c11080,0 14150,-15700 3040,-19590 -1050,-300 -1920,-470 -3040,-470l-40120 0c-11080,0 -14150,15700 -3040,19590 1050,300 1920,470 3040,470l40120 0zm-140410 0c11080,0 14150,-15700 3040,-19590 -1050,-300 -1920,-470 -3040,-470l-40120 0c-11080,0 -14150,15700 -3040,19590 1050,300 1920,470 3040,470l40120 0zm-140410 0c11080,0 14150,-15700 3040,-19590 -1050,-300 -1920,-470 -3040,-470l-40120 0c-11080,0 -14150,15700 -3040,19590 1050,300 1920,470 3040,470l40120 0zm-140410 0c11090,0 14160,-15700 3040,-19590 -1050,-300 -1920,-470 -3040,-470l-40120 0c-11080,0 -14150,15700 -3040,19590 1050,300 1920,470 3040,470l40120 0zm-140410 0c11090,0 14160,-15700 3040,-19590 -1050,-300 -1910,-470 -3040,-470l-40110 0c-11090,0 -14160,15700 -3050,19590 1060,300 1920,470 3050,470l40110 0zm-140410 0c11090,0 14160,-15700 3040,-19590 -1050,-300 -1910,-470 -3040,-470l-40110 0c-11090,0 -14160,15700 -3050,19590 1060,300 1920,470 3050,470l40110 0zm-140410 0c11090,0 14160,-15700 3050,-19590 -1060,-300 -1920,-470 -3050,-470l-40110 0c-11090,0 -14160,15700 -3040,19590 1050,300 1910,470 3040,470l40110 0zm-140410 0c11090,0 14160,-15700 3050,-19590 -1060,-300 -1920,-470 -3050,-470l-40110 0c-11090,0 -14160,15700 -3040,19590 1050,300 1910,470 3040,470l40110 0zm-140400 0c11080,0 14150,-15700 3040,-19590 -1050,-300 -1920,-470 -3040,-470l-40120 0c-11090,0 -14160,15700 -3040,19590 1050,300 1920,470 3040,470l40120 0zm-140410 0c11080,0 14150,-15700 3040,-19590 -1050,-300 -1920,-470 -3040,-470l-40120 0c-11080,0 -14150,15700 -3040,19590 1050,300 1920,470 3040,470l40120 0zm-140410 0c11080,0 14150,-15700 3040,-19590 -1050,-300 -1920,-470 -3040,-470l-40120 0c-11080,0 -14150,15700 -3040,19590 1050,300 1920,470 3040,470l40120 0zm-140410 0c11080,0 14150,-15700 3040,-19590 -1050,-300 -1920,-470 -3040,-470l-40120 0c-11080,0 -14150,15700 -3040,19590 1050,300 1920,470 3040,470l40120 0zm-140410 0c11080,0 14150,-15700 3040,-19590 -1050,-300 -1920,-470 -3040,-470l-40120 0c-5720,0 -10260,4760 -10020,10480 240,5350 4660,9580 10020,9580l40120 0zm-140410 0c11080,0 14150,-15700 3040,-19590 -1050,-300 -1920,-470 -3040,-470l-40120 0c-5710,0 -10260,4760 -10020,10480 240,5350 4660,9580 10020,9580l40120 0zm-140410 0c11080,0 14150,-15700 3040,-19590 -1050,-300 -1920,-470 -3040,-470l-40120 0c-5710,0 -10260,4760 -10010,10480 230,5350 4650,9580 10010,9580l40120 0zm-140410 0c11080,0 14160,-15700 3040,-19590 -1050,-300 -1920,-470 -3040,-470l-40120 0c-5710,0 -10260,4760 -10010,10480 230,5350 4650,9580 10010,9580l40120 0zm-140410 0c11090,0 14160,-15700 3040,-19590 -1050,-300 -1920,-470 -3040,-470l-40120 0c-5710,0 -10260,4760 -10010,10480 230,5350 4650,9580 10010,9580l40120 0zm-140410 0c11090,0 14160,-15700 3040,-19590 -1050,-300 -1910,-470 -3040,-470l-40110 0c-5720,0 -10270,4760 -10020,10480 230,5350 4650,9580 10020,9580l40110 0zm-140410 0c11090,0 14160,-15700 3050,-19590 -1060,-300 -1920,-470 -3050,-470l-40110 0c-5720,0 -10270,4760 -10020,10480 230,5350 4650,9580 10020,9580l40110 0zm-140410 0c11090,0 14160,-15700 3050,-19590 -1060,-300 -1920,-470 -3050,-470l-40110 0c-5720,0 -10270,4760 -10020,10480 230,5350 4650,9580 10020,9580l40110 0zm-140400 0c11080,0 14150,-15700 3040,-19590 -1060,-300 -1920,-470 -3040,-470l-40120 0c-5720,0 -10270,4760 -10020,10480 230,5350 4650,9580 10020,9580l40120 0zm-140410 0c11080,0 14150,-15700 3040,-19590 -1050,-300 -1920,-470 -3040,-470l-40120 0c-5720,0 -10270,4760 -10020,10480 230,5350 4650,9580 10020,9580l40120 0zm-140410 0c11080,0 14150,-15700 3040,-19590 -1050,-300 -1920,-470 -3040,-470l-40120 0c-5720,0 -10270,4760 -10020,10480 230,5350 4660,9580 10020,9580l40120 0zm-140410 0c11080,0 14150,-15700 3040,-19590 -1050,-300 -1920,-470 -3040,-470l-40120 0c-5720,0 -10260,4760 -10020,10480 240,5350 4660,9580 10020,9580l40120 0zm-140410 0c11080,0 14150,-15700 3040,-19590 -1050,-300 -1920,-470 -3040,-470l-40120 0c-5720,0 -10260,4760 -10020,10480 240,5350 4660,9580 10020,9580l40120 0zm-140410 0c11080,0 14150,-15700 3040,-19590 -1050,-300 -1920,-470 -3040,-470l-40120 0c-5710,0 -10260,4760 -10020,10480 240,5350 4660,9580 10020,9580l40120 0zm-124100 23890c9310,-8210 -1510,-22650 -12020,-16010 -360,250 -740,520 -1070,810l-30410 26170c-9300,8220 1510,22660 12020,16010 370,-240 740,-510 1070,-800l30410 -26180zm-106420 91610c9300,-8210 -1510,-22650 -12020,-16010 -370,240 -740,510 -1070,810l-30400 26170c-9310,8210 1500,22650 12010,16010 370,-240 740,-510 1070,-810l30410 -26170zm-106420 91600c9310,-8210 -1500,-22650 -12010,-16010 -370,250 -740,520 -1080,810l-30400 26170c-9310,8220 1500,22660 12020,16010 360,-240 740,-510 1070,-800l30400 -26180zm-106410 91610c9300,-8210 -1510,-22650 -12020,-16010 -370,240 -740,510 -1070,810l-30400 26170c-9310,8210 1500,22650 12010,16010 370,-250 740,-520 1070,-810l30410 -26170zm-106420 91600c9310,-8210 -1500,-22650 -12020,-16010 -360,250 -730,520 -1070,810l-30400 26170c-9310,8210 1500,22650 12020,16010 360,-250 730,-520 1070,-810l30400 -26170zm-106410 91600c9300,-8210 -1510,-22650 -12020,-16010 -370,240 -740,510 -1070,810l-30410 26170c-9300,8210 1510,22650 12020,16010 370,-250 740,-520 1070,-810l30410 -26170zm-106420 91600c9310,-8210 -1500,-22650 -12010,-16010 -370,240 -740,510 -1080,810l-30400 26170c-9310,8210 1500,22650 12020,16010 360,-250 740,-520 1070,-810l30400 -26170zm-106410 91600c9310,-8210 -1500,-22650 -12020,-16010 -360,240 -740,510 -1070,810l-30400 26170c-9310,8210 1500,22650 12010,16010 370,-250 740,-520 1080,-810l30400 -26170zm-106410 91600c9300,-8220 -1510,-22650 -12020,-16010 -370,240 -740,510 -1070,800l-30400 26170c-9310,8220 1500,22660 12010,16020 370,-250 740,-520 1070,-810l30410 -26170zm-106420 91600c9310,-8220 -1500,-22650 -12010,-16010 -370,240 -740,510 -1070,800l-30410 26170c-9300,8220 1510,22660 12020,16010 370,-240 740,-510 1070,-800l30400 -26170zm-106410 91600c9310,-8220 -1500,-22660 -12010,-16010 -370,240 -740,510 -1080,800l-30400 26170c-9310,8220 1500,22650 12020,16010 360,-240 740,-510 1070,-800l30400 -26170zm-106410 91590c9310,-8210 -1510,-22650 -12020,-16010 -360,250 -740,520 -1070,810l-30400 26170c-9310,8220 1500,22650 12010,16010 370,-240 740,-510 1080,-800l30400 -26180zm-106410 91600c9300,-8210 -1510,-22650 -12020,-16010 -370,250 -740,520 -1070,810l-30410 26170c-9300,8210 1510,22650 12020,16010 370,-240 740,-510 1070,-810l30410 -26170zm-106420 91600c9310,-8210 -1500,-22650 -12010,-16010 -370,250 -740,520 -1070,810l-30410 26170c-9310,8210 1510,22650 12020,16010 370,-240 740,-510 1070,-810l30400 -26170zm180 76400c-8590,-7580 -21850,3540 -14480,13730 450,560 840,990 1390,1480l30410 26170c8590,7580 21850,-3540 14490,-13730 -460,-560 -850,-990 -1400,-1470l-30410 -26180zm106420 91610c-8580,-7580 -21850,3540 -14480,13730 450,550 840,980 1400,1470l30400 26180c8590,7570 21850,-3540 14490,-13730 -460,-560 -850,-990 -1400,-1480l-30410 -26170zm106420 91600c-8590,-7570 -21850,3540 -14490,13740 460,550 850,980 1400,1470l30400 26170c8590,7580 21850,-3540 14490,-13730 -450,-560 -840,-990 -1400,-1470l-30400 -26180zm106410 91610c-8580,-7580 -21840,3530 -14480,13730 450,550 840,980 1400,1470l30400 26170c8590,7580 21850,-3540 14490,-13730 -460,-550 -850,-980 -1400,-1470l-30410 -26170zm106420 91600c-8590,-7580 -21850,3540 -14490,13730 460,550 850,980 1400,1470l30410 26170c8580,7580 21840,-3530 14480,-13730 -450,-550 -840,-980 -1400,-1470l-30400 -26170zm106410 91600c-8580,-7580 -21850,3530 -14480,13730 450,550 840,980 1400,1470l30400 26170c8590,7580 21850,-3540 14480,-13730 -450,-550 -840,-980 -1390,-1470l-30410 -26170zm106420 91600c-8590,-7580 -21850,3530 -14490,13730 450,550 840,980 1400,1470l30400 26170c8590,7580 21850,-3540 14490,-13730 -460,-550 -850,-980 -1400,-1470l-30400 -26170zm106410 91600c-8590,-7580 -21850,3530 -14490,13730 460,550 850,980 1400,1470l30400 26170c8590,7580 21850,-3540 14490,-13730 -450,-560 -840,-980 -1400,-1470l-30400 -26170zm106410 91600c-8590,-7580 -21850,3530 -14490,13730 460,550 850,980 1400,1470l30410 26170c8580,7580 21850,-3540 14480,-13730 -450,-560 -840,-990 -1400,-1470l-30400 -26170zm106410 91590c-8580,-7570 -21850,3540 -14480,13730 450,560 840,990 1400,1480l30400 26170c8590,7580 21850,-3540 14490,-13730 -460,-560 -850,-990 -1400,-1480l-30410 -26170zm106420 91600c-8590,-7580 -21850,3540 -14490,13730 450,560 840,990 1400,1480l30400 26170c8590,7580 21850,-3540 14490,-13730 -460,-560 -850,-990 -1400,-1480l-30400 -26170zm106410 91600c-8590,-7580 -21850,3540 -14490,13730 460,560 850,990 1400,1480l30400 26170c8590,7570 21850,-3540 14490,-13730 -450,-560 -840,-990 -1400,-1480l-30400 -26170zm106410 91600c-8590,-7580 -21850,3540 -14480,13730 450,560 840,990 1390,1470l30410 26180c8590,7570 21850,-3540 14480,-13740 -450,-550 -840,-980 -1390,-1470l-30410 -26170z"/>
   <path class="fil1" d="M839150 515350l4140 -3460 4140 -3470c1590,-1340 3580,-1900 5510,-1730 1930,170 3190,1960 5140,2670l60870 22210 11240 63820c360,2050 1900,3590 1730,5520 -170,1930 -1080,3790 -2670,5130l-4130 3460 -4140 3470c-1590,1340 -3590,1900 -5510,1730 -1930,-170 -4770,-620 -5140,-2670l-11240 -63810 -60870 -22220c-1950,-710 -1900,-3590 -1730,-5520 170,-1930 1070,-3790 2660,-5130z"/>
   <path class="fil1" d="M3799160 0l5390 0 5400 0c2080,0 3970,850 5340,2220 1370,1370 1180,3540 2220,5340l32380 56130 -32380 56130c-1040,1800 -850,3970 -2220,5340 -1370,1370 -3260,2220 -5340,2220l-5400 0 -5390 0c-2080,0 -3970,-850 -5340,-2220 -1370,-1370 -3260,-3540 -2220,-5340l32380 -56130 -32380 -56130c-1040,-1800 850,-3970 2220,-5340 1370,-1370 3260,-2220 5340,-2220z"/>
   <path class="fil1" d="M2553110 2525710l-5390 0 -5400 0c-2080,0 -3970,860 -5340,2220 -1370,1370 -1180,3550 -2220,5340l-32380 56130 32380 56130c1040,1800 850,3970 2220,5340 1370,1370 3260,2220 5340,2220l5400 0 5390 0c2080,0 3970,-850 5340,-2220 1370,-1370 3260,-3530 2220,-5340l-32380 -56130 32380 -56130c1040,-1800 -850,-3970 -2220,-5340 -1370,-1360 -3260,-2220 -5340,-2220z"/>
   <path class="fil1" d="M2445530 0l5390 0 5400 0c2080,0 3970,850 5340,2220 1370,1370 1180,3540 2220,5340l32380 56130 -32380 56130c-1040,1800 -850,3970 -2220,5340 -1370,1370 -3260,2220 -5340,2220l-5400 0 -5390 0c-2080,0 -3970,-850 -5340,-2220 -1370,-1370 -3260,-3540 -2220,-5340l32380 -56130 -32380 -56130c-1040,-1800 850,-3970 2220,-5340 1370,-1370 3260,-2220 5340,-2220z"/>
   <path class="fil1" d="M3906740 2525710l-5390 0 -5400 0c-2080,0 -3970,860 -5340,2220 -1370,1370 -1180,3550 -2220,5340l-32380 56130 32380 56130c1040,1800 850,3970 2220,5340 1370,1370 3260,2220 5340,2220l5400 0 5390 0c2080,0 3970,-850 5340,-2220 1370,-1370 3260,-3530 2220,-5340l-32380 -56130 32380 -56130c1040,-1800 -850,-3970 -2220,-5340 -1370,-1360 -3260,-2220 -5340,-2220z"/>
   <path class="fil1" d="M6645450 187090l4700 2650 4700 2650c1810,1030 3040,2690 3560,4560 520,1860 -710,3660 -690,5740l620 64800 -55780 32970c-1790,1060 -2690,3040 -4560,3560 -1860,520 -3930,330 -5740,-690l-4700 -2650 -4700 -2650c-1810,-1020 -3040,-2690 -3560,-4560 -520,-1860 -1100,-4680 690,-5740l55790 -32970 -630 -64800c-20,-2080 2690,-3040 4560,-3560 1860,-520 3930,-330 5740,690z"/>
   <path class="fil1" d="M6635120 2289430l-4710 2650 -4690 2650c-1820,1030 -3040,2700 -3560,4560 -520,1870 710,3670 680,5740l-620 64800 55790 32970c1780,1060 2680,3040 4550,3560 1870,520 3930,340 5740,-680l4700 -2660 4700 -2650c1810,-1020 3040,-2690 3560,-4560 520,-1860 1100,-4670 -690,-5740l-55780 -32970 620 -64800c20,-2080 -2690,-3040 -4550,-3560 -1870,-520 -3930,-330 -5740,690z"/>
   <path class="fil1" d="M844950 1981880l-4130 -3470 -4140 -3460c-1590,-1340 -3590,-1900 -5520,-1730 -1920,170 -3180,1960 -5130,2660l-60870 22220 -11240 63820c-360,2040 -1900,3590 -1730,5510 170,1930 1070,3800 2670,5140l4130 3460 4140 3470c1590,1330 3590,1900 5510,1730 1930,-170 4770,-620 5130,-2670l11240 -63820 60880 -22210c1950,-720 1900,-3590 1730,-5520 -170,-1930 -1070,-3790 -2670,-5130z"/>
  </g>
 </g>
</svg>
