<?xml version="1.0" encoding="UTF-8"?>
<!DOCTYPE svg PUBLIC "-//W3C//DTD SVG 1.1//EN" "http://www.w3.org/Graphics/SVG/1.1/DTD/svg11.dtd">
<!-- Creator: CorelDRAW 2017 -->
<svg xmlns="http://www.w3.org/2000/svg" xml:space="preserve" width="698px" height="240px" version="1.1" style="shape-rendering:geometricPrecision; text-rendering:geometricPrecision; image-rendering:optimizeQuality; fill-rule:evenodd; clip-rule:evenodd"
viewBox="0 0 6980320 2400850"
 xmlns:xlink="http://www.w3.org/1999/xlink">
 <defs>
  <style type="text/css">
   <![CDATA[
    .fil0 {fill:#F6BF4A}
    .fil1 {fill:#F6BF4A;fill-rule:nonzero}
   ]]>
  </style>
 </defs>
 <g id="Layer_x0020_1">
  <metadata id="CorelCorpID_0Corel-Layer"/>
  <g id="_1626066598688">
   <path class="fil0" d="M2389650 10110l5360 -520 5350 -520c2060,-210 4020,460 5510,1680 1490,1230 1520,3400 2720,5090l37540 52560 -26710 58820c-850,1890 -460,4020 -1680,5510 -1230,1500 -3030,2520 -5090,2720l-5350 520 -5360 520c-2060,200 -4020,-460 -5510,-1680 -1490,-1230 -3570,-3200 -2720,-5090l26720 -58810 -37550 -52570c-1200,-1690 460,-4030 1690,-5520 1230,-1490 3020,-2510 5080,-2710z"/>
   <path class="fil0" d="M4548610 4510l5310 850 5310 850c2050,340 3770,1470 4900,3040 1130,1560 600,3670 1340,5600l22970 60380 -40760 50110c-1310,1610 -1460,3770 -3030,4900 -1570,1130 -3560,1670 -5610,1340l-5310 -850 -5310 -860c-2040,-330 -3770,-1460 -4900,-3030 -1130,-1560 -2650,-3990 -1340,-5600l40760 -50120 -22970 -60370c-740,-1940 1470,-3780 3030,-4910 1560,-1130 3560,-1660 5610,-1330z"/>
   <path class="fil1" d="M3490000 0c-11050,0 -14110,15650 -3030,19530 1050,300 1910,470 3030,470l39960 70c11770,0 13930,-17080 2060,-19780 -670,-130 -1310,-210 -2010,-210l-40010 -80zm-36660 20060c11620,0 13830,-16970 2170,-19740 -740,-170 -1480,-250 -2260,-250 -13340,50 -26690,120 -40030,220 -11490,0 -13990,17050 -1840,19810 670,130 1310,180 2020,180 13310,-100 26620,-180 39940,-220zm-99850 840c10850,0 13970,-15830 2780,-19550 -1040,-320 -1970,-440 -3090,-440l-40010 600c-10400,0 -14160,15020 -3100,19450 1140,390 2230,540 3450,540l39970 -600zm-99870 1810c12400,-540 13100,-18270 990,-19920l-1470 -70c-13340,300 -26680,640 -40020,1000 -12530,540 -13080,18860 -330,19970l900 10c13310,-360 26620,-690 39930,-990zm-99820 2780c10450,-460 13430,-14520 3720,-19120 -1480,-600 -2780,-930 -4420,-860l-39980 1390c-4880,210 -8880,3810 -9540,8640 -830,6110 4110,11610 10280,11340l39940 -1390zm-99810 3770c10630,-460 13360,-15240 3110,-19340 -1340,-470 -2520,-700 -3980,-630 -13330,560 -26660,1160 -39990,1790 -11300,490 -13280,16980 -1610,19760 880,170 1640,250 2570,210 13300,-620 26600,-1230 39900,-1790zm-99750 4770c10900,-470 13370,-16400 1910,-19670 -1020,-250 -1920,-340 -2990,-290 -13330,710 -26650,1410 -39970,2190 -10590,460 -13220,15740 -2590,19460 1380,400 2280,570 3760,500 13290,-760 26590,-1480 39880,-2190zm-99710 5780c12660,-1100 12290,-19390 -430,-19970 -13280,320 -27410,1740 -40780,2630 -12810,1110 -12150,19970 970,19970 13390,-690 26850,-1810 40240,-2630zm-99620 6820c12240,-1070 12270,-18870 -20,-19940 -500,-30 -970,-40 -1470,0 -13300,980 -26610,1990 -39920,3020 -5110,450 -8970,4480 -9200,9610 -260,5910 4880,10840 10780,10330 13270,-1040 26550,-2050 39830,-3020zm-99550 7860c11210,-980 12520,-17060 1360,-19720 -1070,-200 -1950,-300 -3060,-200 -13300,1120 -26600,2260 -39890,3440 -2290,200 -4510,1230 -6130,2850 -6620,6630 -1400,17880 7930,17070 13260,-1180 26530,-2320 39790,-3440zm-99450 8920c1990,-180 4040,-1050 5530,-2360 7360,-6430 2290,-18390 -7460,-17540 -13290,1270 -26580,2520 -39850,3880 -10870,940 -12470,17010 -1160,19700 1150,220 1990,290 3180,190 13250,-1350 26510,-2600 39760,-3870zm-99380 10000c10210,-880 12660,-15730 1960,-19470 -1460,-420 -2530,-540 -4070,-410 -13270,1400 -26540,2870 -39800,4330 -12480,1620 -11520,19930 1440,19930 13270,-980 27150,-2970 40470,-4380zm-99230 11120c12290,-1600 11570,-19910 -1570,-19910 -13280,1070 -27210,3210 -40520,4830 -11510,1510 -11750,18170 -20,19850 850,70 1600,110 2460,0 13210,-1610 26430,-3220 39650,-4770zm-99090 12260c11840,-1540 11580,-19350 -1180,-19910 -480,0 -940,30 -1400,80 -13240,1700 -26470,3470 -39690,5240 -11470,1500 -11740,18760 770,19900 660,20 1270,0 1900,-80 13200,-1770 26400,-3540 39600,-5230zm-98940 13430c10830,-1420 11860,-17550 190,-19770 -1080,-150 -1930,-170 -3010,-30 -13210,1860 -26420,3790 -39630,5720 -2160,280 -4490,1510 -5910,3140 -6250,7140 -540,17860 8830,16640 13170,-1920 26350,-3850 39530,-5700zm-98770 14620c11870,-2060 11010,-19310 -1410,-19870 -590,0 -1080,40 -1650,120 -13190,2000 -26370,4120 -39550,6210 -12050,2090 -10790,19860 1880,19860 430,-20 860,-50 1270,-120 13150,-2090 26300,-4200 39460,-6200zm-98550 15870c11960,-2170 10630,-19850 -1960,-19850 -470,20 -930,60 -1390,140 -13160,2220 -26320,4440 -39470,6720 -11900,2170 -10530,19850 1930,19850 530,-20 1010,-60 1520,-150 13110,-2300 26240,-4490 39370,-6710zm-98360 17160c2250,-410 4250,-1560 5730,-3250 6200,-7100 -40,-18110 -9330,-16420 -13130,2390 -26250,4800 -39370,7260 -4020,730 -7210,3950 -7970,7950 -1320,6950 4750,12960 11670,11700 13080,-2450 26180,-4860 39270,-7240zm-98100 18500c10140,-1850 11190,-16830 170,-19590 -1450,-270 -2580,-290 -4030,-30 -13100,2560 -26190,5180 -39270,7800 -12360,2810 -9620,20890 3200,19730 13150,-2160 26760,-5340 39930,-7910zm-97810 19880c11420,-2600 10060,-19240 -1850,-19780 -800,0 -1560,50 -2330,220 -13050,2770 -26110,5550 -39150,8390 -11580,2630 -9830,19760 2330,19760 680,-30 1300,-80 1950,-230 13010,-2840 26030,-5600 39050,-8360zm-97520 21340c11110,-2520 10080,-19190 -2060,-19740 -840,0 -1590,70 -2390,250 -13010,2950 -26010,5970 -39020,8990 -11040,2510 -9970,19190 2060,19730 900,0 1630,-70 2500,-260 12970,-3020 25930,-6020 38910,-8970zm-97140 22880c12310,-3360 8610,-21300 -3960,-19580l-820 160c-12970,3180 -25920,6380 -38870,9630 -12450,3400 -8310,21810 4460,19490 13050,-3030 26150,-6510 39190,-9700zm-96740 24470c11950,-3250 8530,-21260 -4120,-19530l-1010 210c-12900,3410 -25810,6820 -38690,10310 -11090,3020 -9140,19640 2810,19640 870,-40 1600,-120 2440,-350 12840,-3470 25710,-6880 38570,-10280zm-96310 26210c10450,-2850 9380,-18520 -1890,-19590 -1330,-60 -2270,0 -3540,340 -12860,3620 -25710,7300 -38530,11040 -4480,1220 -7580,5780 -7160,10410 580,6390 6590,10460 12780,8780 12760,-3710 25550,-7390 38340,-10980zm-95750 28010c11970,-3800 7610,-21640 -4880,-19370 -5590,1420 -11360,3420 -16910,5120l-22330 6930c-11170,3550 -8260,20590 4270,19450 590,-80 1170,-200 1730,-380 12680,-3980 25390,-7930 38120,-11750zm-95120 29960c10750,-3420 8250,-20020 -3790,-19470 -910,80 -1610,210 -2470,480 -12700,4170 -25370,8370 -38020,12620 -3090,980 -5730,3800 -6480,6950 -1940,7780 5240,14420 12870,11990 12620,-4240 25240,-8420 37890,-12570zm-94450 32070c11840,-4510 6530,-21920 -5760,-19120l-920 280c-12600,4440 -25210,8920 -37760,13520 -8330,3180 -8800,14640 -800,18430 2540,1070 5070,1340 7700,340l16930 -6130 20610 -7320zm-93590 34330c11210,-4270 6640,-21900 -6220,-18970l-980 320c-12470,4780 -24920,9610 -37360,14490 -3240,1230 -5320,3950 -6110,7260 -1570,7850 6000,14170 13460,11330l11830 -4640 25380 -9790zm-92670 36840c11530,-4940 5460,-22280 -6750,-18790 -4790,1720 -9660,3970 -14380,5940l-23490 9970c-11120,4760 -5690,22170 6940,18730l960 -360 23320 -9900 13400 -5590zm-91410 39560c11060,-5270 5080,-21970 -7060,-18660l-1250 480 -11780 5340 -12520 5770 -12120 5640c-4710,2250 -6970,7690 -5100,12590 2060,5410 8330,8020 13590,5520l12030 -5610 12440 -5720 11770 -5350zm-90030 42630c8720,-4370 6630,-17450 -3120,-18850 -2150,-200 -3870,-10 -5820,970l-18500 9260 -17320 8860c-11270,6200 -3230,23100 8870,17920 5840,-2920 11650,-5980 17470,-8940l18420 -9220zm-88250 46030c4010,-2210 6040,-7010 4780,-11440 -1780,-6220 -8800,-9170 -14490,-6040l-9400 5180 -11000 6160 -14620 8310c-8860,4880 -5190,19150 5580,18630 1740,-150 2870,-470 4430,-1320l14420 -8200 10900 -6100 9400 -5180zm-86040 49910c9160,-5780 3960,-19910 -6760,-18380 -1400,270 -2530,610 -3780,1400l-7600 4680 -10160 6350 -10050 6370 -6200 4000c-9180,5800 -3470,20780 8020,18050 1060,-310 1900,-670 2850,-1280l6100 -3920 9930 -6300 10050 -6280 7600 -4690zm-83220 54380c2500,-1700 4120,-4640 4260,-7640 400,-8370 -8820,-13460 -15710,-8740l-10950 7690 -9170 6560 -12620 9210c-10160,7910 570,23250 11520,16340 4290,-3050 8530,-6240 12800,-9340l9050 -6470 10820 -7610zm-79440 59490c8060,-6270 2150,-20050 -8930,-17410 -1410,400 -2470,960 -3640,1870l-8850 7210 -8150 6760 -8030 6780 -5920 5100c-8330,7350 -450,21110 10670,16660 890,-420 1700,-910 2420,-1560l5800 -4980 7900 -6670 8010 -6650 8720 -7110zm-74330 65440c2950,-2950 3830,-7100 2290,-10970 -2600,-6480 -11270,-8320 -16220,-3380l-9380 9170 -6980 6970 -6850 7000 -5270 5500c-8250,8760 3270,22090 13210,14910 480,-380 850,-700 1290,-1140l5130 -5350 6710 -6850 6830 -6840 9240 -9020zm-67260 72270c7800,-10040 -6000,-22200 -14980,-13220l-5340 6460 -5750 7180 -5630 7200 -5500 7220 -3290 4430c-2740,3800 -2570,9180 650,12610 4460,4760 11530,4280 15480,-800l3140 -4220 5350 -7020 5470 -7010 5610 -7000 4790 -5830zm-57340 80040c6070,-10130 -7670,-20730 -15950,-11890 -460,520 -840,1010 -1210,1620l-2150 3550 -4360 7390 -4230 7410 -4090 7440 -5110 9700c-5230,10460 8940,20210 16850,10600 380,-500 720,-1040 1010,-1610l4840 -9180 3950 -7170 4080 -7170 4210 -7150 2160 -3540zm-43250 87930c3880,-10190 -9550,-18470 -16940,-10020 -800,970 -1340,1840 -1810,3050l-860 2260 -2750 7610 -2620 7630 -2480 7640 -2350 7660 -1720 5970c-3080,11280 12450,17770 18320,7630 410,-780 720,-1430 940,-2270l1630 -5640 2240 -7330 2380 -7320 2510 -7320 2650 -7290 860 -2260zm-24310 94410c1570,-12020 -16210,-16160 -19640,-3570l-190 1010 -500 3610 -940 7810 -790 7820 -660 7840 -510 7840 -270 5800c-130,3000 1180,5940 3400,7880 6330,5550 16220,1280 16580,-7140l260 -5430 480 -7480 620 -7470 760 -7450 900 -7450 500 -3620zm-1760 97320c-1630,-12470 -19930,-11520 -19930,1450l420 4330 940 7810 1090 7800 1220 7780 1370 7770 1110 5690c2870,12620 21420,9310 19660,-3610l-1120 -5730 -1300 -7410 -1170 -7430 -1030 -7430 -900 -7450 -360 -3570zm21070 95170c-4480,-11770 -21950,-6730 -19080,5920l1720 5060 2750 7610 2900 7590 3030 7580 3160 7560 1460 3340c4280,9990 20140,6620 19060,-5260 -150,-1080 -370,-1880 -800,-2900l-1340 -3040 -3040 -7270 -2910 -7280 -2770 -7280 -2650 -7310 -1490 -4320zm40730 89090c-4860,-8830 -19130,-5220 -18640,5600 170,1750 470,2860 1340,4430l5510 9420 4480 7370 4610 7360 4740 7340 2060 3080c6950,10170 22850,1200 17100,-10300l-530 -880 -1910 -2870 -4590 -7110 -4470 -7120 -4340 -7140 -5360 -9180zm55460 81170c-1360,-1750 -3560,-3050 -5720,-3480 -9290,-1770 -15630,8590 -9810,16080l4610 5750 5870 7160 6000 7140 6130 7120 3360 3830c7620,8630 21920,-650 16190,-11540 -370,-650 -760,-1190 -1250,-1750l-3220 -3660 -5970 -6940 -5850 -6970 -5730 -6980 -4610 -5760zm66080 73500c-8320,-8320 -22150,2460 -15230,12840 360,500 710,920 1150,1360l8440 8300 7210 6930 7330 6920 6210 5740c3900,3440 9490,3550 13400,100 4350,-3840 4500,-10960 110,-14840l-6070 -5620 -7190 -6780 -7070 -6800 -8290 -8150zm73430 66400c-9690,-7540 -21630,4890 -13930,14250 420,440 760,800 1230,1190l11020 9030 8380 6720 12060 9460c9160,7130 21500,-4940 13660,-14460 -460,-520 -930,-960 -1470,-1390l-11810 -9260 -8240 -6620 -10900 -8920zm78790 60340c-10200,-6970 -21370,6710 -12800,15290 390,360 780,710 1220,1010l10590 7480 9390 6510 13130 8940c9110,6230 20430,-5330 13450,-14470 -740,-890 -1370,-1500 -2340,-2160l-12900 -8780 -9270 -6430 -10470 -7390zm82670 55070c-3760,-2380 -8830,-1880 -12040,1130 -4880,4580 -4110,12310 1500,15850l15340 9500 10370 6300 8580 5140c7560,4540 16880,-2320 14810,-11000 -820,-2730 -2100,-4690 -4590,-6180l-8470 -5080 -10270 -6230 -15230 -9430zm85670 50550c-10420,-5740 -20820,8540 -10880,16720 380,270 750,530 1170,760l14760 8170 11210 6090 9270 4990c2640,1440 5780,1510 8520,420 7830,-3290 8330,-13980 900,-18060l-9180 -4930 -11120 -6050 -14650 -8110zm87950 46580c-10060,-5030 -19920,8160 -11030,16490 670,550 1280,990 2090,1390l18590 9280 17400 8500c3670,1740 7920,1140 10950,-1510 5360,-4700 4130,-13460 -2280,-16510l-17220 -8410 -18500 -9230zm89800 43120c-2530,-1080 -4690,-1180 -7300,-400 -8630,3020 -9250,14660 -1010,18580l14420 6570 22170 9900c11000,4710 19550,-10270 9770,-17340 -550,-360 -1090,-690 -1710,-960l-9360 -4150 -12640 -5670 -14340 -6530zm91260 40010c-10530,-4510 -19360,9960 -9820,17260 670,480 1310,850 2090,1180l13610 5680 23470 9620c10400,3960 18310,-8850 10860,-16310 -1110,-1040 -1920,-1610 -3360,-2230l-23310 -9550 -13540 -5650zm92470 37220c-1970,-750 -4260,-900 -6300,-300 -9270,2650 -9790,15570 -900,18960l16280 6240 21220 8000c4480,1710 9710,-180 12090,-4280 3160,-5450 710,-12230 -5130,-14450 -12440,-4660 -24880,-9360 -37260,-14170zm93460 34690c-10720,-3900 -18950,11040 -8620,17920 680,400 1200,650 1940,930l22440 7940 15390 5360c11410,3630 18470,-11670 8420,-18020 -620,-350 -1280,-690 -1950,-900l-15250 -5310 -22370 -7920zm94330 32400c-11460,-3640 -18420,12200 -8060,18200 580,320 1180,600 1800,790l16990 5580 21140 6830c4680,1490 9780,-670 11950,-5020 2760,-5530 -40,-12170 -5890,-14030 -12660,-4060 -25310,-8170 -37930,-12350zm95030 30260c-10440,-3320 -18080,10940 -8620,17770 940,630 1740,1020 2810,1360 12770,3900 25550,7770 38340,11590 9500,2590 16660,-7960 10590,-15900 -1440,-1650 -2750,-2580 -4910,-3270 -12750,-3800 -25480,-7660 -38210,-11550zm95670 28300c-10480,-2850 -17350,10530 -9010,17390 1120,850 2200,1480 3580,1850 12840,3650 25690,7270 38560,10840 11220,3060 17790,-12440 7580,-18350 -780,-400 -1430,-700 -2270,-930 -12830,-3550 -25640,-7160 -38440,-10800zm96210 26460c-10920,-2980 -17830,12370 -7350,18430 780,420 1440,680 2280,910 12910,3410 25820,6800 38750,10120 10410,2840 17730,-11520 7720,-18190 -970,-560 -1710,-880 -2770,-1170 -12890,-3320 -25760,-6700 -38630,-10100zm96700 24740c-11030,-2500 -17140,11890 -7820,18110 1070,650 1850,980 3040,1310 12960,3210 25950,6360 38940,9460 4180,950 8320,-720 10650,-4210 3840,-5760 650,-13720 -6040,-15240 -12930,-3100 -25860,-6230 -38770,-9430zm97080 23110c-4570,-1040 -9380,1290 -11290,5540 -2620,5830 640,12540 6850,13950 13010,2980 26030,5920 39060,8830 10960,2500 17120,-12650 7080,-18460 -950,-500 -1710,-820 -2750,-1050 -12990,-2910 -25970,-5840 -38950,-8810zm97450 21560c-2330,-520 -4520,-100 -6640,900 -8310,4370 -6720,16570 2520,18670 13050,2770 26110,5530 39180,8230 10360,2360 17260,-12180 6840,-18550 -1040,-520 -1700,-780 -2820,-1040 -13040,-2690 -26060,-5440 -39080,-8210zm97790 20100c-11710,-2120 -16810,14080 -5860,19010 660,260 1310,490 2000,610 13090,2590 26190,5140 39300,7670 11640,2120 16720,-14110 5860,-18990 -710,-290 -1350,-510 -2110,-650 -13070,-2520 -26130,-5060 -39190,-7650zm98070 18700c-11540,-2090 -16780,14300 -5550,19110 630,250 1280,440 1950,560 13120,2420 26260,4770 39390,7120 10990,2000 16690,-13280 6190,-18800 -950,-430 -1670,-700 -2680,-880 -13110,-2350 -26210,-4690 -39300,-7110zm98290 17360c-10420,-1820 -16260,12130 -7050,18270 1270,770 2310,1180 3750,1450 13160,2210 26320,4430 39490,6590 10470,1820 16440,-12520 6550,-18560 -1180,-620 -2050,-950 -3350,-1180 -13130,-2160 -26260,-4360 -39390,-6570zm98540 16060c-10650,-1390 -15850,12000 -7080,18190 1280,850 2540,1310 4030,1570 13190,2050 26380,4090 39570,6080 12740,1670 16110,-16810 3470,-19680 -13210,-2290 -26710,-4100 -39990,-6160zm98750 14810c-11520,-1500 -15950,14310 -5410,19060 870,350 1650,610 2590,730 13210,1890 26430,3760 39640,5600 11190,1460 16140,-13970 5330,-19090 -880,-350 -1670,-600 -2610,-720 -13180,-1830 -26370,-3690 -39540,-5580zm98920 13600c-11380,-1480 -16170,14720 -4670,19320 710,240 1340,410 2090,500 13230,1740 26460,3450 39700,5130 11130,1450 15970,-14260 5150,-19130 -910,-360 -1690,-580 -2660,-710 -13210,-1670 -26410,-3380 -39610,-5110zm99070 12430c-2340,-310 -4790,320 -6740,1620 -7680,5420 -4820,17030 4390,18230 13250,1580 26510,3140 39760,4660 4990,440 9120,-2280 10690,-7000 1750,-6140 -2140,-12040 -8440,-12860 -13220,-1520 -26440,-3080 -39660,-4650zm99210 11280c-12530,-1090 -15480,16920 -3000,19750l890 140c13260,1420 26530,2850 39800,4210 11850,1030 15540,-15640 3890,-19520 -620,-170 -1220,-320 -1860,-370 -13250,-1370 -26480,-2780 -39720,-4210zm99330 10180c-11740,-1020 -15440,15660 -3870,19510 660,190 1290,340 1990,390l39850 3770c11940,1040 15330,-16230 3480,-19610 -580,-130 -1070,-240 -1680,-300 -13260,-1210 -26520,-2490 -39770,-3760zm99470 9080c-11620,-1010 -15310,15690 -3880,19500 760,210 1380,360 2170,420 13290,1160 26590,2250 39890,3340 11270,980 15310,-15140 4200,-19370 -870,-300 -1670,-480 -2580,-560 -13270,-1090 -26540,-2170 -39800,-3330zm99530 8020c-10830,-940 -15230,14410 -4700,19150 1130,450 2000,680 3220,790 13300,1000 26610,1960 39920,2910 10760,940 15190,-14420 4670,-19150 -1170,-470 -2020,-690 -3280,-790 -13280,-950 -26550,-1910 -39830,-2910zm99610 6970c-12810,-560 -14700,18140 -1640,19920 13360,1070 26930,1730 40330,2530 12770,550 14600,-18160 1690,-19920 -13350,-1100 -26970,-1670 -40380,-2530zm99680 5940c-11620,-510 -14650,15810 -3580,19500 870,250 1630,420 2540,460l39960 2090c12300,540 14660,-17560 2010,-19860l-1020 -110 -39910 -2080zm99760 4910c-11570,-500 -14790,16280 -2870,19690 670,160 1310,250 2000,290 13340,590 26670,1150 40000,1690 11600,510 14680,-16450 2780,-19700 -670,-160 -1300,-250 -2000,-280 -13300,-530 -26610,-1100 -39910,-1690zm99790 3920c-2930,-120 -5900,1180 -7790,3350 -5620,6410 -1350,16270 7130,16640l40010 1290c10420,460 14670,-14230 4270,-19160 -1310,-530 -2280,-760 -3700,-820 -13300,-510 -26620,-850 -39920,-1300zm99830 2940c-12700,0 -13900,18210 -1370,19920l890 60c13340,330 26680,630 40030,900 11770,0 14140,-16410 2700,-19680 -840,-190 -1440,-270 -2310,-310 -13320,-270 -26630,-560 -39940,-890zm99840 1950c-3810,0 -7210,1980 -8970,5330 -3470,6590 1310,14660 8710,14660l40030 510c12390,0 13860,-18200 1190,-19930 -13210,-770 -27570,-390 -40960,-570zm99880 980c-11520,0 -13970,16410 -2640,19650 870,210 1630,340 2550,340l40030 120c5700,0 10240,-4750 9990,-10450 -230,-5330 -4640,-9550 -9990,-9550 -13310,-10 -26630,-40 -39940,-110zm99860 10c-11760,0 -13980,17600 -1390,19890 510,70 990,100 1520,100l40010 -260c11490,0 13990,-17040 1840,-19800 -680,-130 -1310,-190 -2020,-190l-39960 260zm99870 -950c-10850,0 -13970,15820 -2780,19550 1040,320 1970,440 3090,440 13340,-190 26680,-400 40020,-650 12910,-560 13130,-19420 -130,-19990 -13390,140 -26800,460 -40200,650zm99840 -1910c-12840,560 -12950,19420 80,19980 13400,-80 27020,-680 40440,-1040 12540,-550 13090,-18860 330,-19970l-890 -20 -39960 1050zm99840 -2910c-10450,460 -13430,14520 -3720,19130 1480,590 2780,930 4420,850 13340,-440 26670,-930 40000,-1430 12280,-540 13070,-18800 240,-19970l-1020 -10c-13300,510 -26610,990 -39920,1430zm99790 -3880c-3490,150 -6520,2080 -8240,5040 -3840,6920 1280,15270 9150,14930 13330,-590 26660,-1170 39990,-1840 11540,-500 13220,-17640 1020,-19860 -680,-100 -1320,-140 -2020,-100 -13290,680 -26610,1230 -39900,1830zm99760 -4890c-10890,470 -13370,16400 -1910,19680 1030,240 1920,330 3000,280 13320,-710 26640,-1470 39960,-2240 10590,-460 13220,-15740 2580,-19460 -1380,-400 -2270,-570 -3750,-500 -13290,770 -26590,1540 -39880,2240zm99680 -5910c-13160,1150 -11920,20530 1310,19950 13320,-850 26630,-1730 39940,-2650 12800,-1110 12100,-19970 -940,-19970 -13390,680 -26910,1810 -40310,2670zm99620 -6930c-12160,1060 -12350,18860 130,19950 460,20 930,30 1400,-10 13300,-1010 26620,-1970 39910,-3070 12220,-1060 12350,-19370 -730,-19960 -13280,500 -27350,2080 -40710,3090zm99560 -7980c-11210,970 -12520,17060 -1360,19720 1070,200 1950,300 3060,200 13300,-1110 26590,-2310 39880,-3500 2290,-200 4510,-1230 6130,-2840 6630,-6630 1400,-17880 -7920,-17070 -13270,1180 -26530,2380 -39790,3490zm99440 -9050c-1990,180 -4040,1050 -5540,2360 -7350,6430 -2280,18390 7470,17540 13280,-1270 26560,-2590 39840,-3930 10870,-950 12470,-17010 1160,-19700 -1150,-220 -1990,-290 -3180,-190 -13250,1340 -26500,2650 -39750,3920zm99340 -10140c-12340,1610 -11550,19380 820,19940l1340 -60c13260,-1420 26530,-2880 39790,-4370 12280,-1600 11440,-19370 -790,-19930l-1460 60c-13230,1490 -26470,2940 -39700,4360zm99210 -11240c-12340,1610 -11370,19920 1430,19920l960 -70c13250,-1580 26500,-3190 39740,-4830 11990,-1560 11520,-19350 -1020,-19920 -500,0 -970,20 -1460,80 -13210,1640 -26430,3240 -39650,4820zm99080 -12390c-11570,1500 -11650,18770 660,19880 680,40 1290,20 1960,-60 13230,-1740 26460,-3500 39690,-5300 11480,-1490 11610,-18760 -700,-19880 -710,-30 -1320,-20 -2020,70 -13200,1800 -26390,3550 -39590,5290zm98920 -13560c-10770,1400 -11870,17530 -140,19760 1070,150 1920,160 3000,20 13210,-1890 26420,-3820 39620,-5770 10450,-1370 11930,-16970 530,-19690 -1230,-230 -2230,-250 -3490,-90 -13170,1960 -26340,3880 -39520,5770zm98750 -14780c-12120,2110 -10780,19870 1830,19870l1270 -120c13190,-2050 26370,-4140 39550,-6270 12270,-2130 10560,-20400 -2320,-19840l-890 110c-13140,2120 -26290,4200 -39440,6250zm98550 -16020c-11970,2180 -10630,19860 1950,19860 470,-30 940,-60 1400,-140 13160,-2220 26310,-4500 39460,-6780 11900,-2170 10530,-19850 -1930,-19850 -530,20 -1010,60 -1520,150 -13120,2280 -26240,4550 -39360,6760zm98320 -17300c-11700,2130 -10570,19830 2090,19830 520,-30 1010,-70 1520,-170 13130,-2370 26270,-4830 39380,-7320 11290,-2050 10750,-19250 -1730,-19820 -720,0 -1330,60 -2020,180 -13050,2510 -26150,4930 -39240,7300zm98060 -18660c-12410,2820 -9600,20840 3080,19740l830 -130c13090,-2590 26180,-5210 39260,-7870 12580,-2860 9330,-21430 -3640,-19660 -13170,2460 -26380,5320 -39530,7920zm97800 -20050c-11960,2720 -9650,20310 2720,19750 500,-40 970,-90 1450,-200 13060,-2760 26100,-5600 39140,-8450 11580,-2630 9830,-19760 -2330,-19760 -690,30 -1300,80 -1950,230 -13010,2840 -26010,5670 -39030,8430zm97450 -21520c-3520,800 -6310,3460 -7340,6900 -2110,7390 4350,14280 11840,12580 13010,-2980 26010,-5990 39000,-9060 4110,-930 7250,-4540 7640,-8730 630,-6900 -5510,-12250 -12250,-10720 -12960,3050 -25920,6060 -38890,9030zm97120 -23050c-12300,3350 -8610,21290 3970,19580 13000,-2670 26730,-6580 39690,-9880 12120,-3310 8600,-21280 -4070,-19560l-880 190c-12880,3280 -25800,6510 -38710,9670zm96690 -24680c-11950,3260 -8520,21260 4130,19530l1000 -210c12910,-3400 25830,-6850 38710,-10390 11270,-3070 8930,-20170 -3320,-19610 -710,60 -1310,150 -1990,340 -12820,3520 -25680,6950 -38530,10340zm96220 -26400c-4370,1190 -7450,5450 -7250,9990 320,6530 6420,10950 12740,9230l22000 -6300 16520 -4810c11840,-3770 7890,-21140 -4380,-19470 -12780,2890 -26790,7710 -39630,11360zm95690 -28240c-11660,3710 -7830,21110 4450,19440 480,-90 940,-180 1420,-330 12780,-3900 25550,-7850 38290,-11890 11370,-3620 7960,-21110 -4710,-19380 -460,90 -910,190 -1360,330l-17810 5590 -20280 6240zm95080 -30200c-10750,3420 -8260,20020 3790,19470 910,-80 1610,-210 2480,-480l16230 -5390 21790 -7340c10050,-3200 8640,-18910 -3030,-19460 -1300,0 -2220,150 -3450,540 -12580,4270 -25180,8540 -37810,12660zm94330 -32310c-11550,4400 -6770,21410 5340,19210 480,-120 940,-220 1410,-400l24060 -8640 13610 -4970c11420,-4350 6750,-21500 -5540,-19160 -460,100 -910,220 -1350,390 -12500,4570 -25000,9100 -37530,13570zm93520 -34630c-11200,4270 -6640,21900 6230,18980 5170,-1710 10440,-3990 15550,-5970l22760 -8980c11030,-4730 6370,-20750 -5170,-19180 -830,160 -1440,310 -2250,610l-22610 8920 -14510 5620zm92500 -37130c-11000,4710 -6120,21730 6530,18850 400,-110 810,-250 1200,-420l15900 -6690 21020 -9030c10610,-4550 6150,-21160 -6060,-18950 -690,170 -1260,340 -1920,620l-20850 8960 -15820 6660zm91300 -39920c-11050,5270 -5070,21970 7070,18660l1250 -470 13690 -6300 12430 -5790 10260 -4840c10600,-5050 5260,-21450 -6730,-18730 -650,190 -1210,370 -1840,670l-22520 10550 -13610 6250zm89810 -42980c-2110,1050 -3680,2760 -4640,4910 -3660,8690 5320,17100 13670,12930l19770 -10020 15970 -8280c10970,-6030 3500,-22650 -8510,-18070l-810 380 -15780 8180 -19670 9970zm88010 -46460c-1790,990 -3090,2440 -4030,4230 -4270,9030 5250,17920 13840,13200l10170 -5690 10900 -6170 13850 -7990c10770,-6450 2310,-22900 -9320,-17660l-790 420 -13650 7860 -10790 6120 -10180 5680zm85750 -50400c-7620,4810 -5470,16490 3400,18260 2520,480 5070,30 7250,-1340l7810 -4880 10050 -6370 9930 -6400 6090 -3970c10490,-7180 990,-23330 -10670,-16910l-16120 10430 -9930 6300 -7810 4880zm82840 -54940c-2290,1560 -3890,4330 -4150,7070 -820,8640 8560,14130 15720,9230l10540 -7520 9060 -6580 12960 -9620c9780,-7610 -60,-22670 -11000,-16650 -360,210 -730,450 -1060,700l-12720 9440 -8940 6500 -10410 7430zm78870 -60090c-7520,6630 -2260,18540 7390,17620 2140,-310 3730,-860 5440,-2290l7840 -6510 8040 -6780 7920 -6810 6850 -5990c8520,-7530 -290,-21830 -11490,-16230 -640,370 -1200,750 -1750,1240l-6720 5880 -7780 6690 -7900 6670 -7840 6510zm73690 -66250c-8450,8460 2470,22170 12760,15310 470,-340 900,-690 1320,-1100l7950 -7940 6860 -7000 6730 -7020 6600 -7020c2320,-2630 3090,-5540 2440,-8960 -1880,-7900 -11540,-10550 -17090,-4650l-6450 6870 -6590 6870 -6710 6850 -7820 7790zm66290 -73140c-7330,9420 4970,21510 14310,13820 500,-470 930,-860 1360,-1410l3120 -3900 5630 -7200 5500 -7220 5380 -7250 4840 -6680c6880,-10060 -6310,-21230 -15080,-13010 -430,430 -860,890 -1200,1390l-4690 6490 -5230 7040 -5350 7020 -5470 7010 -3120 3900zm55950 -80980c-6140,11160 9410,21020 16890,10670 1800,-2870 3430,-5930 5120,-8880l4090 -7440 3960 -7450 3830 -7460 2630 -5320c1020,-2150 1260,-4420 710,-6720 -2270,-9080 -14500,-10420 -18710,-1990l-2490 5040 -3700 7200 -3820 7190 -3950 7180 -4560 7980zm41230 -88680c-3620,11390 12040,18700 18320,7850 250,-500 480,-990 650,-1510l2140 -6250 2480 -7640 2350 -7660 2210 -7680 2070 -7690 540 -2180c1090,-4800 -1220,-9480 -5690,-11490 -5610,-2530 -12380,820 -13740,6810l-2440 9190 -2120 7350 -2240 7340 -2380 7320 -2150 6240zm21850 -94980c-990,11410 14950,15360 19300,4480 310,-920 520,-1660 610,-2640l740 -7330 660 -7840 510 -7840 360 -7860 240 -9940c0,-11050 -15650,-14110 -19530,-3030 -300,1050 -460,1910 -460,3030l-230 9200 -350 7490 -480 7480 -620 7470 -750 7330zm-930 -97330c1400,10770 17630,11790 19760,70 150,-1060 150,-1940 10,-3000l-1010 -7250 -1220 -7790 -1370 -7760 -1510 -7750 -1650 -7740 -450 -1940c-1060,-4680 -5680,-8060 -10480,-7630 -6200,570 -10330,6230 -8950,12310l1950 8990 1440 7400 1300 7410 1170 7430 1010 7250zm-23630 -94780c3940,10360 19370,7730 19370,-3720 -50,-1140 -220,-2170 -630,-3250l-3190 -8400 -3030 -7580 -3160 -7550 -3300 -7550 -2990 -6560c-1870,-3920 -6030,-6310 -10400,-5690 -6600,900 -10630,8040 -7730,14130l2870 6280 3170 7250 3040 7260 2910 7280 3070 8100zm-42630 -88080c6190,9810 21300,3130 18080,-8150 -280,-840 -590,-1590 -1070,-2350l-3960 -6520 -4610 -7360 -4740 -7330 -4870 -7320 -3780 -5530c-2620,-3840 -7540,-5250 -11860,-3610 -6030,2420 -8230,9660 -4560,15020l3630 5300 4720 7100 4590 7110 4470 7120 3960 6520zm-56960 -80340c1610,1840 3420,2980 5820,3440 9190,1750 15530,-9050 9560,-16210l-3090 -3770 -6000 -7140 -6130 -7120 -6240 -7100 -4940 -5490c-7090,-8040 -20950,-250 -16560,10720 480,1070 1000,1860 1770,2730l4790 5320 6100 6940 5970 6950 5850 6960 3100 3770zm-67060 -72620c7480,7480 20780,-820 15920,-11620 -580,-1100 -1120,-1850 -1990,-2720l-7280 -7000 -7330 -6910 -7440 -6890 -7440 -6760c-8930,-7880 -21820,3560 -14660,13460 370,490 810,980 1290,1400l7290 6630 7310 6770 7190 6780 7140 6860zm-74150 -65640c9730,7570 21780,-5330 13680,-14500 -340,-360 -710,-740 -1110,-1040l-10330 -8320 -8490 -6700 -12860 -9910c-8770,-6820 -21000,4310 -14010,13990 580,760 1180,1360 1950,1960l12600 9710 8370 6600 10200 8210zm-79290 -59680c3930,2690 9090,2350 12550,-890 4610,-4320 4110,-11930 -1100,-15500l-10410 -7230 -9500 -6490 -13360 -8950c-10300,-6510 -20910,7080 -12520,15470 520,480 940,830 1530,1230l13130 8800 9380 6410 10300 7150zm-83070 -54500c8760,5530 19650,-4910 13380,-14310 -910,-1190 -1640,-1920 -2940,-2750l-15770 -9620 -10480 -6280 -8160 -4820c-10930,-6010 -20790,8620 -11230,16490l1110 750 8060 4770 10370 6210 15660 9560zm-85960 -50060c10260,5640 20440,-8300 11280,-16390 -530,-440 -1060,-810 -1670,-1150l-15740 -8590 -19600 -10470c-9070,-4990 -19250,6220 -12500,15040 960,1160 1830,1900 3190,2650l19400 10360 15640 8550zm-88180 -46160c10010,5010 19840,-8210 11040,-16460 -670,-580 -1380,-1060 -2200,-1470l-20160 -9930 -15900 -7680c-10020,-4770 -19720,8260 -10790,16620 690,580 1370,1040 2210,1440l15720 7590 20080 9890zm-89990 -42740c11390,4890 19690,-10740 9570,-17490 -420,-260 -880,-530 -1340,-730l-16510 -7430 -20140 -8890c-10880,-4660 -19620,10210 -9650,17410 530,350 1070,670 1670,920l19970 8820 16430 7390zm-91410 -39670c3210,1380 7110,840 9880,-1280 6150,-4700 4850,-14150 -2230,-17190l-16220 -6690 -20910 -8480c-4620,-1760 -9430,-170 -12130,3880 -3430,5440 -1100,12200 4710,14690l20750 8410 16150 6660zm-92590 -36910c10940,4170 19110,-10990 8930,-17780 -580,-360 -1180,-660 -1810,-910 -12490,-4780 -25000,-9490 -37540,-14130 -2230,-850 -4390,-760 -6640,-90 -8930,3130 -9090,15490 -260,18860l17990 6710 19330 7340zm-93570 -34420c12640,4020 18960,-14160 6610,-18870 -12600,-4430 -25200,-8820 -37830,-13170 -11420,-3640 -18470,11660 -8420,18010 620,360 1270,690 1950,910 12580,4330 25140,8700 37690,13120zm-94430 -32130c3420,1080 7030,340 9710,-2010 5780,-5050 3820,-14670 -3510,-17000 -12700,-4170 -25420,-8270 -38150,-12320 -1640,-520 -3520,-620 -5200,-220 -10000,2380 -10440,16220 -800,19290l16930 5420 21020 6840zm-95130 -30040c9850,3130 17950,-9680 9110,-17410 -1060,-810 -2020,-1320 -3310,-1730 -12770,-3890 -25580,-7720 -38390,-11500 -7370,-2010 -14030,4120 -12600,11640 670,3500 3530,6610 6980,7550 12750,3760 25490,7580 38210,11450zm-95740 -28080c10480,2860 17350,-10530 9010,-17390 -1110,-850 -2200,-1480 -3580,-1850 -12850,-3650 -25730,-7230 -38610,-10760 -11370,-3100 -18110,13080 -6800,18730 510,230 1020,420 1550,560 12820,3520 25640,7080 38430,10710zm-96260 -26250c10910,2980 17820,-12370 7350,-18430 -780,-410 -1450,-680 -2280,-910 -12920,-3410 -25860,-6760 -38800,-10060 -10010,-2730 -17540,10730 -8180,17890 1110,740 2000,1150 3280,1500 12890,3260 25770,6620 38630,10010zm-96730 -24540c11330,2580 17270,-12640 7240,-18440 -820,-440 -1620,-790 -2510,-990 -12970,-3170 -25950,-6290 -38930,-9390 -4180,-950 -8320,730 -10650,4220 -3840,5760 -650,13720 6040,15240 12940,3090 25880,6200 38810,9360zm-97130 -22920c10970,2490 17220,-12610 7040,-18510 -940,-460 -1630,-770 -2640,-1000 -13020,-2950 -26040,-5880 -39080,-8760 -10560,-2400 -16990,11890 -7560,18170 1100,680 2040,1080 3280,1360 13000,2880 25980,5790 38960,8740zm-97500 -21400c2330,530 4520,110 6640,-890 8300,-4380 6720,-16570 -2520,-18670 -13060,-2770 -26130,-5480 -39200,-8170 -2210,-510 -4470,-110 -6480,850 -8460,4450 -6870,16610 2460,18730 13040,2700 26070,5390 39100,8150zm-97800 -19930c11240,2040 16850,-13240 6260,-18820 -820,-370 -1580,-650 -2450,-810 -13100,-2560 -26210,-5110 -39320,-7590 -11570,-2110 -16730,14090 -5810,19000 710,280 1350,500 2110,640 13080,2490 26140,5030 39210,7580zm-98100 -18540c11040,2010 16670,-13290 6230,-18790 -940,-420 -1670,-700 -2680,-880 -13130,-2390 -26270,-4740 -39410,-7060 -11290,-2050 -16730,14060 -5630,19050 750,300 1390,500 2180,640 13110,2320 26210,4660 39310,7040zm-98350 -17200c11210,1950 16490,-13900 5830,-18950 -860,-380 -1620,-600 -2530,-770 -13160,-2220 -26330,-4380 -39500,-6530 -10470,-1820 -16430,12510 -6550,18550 1180,620 2050,950 3350,1180 13140,2150 26270,4310 39400,6520zm-98560 -15920c12900,1690 16100,-16940 3430,-19690 -13210,-2270 -26690,-4090 -39960,-6100 -12740,-1660 -16110,16820 -3460,19690 13190,2290 26720,4050 39990,6100zm-98770 -14670c11450,1500 16070,-14260 5300,-19100 -810,-330 -1610,-580 -2480,-690 -13220,-1870 -26450,-3740 -39670,-5550 -4630,-600 -8930,1970 -10650,6260 -2400,5990 1610,12730 7970,13560 13170,1880 26360,3660 39530,5520zm-98910 -13460c11500,1500 16020,-14990 4620,-19340 -690,-240 -1370,-400 -2090,-490l-39690 -5070c-11120,-1450 -15960,14260 -5150,19130 910,360 1690,580 2670,710l39640 5060zm-99110 -12300c2340,310 4780,-320 6730,-1620 7680,-5420 4830,-17030 -4390,-18230l-39770 -4610c-4980,-430 -9110,2290 -10680,7010 -1760,6130 2140,12040 8430,12860l39680 4590zm-99230 -11150c12530,1090 15480,-16910 3000,-19750l-890 -130c-13260,-1420 -26540,-2790 -39810,-4160 -8830,-770 -14260,9070 -8870,16120 1570,2060 4200,3540 6840,3770 13250,1370 26490,2740 39730,4150zm-99350 -10040c11750,1020 15450,-15660 3880,-19510 -670,-190 -1300,-330 -1990,-390 -13280,-1280 -26570,-2510 -39860,-3720 -11950,-1040 -15330,16230 -3490,19610 590,130 1080,250 1690,300 13260,1210 26520,2440 39770,3710zm-99450 -8960c11330,990 15300,-15140 4240,-19360 -860,-300 -1660,-480 -2580,-560l-39890 -3290c-11230,-980 -15330,15130 -4160,19380 860,300 1670,470 2580,550 13270,1070 26540,2160 39810,3280zm-99540 -7890c10550,920 15430,-14060 4600,-19190 -1100,-430 -1990,-650 -3160,-750 -13310,-980 -26620,-1950 -39930,-2870 -2420,-110 -4340,400 -6350,1740 -7720,5450 -4530,17380 5000,18200l39840 2870zm-99650 -6850c12810,560 14710,-18140 1650,-19920 -13350,-1080 -26950,-1680 -40340,-2480 -12770,-560 -14600,18150 -1690,19910 13330,1110 26990,1650 40380,2490zm-99690 -5810c11630,500 14660,-15820 3580,-19510 -860,-250 -1620,-420 -2530,-460l-39980 -2050c-4540,-190 -8470,2560 -9950,6790 -2100,6280 2370,12890 8990,13180l39890 2050zm-99740 -4810c11020,480 14720,-15030 3890,-19360 -1030,-370 -1950,-570 -3060,-620l-39980 -1650c-11600,-500 -14680,16460 -2780,19700 660,160 1300,250 2000,280l39930 1650zm-99810 -3800c2930,120 5900,-1180 7790,-3340 5620,-6420 1350,-16280 -7130,-16650 -13340,-440 -26680,-850 -40020,-1240 -10410,-460 -14660,14230 -4260,19160 1310,530 2280,760 3700,820 13310,400 26620,800 39920,1250zm-99810 -2820c12670,0 13850,-18230 1380,-19930l-950 -60 -40030 -860c-12540,0 -13940,18210 -1240,19940 13290,800 27420,610 40840,910zm-99870 -1840c3810,0 7210,-1990 8970,-5330 3470,-6590 -1310,-14660 -8710,-14660l-40030 -460c-12380,0 -13860,18200 -1190,19930l1020 60 39940 460z"/>
   <path class="fil0" d="M4581260 2392730l-5360 510 -5350 530c-2060,200 -4020,-470 -5510,-1690 -1490,-1230 -1520,-3400 -2720,-5080l-37550 -52570 26720 -58820c850,-1890 460,-4020 1680,-5510 1230,-1490 3020,-2520 5090,-2720l5350 -520 5360 -520c2060,-200 4020,460 5510,1690 1490,1220 3570,3190 2710,5080l-26710 58820 37550 52570c1200,1680 -460,4020 -1690,5510 -1230,1490 -3020,2510 -5080,2720z"/>
   <path class="fil0" d="M2422300 2398330l-5310 -860 -5310 -850c-2050,-340 -3770,-1470 -4900,-3040 -1130,-1560 -600,-3670 -1340,-5600l-22980 -60380 40770 -50110c1300,-1610 1460,-3770 3030,-4900 1560,-1130 3560,-1670 5610,-1340l5310 850 5310 860c2040,330 3770,1460 4900,3030 1130,1560 2650,3990 1340,5600l-40770 50120 22980 60370c740,1940 -1470,3780 -3030,4910 -1570,1130 -3560,1660 -5610,1340z"/>
   <path class="fil0" d="M6374810 459790l4530 2920 4520 2910c1740,1120 2860,2860 3270,4740 410,1890 -920,3610 -1020,5680l-3180 64520 -57440 29550c-1840,950 -2860,2870 -4740,3270 -1890,410 -3930,100 -5680,-1020l-4520 -2910 -4520 -2920c-1740,-1120 -2870,-2850 -3280,-4740 -400,-1890 -820,-4720 1030,-5670l57440 -29550 3180 -64530c100,-2060 2850,-2860 4740,-3270 1890,-410 3930,-100 5670,1020z"/>
   <path class="fil0" d="M6314800 1824670l-4520 2910 -4520 2910c-1750,1120 -2870,2860 -3280,4750 -410,1880 920,3600 1020,5670l3180 64520 57450 29550c1830,950 2850,2870 4740,3270 1880,410 3930,100 5670,-1020l4520 -2910 4520 -2920c1750,-1120 2870,-2850 3280,-4740 410,-1880 820,-4720 -1020,-5670l-57450 -29550 -3170 -64520c-110,-2070 -2860,-2870 -4750,-3280 -1880,-410 -3930,-100 -5670,1030z"/>
  </g>
 </g>
</svg>
