<?xml version="1.0" encoding="UTF-8"?>
<!DOCTYPE svg PUBLIC "-//W3C//DTD SVG 1.1//EN" "http://www.w3.org/Graphics/SVG/1.1/DTD/svg11.dtd">
<!-- Creator: CorelDRAW 2017 -->
<svg xmlns="http://www.w3.org/2000/svg" xml:space="preserve" width="678px" height="13px" version="1.1" style="shape-rendering:geometricPrecision; text-rendering:geometricPrecision; image-rendering:optimizeQuality; fill-rule:evenodd; clip-rule:evenodd"
viewBox="0 0 6422480 120310"
 xmlns:xlink="http://www.w3.org/1999/xlink">
 <defs>
  <style type="text/css">
   <![CDATA[
    .fil1 {fill:#F6BF4A}
    .fil0 {fill:#F6BF4A;fill-rule:nonzero}
   ]]>
  </style>
 </defs>
 <g id="Layer_x0020_1">
  <metadata id="CorelCorpID_0Corel-Layer"/>
  <g id="_1626156830112">
   <path class="fil0" d="M9450 50680c-10470,0 -13370,14830 -2880,18500 1000,290 1820,450 2880,450l37890 0c10470,0 13370,-14830 2870,-18500 -990,-290 -1810,-450 -2870,-450l-37890 0zm6403550 18950c5400,0 9700,-4500 9470,-9900 -220,-5050 -4400,-9050 -9470,-9050l-37890 0c-10470,0 -13370,14830 -2870,18500 990,290 1810,450 2870,450l37890 0zm-132610 0c5400,0 9690,-4500 9460,-9900 -220,-5050 -4400,-9050 -9460,-9050l-37890 0c-10470,0 -13370,14830 -2880,18500 1000,290 1810,450 2880,450l37890 0zm-132620 0c5400,0 9690,-4500 9460,-9900 -220,-5050 -4400,-9050 -9460,-9050l-37890 0c-10470,0 -13370,14830 -2880,18500 1000,290 1820,450 2880,450l37890 0zm-132620 0c5400,0 9700,-4500 9460,-9900 -220,-5050 -4390,-9050 -9460,-9050l-37890 0c-10470,0 -13370,14830 -2870,18500 990,290 1810,450 2870,450l37890 0zm-132620 0c5400,0 9700,-4500 9460,-9900 -220,-5050 -4390,-9050 -9460,-9050l-37890 0c-10470,0 -13370,14830 -2870,18500 990,290 1810,450 2870,450l37890 0zm-132620 0c5400,0 9700,-4500 9470,-9900 -220,-5050 -4400,-9050 -9470,-9050l-37890 0c-10470,0 -13370,14830 -2870,18500 990,290 1810,450 2870,450l37890 0zm-132610 0c5400,0 9690,-4500 9460,-9900 -220,-5050 -4400,-9050 -9460,-9050l-37900 0c-10460,0 -13360,14830 -2870,18500 1000,290 1810,450 2870,450l37900 0zm-132620 0c5400,0 9690,-4500 9460,-9900 -220,-5050 -4400,-9050 -9460,-9050l-37890 0c-10470,0 -13370,14830 -2880,18500 1000,290 1820,450 2880,450l37890 0zm-132620 0c5400,0 9690,-4500 9460,-9900 -220,-5050 -4390,-9050 -9460,-9050l-37890 0c-10470,0 -13370,14830 -2870,18500 990,290 1810,450 2870,450l37890 0zm-132620 0c5400,0 9700,-4500 9460,-9900 -220,-5050 -4390,-9050 -9460,-9050l-37890 0c-10470,0 -13370,14830 -2870,18500 990,290 1810,450 2870,450l37890 0zm-132620 0c5400,0 9700,-4500 9470,-9900 -230,-5050 -4400,-9050 -9470,-9050l-37890 0c-10470,0 -13370,14830 -2870,18500 990,290 1810,450 2870,450l37890 0zm-132620 0c5400,0 9700,-4500 9470,-9900 -220,-5050 -4400,-9050 -9470,-9050l-37890 0c-10460,0 -13360,14830 -2870,18500 990,290 1810,450 2870,450l37890 0zm-132610 0c5400,0 9690,-4500 9460,-9900 -220,-5050 -4400,-9050 -9460,-9050l-37890 0c-10470,0 -13370,14830 -2880,18500 1000,290 1820,450 2880,450l37890 0zm-132620 0c5400,0 9690,-4500 9460,-9900 -220,-5050 -4390,-9050 -9460,-9050l-37890 0c-10470,0 -13370,14830 -2880,18500 1000,290 1820,450 2880,450l37890 0zm-132620 0c5400,0 9700,-4500 9460,-9900 -220,-5050 -4390,-9050 -9460,-9050l-37890 0c-10470,0 -13370,14830 -2870,18500 990,290 1810,450 2870,450l37890 0zm-132620 0c5400,0 9700,-4500 9460,-9900 -220,-5050 -4390,-9050 -9460,-9050l-37890 0c-10470,0 -13370,14830 -2870,18500 990,290 1810,450 2870,450l37890 0zm-132620 0c5400,0 9700,-4500 9470,-9900 -220,-5050 -4400,-9050 -9470,-9050l-37890 0c-10470,0 -13370,14830 -2870,18500 990,290 1810,450 2870,450l37890 0zm-132610 0c5400,0 9690,-4500 9460,-9900 -220,-5050 -4400,-9050 -9460,-9050l-37890 0c-10470,0 -13370,14830 -2880,18500 1000,290 1810,450 2880,450l37890 0zm-132620 0c5400,0 9690,-4500 9460,-9900 -220,-5050 -4400,-9050 -9460,-9050l-37890 0c-10470,0 -13370,14830 -2880,18500 1000,290 1820,450 2880,450l37890 0zm-132620 0c5400,0 9700,-4500 9460,-9900 -220,-5050 -4390,-9050 -9460,-9050l-37890 0c-10470,0 -13370,14830 -2870,18500 990,290 1810,450 2870,450l37890 0zm-132620 0c5400,0 9700,-4500 9460,-9900 -220,-5050 -4390,-9050 -9460,-9050l-37890 0c-10470,0 -13370,14830 -2870,18500 990,290 1810,450 2870,450l37890 0zm-132620 0c5400,0 9700,-4500 9470,-9900 -220,-5050 -4400,-9050 -9470,-9050l-37890 0c-10470,0 -13370,14830 -2870,18500 990,290 1810,450 2870,450l37890 0zm-132610 0c5400,0 9690,-4500 9460,-9900 -220,-5050 -4400,-9050 -9460,-9050l-37900 0c-10460,0 -13360,14830 -2870,18500 1000,290 1810,450 2870,450l37900 0zm-132620 0c5400,0 9690,-4500 9460,-9900 -220,-5050 -4400,-9050 -9460,-9050l-37890 0c-10470,0 -13370,14830 -2880,18500 1000,290 1820,450 2880,450l37890 0zm-132620 0c5400,0 9690,-4500 9460,-9900 -220,-5050 -4390,-9050 -9460,-9050l-37890 0c-10470,0 -13370,14830 -2870,18500 990,290 1810,450 2870,450l37890 0zm-132620 0c10470,0 13370,-14830 2870,-18500 -990,-290 -1810,-450 -2870,-450l-37890 0c-10470,0 -13370,14830 -2870,18500 990,290 1810,450 2870,450l37890 0zm-132620 0c10470,0 13370,-14830 2880,-18500 -1000,-290 -1820,-450 -2880,-450l-37890 0c-10470,0 -13370,14830 -2870,18500 990,290 1810,450 2870,450l37890 0zm-132620 0c10470,0 13370,-14830 2880,-18500 -1000,-290 -1810,-450 -2880,-450l-37880 0c-10470,0 -13370,14830 -2880,18500 1000,290 1820,450 2880,450l37880 0zm-132610 0c10470,0 13370,-14830 2870,-18500 -990,-290 -1810,-450 -2870,-450l-37890 0c-10470,0 -13370,14830 -2870,18500 990,290 1810,450 2870,450l37890 0zm-132620 0c10470,0 13370,-14830 2870,-18500 -990,-290 -1810,-450 -2870,-450l-37890 0c-10470,0 -13370,14830 -2870,18500 990,290 1810,450 2870,450l37890 0zm-132620 0c10470,0 13370,-14830 2880,-18500 -1000,-290 -1820,-450 -2880,-450l-37890 0c-10470,0 -13370,14830 -2870,18500 990,290 1810,450 2870,450l37890 0zm-132610 0c10460,0 13360,-14830 2870,-18500 -1000,-290 -1810,-450 -2870,-450l-37900 0c-10460,0 -13360,14830 -2870,18500 990,290 1810,450 2870,450l37900 0zm-132620 0c10470,0 13370,-14830 2870,-18500 -990,-290 -1810,-450 -2870,-450l-37890 0c-10470,0 -13370,14830 -2880,18500 1000,290 1820,450 2880,450l37890 0zm-132620 0c10470,0 13370,-14830 2870,-18500 -990,-290 -1810,-450 -2870,-450l-37890 0c-10470,0 -13370,14830 -2880,18500 1000,290 1820,450 2880,450l37890 0zm-132620 0c10470,0 13370,-14830 2870,-18500 -990,-290 -1810,-450 -2870,-450l-37890 0c-10470,0 -13370,14830 -2870,18500 990,290 1810,450 2870,450l37890 0zm-132620 0c10470,0 13370,-14830 2880,-18500 -1000,-290 -1820,-450 -2880,-450l-37890 0c-10470,0 -13370,14830 -2870,18500 990,290 1810,450 2870,450l37890 0zm-132620 0c10470,0 13370,-14830 2880,-18500 -1000,-290 -1820,-450 -2880,-450l-37890 0c-10470,0 -13370,14830 -2870,18500 990,290 1810,450 2870,450l37890 0zm-132610 0c10470,0 13360,-14830 2870,-18500 -990,-290 -1810,-450 -2870,-450l-37890 0c-10470,0 -13370,14830 -2880,18500 1000,290 1810,450 2880,450l37890 0zm-132620 0c10470,0 13370,-14830 2870,-18500 -990,-290 -1810,-450 -2870,-450l-37890 0c-10470,0 -13370,14830 -2880,18500 1000,290 1820,450 2880,450l37890 0zm-132620 0c10470,0 13370,-14830 2870,-18500 -990,-290 -1810,-450 -2870,-450l-37890 0c-10470,0 -13370,14830 -2870,18500 990,290 1810,450 2870,450l37890 0zm-132620 0c10470,0 13370,-14830 2870,-18500 -990,-290 -1810,-450 -2870,-450l-37890 0c-10470,0 -13370,14830 -2870,18500 990,290 1810,450 2870,450l37890 0zm-132620 0c10470,0 13370,-14830 2880,-18500 -1000,-290 -1820,-450 -2880,-450l-37890 0c-10470,0 -13370,14830 -2870,18500 990,290 1810,450 2870,450l37890 0zm-132610 0c10460,0 13360,-14830 2870,-18500 -990,-290 -1810,-450 -2870,-450l-37900 0c-10460,0 -13360,14830 -2870,18500 1000,290 1810,450 2870,450l37900 0zm-132620 0c10470,0 13370,-14830 2870,-18500 -990,-290 -1810,-450 -2870,-450l-37890 0c-10470,0 -13370,14830 -2880,18500 1000,290 1820,450 2880,450l37890 0zm-132620 0c10470,0 13370,-14830 2870,-18500 -990,-290 -1810,-450 -2870,-450l-37890 0c-10470,0 -13370,14830 -2870,18500 990,290 1810,450 2870,450l37890 0zm-132620 0c10470,0 13370,-14830 2870,-18500 -990,-290 -1810,-450 -2870,-450l-37890 0c-10470,0 -13370,14830 -2870,18500 990,290 1810,450 2870,450l37890 0zm-132620 0c10470,0 13370,-14830 2880,-18500 -1000,-290 -1820,-450 -2880,-450l-37890 0c-10470,0 -13370,14830 -2870,18500 990,290 1810,450 2870,450l37890 0zm-132620 0c10470,0 13370,-14830 2880,-18500 -1000,-290 -1810,-450 -2880,-450l-37890 0c-10460,0 -13360,14830 -2870,18500 990,290 1810,450 2870,450l37890 0z"/>
   <path class="fil1" d="M2023920 0l5100 0 5100 0c1960,0 3750,810 5040,2100 1290,1290 1120,3340 2100,5040l30580 53020 -30580 53010c-980,1700 -810,3750 -2100,5040 -1290,1290 -3080,2100 -5040,2100l-5100 0 -5100 0c-1960,0 -3740,-810 -5040,-2100 -1290,-1290 -3070,-3340 -2090,-5040l30580 -53010 -30580 -53020c-980,-1700 800,-3750 2090,-5040 1300,-1290 3080,-2100 5040,-2100z"/>
   <path class="fil1" d="M4050710 0l5100 0 5090 0c1970,0 3750,810 5050,2100 1290,1290 1110,3340 2090,5040l30590 53020 -30590 53010c-980,1700 -800,3750 -2090,5040 -1300,1290 -3080,2100 -5050,2100l-5090 0 -5100 0c-1960,0 -3750,-810 -5040,-2100 -1290,-1290 -3080,-3340 -2100,-5040l30580 -53010 -30580 -53020c-980,-1700 810,-3750 2100,-5040 1290,-1290 3080,-2100 5040,-2100z"/>
  </g>
 </g>
</svg>
