<?xml version="1.0" encoding="UTF-8"?>
<!DOCTYPE svg PUBLIC "-//W3C//DTD SVG 1.1//EN" "http://www.w3.org/Graphics/SVG/1.1/DTD/svg11.dtd">
<!-- Creator: CorelDRAW 2017 -->
<svg xmlns="http://www.w3.org/2000/svg" xml:space="preserve" width="1478px" height="626px" version="1.1" style="shape-rendering:geometricPrecision; text-rendering:geometricPrecision; image-rendering:optimizeQuality; fill-rule:evenodd; clip-rule:evenodd"
viewBox="0 0 14632280 6196120"
 xmlns:xlink="http://www.w3.org/1999/xlink">
 <defs>
  <style type="text/css">
   <![CDATA[
    .fil5 {fill:#006633}
    .fil4 {fill:#151136}
    .fil0 {fill:#2F286C}
    .fil2 {fill:#474366}
    .fil3 {fill:#79768F}
    .fil1 {fill:url(#id0)}
   ]]>
  </style>
  <linearGradient id="id0" gradientUnits="userSpaceOnUse" x1="8383880" y1="3759590" x2="8383880" y2="-178420">
   <stop offset="0" style="stop-opacity:1; stop-color:#2F286C"/>
   <stop offset="1" style="stop-opacity:1; stop-color:#275A94"/>
  </linearGradient>
 </defs>
 <g id="PowerClip_x0020_Contents">
  <metadata id="CorelCorpID_0Corel-Layer"/>
  <g id="_2107378946896">
   <rect class="fil0" width="14632280" height="6196120"/>
   <polygon class="fil1" points="0,1539340 0,4207850 14632280,4207850 14632280,1539340 14349780,1539420 14342740,2669980 14163790,2669390 14163790,2431820 13652190,2431820 13652190,2667680 13429580,2666940 13433980,1617840 12843420,1617220 12846800,2469730 12449160,2482100 12451420,2024080 11885680,2025190 11889190,2170610 11691420,2171360 11691360,2462320 11610650,2461150 11612350,1848120 11126730,1844600 11126730,1381900 10298710,1381900 10298710,1901480 9574770,1898230 9566240,1050270 9470680,1050920 9470680,885150 9211930,885150 9211930,1052670 8736150,1055900 8716720,2722980 8070600,2715120 8005170,1146690 7363460,1139700 7375180,2103590 7343610,2103640 7347700,1974550 7163410,1975840 7162820,1836680 6551910,1832100 6553430,1983740 6362650,1989090 6365470,2128880 6274300,2129130 6266940,2931790 5931330,2931400 5931940,3224740 5350260,3216290 5348880,2725950 5252000,2726870 5255060,2596380 5098790,2599670 5098750,2469220 4423990,2473830 4424090,2596070 4290040,2598980 4288720,2754630 4190280,2759610 4186950,2956680 3804630,2962090 3810160,2787440 3488280,2790060 3488050,3051310 3129070,3056610 3123910,2728650 2830260,2724250 2789750,1625440 2263970,1625440 2248110,3134260 1953070,3132190 1932780,2441060 1855140,2438050 1853670,2147040 1679020,2150130 1679670,2026730 1057200,2035280 1054560,2161090 874060,2165710 873350,2453100 713140,2456690 713940,1848230 289100,1846040 279400,1539340 "/>
   <rect class="fil2" y="4376970" width="14632280" height="1819150"/>
   <g>
    <rect class="fil3" transform="matrix(0.652707 -0 -0.268704 1 53213.3 5.4959E+06)" width="3535500" height="198040"/>
    <rect class="fil3" transform="matrix(0.652707 -0 -0.268704 1 4.02231E+06 5.4959E+06)" width="3535500" height="198040"/>
    <rect class="fil3" transform="matrix(0.652707 -0 -0.268704 1 7.99142E+06 5.4959E+06)" width="3535500" height="198040"/>
    <rect class="fil3" transform="matrix(0.652707 -0 -0.268704 1 1.19605E+07 5.4959E+06)" width="3535500" height="198040"/>
   </g>
   <g>
    <polygon class="fil3" points="0,4376970 613820,4376970 680010,4207850 0,4207850 "/>
    <polygon class="fil4" points="1398430,4376970 613820,4376970 680010,4207850 1464620,4207850 "/>
    <polygon class="fil3" points="1398430,4376970 2183050,4376970 2249240,4207850 1464620,4207850 "/>
    <polygon class="fil4" points="2967660,4376970 2183050,4376970 2249240,4207850 3033850,4207850 "/>
    <polygon class="fil4" points="4536890,4376970 3752280,4376970 3818460,4207850 4603080,4207850 "/>
    <polygon class="fil4" points="6106120,4376970 5321510,4376970 5387700,4207850 6172310,4207850 "/>
    <polygon class="fil4" points="7675350,4376970 6890740,4376970 6956920,4207850 7741540,4207850 "/>
    <polygon class="fil4" points="9244580,4376970 8459970,4376970 8526150,4207850 9310770,4207850 "/>
    <polygon class="fil4" points="10813810,4376970 10029200,4376970 10095380,4207850 10880000,4207850 "/>
    <polygon class="fil4" points="12383040,4376970 11598430,4376970 11664610,4207850 12449230,4207850 "/>
    <polygon class="fil4" points="13952270,4376970 13167660,4376970 13233840,4207850 14018460,4207850 "/>
    <polygon class="fil3" points="2967660,4376970 3752280,4376970 3818460,4207850 3033850,4207850 "/>
    <polygon class="fil3" points="4536890,4376970 5321510,4376970 5387700,4207850 4603080,4207850 "/>
    <polygon class="fil3" points="6106120,4376970 6890740,4376970 6956920,4207850 6172310,4207850 "/>
    <polygon class="fil3" points="7675350,4376970 8459970,4376970 8526160,4207850 7741540,4207850 "/>
    <polygon class="fil3" points="9244580,4376970 10029200,4376970 10095380,4207850 9310770,4207850 "/>
    <polygon class="fil3" points="10813810,4376970 11598430,4376970 11664610,4207850 10880000,4207850 "/>
    <polygon class="fil3" points="12383040,4376970 13167660,4376970 13233840,4207850 12449230,4207850 "/>
    <polygon class="fil3" points="13952270,4376970 14632280,4376970 14632280,4207850 14018460,4207850 "/>
   </g>
   <path class="fil5" d="M10639920 3292600c10150,61050 16530,121680 13630,181720 -1099490,46810 -2364620,222160 -2920650,-52720 -582750,-288080 -518330,75290 -1000240,65780 -59390,-1170 -118030,-90 -175680,2900 140,-38230 1920,-78250 -560,-110540 16990,7150 35660,11100 55260,11100 78820,0 142720,-63900 142720,-142730 0,-66830 -45930,-122920 -107940,-138450 1560,-7980 2400,-16230 2400,-24670 0,-70220 -56920,-127140 -127140,-127140 -70220,0 -127140,56920 -127140,127140 0,1470 40,2940 90,4400 -60430,13380 -105630,67270 -105630,131730 0,61450 41080,113300 97270,129600 1890,29760 26620,53310 56850,53310 7100,0 13890,-1310 20160,-3680 5340,32070 9170,63970 9830,95650 -625440,52470 -1118970,315590 -1179970,318150 -331900,13900 -708610,-35640 -1126640,-99060 -1620,-4270 -2750,-9000 -3290,-14250 -8250,-80520 1670,-187030 -4310,-264770 26440,11120 55490,17270 85980,17270 122660,0 222100,-99440 222100,-222100 0,-103990 -71480,-191270 -167970,-215440 2440,-12410 3730,-25250 3730,-38380 0,-109260 -88570,-197830 -197830,-197830 -109260,0 -197830,88570 -197830,197830 0,2290 50,4580 130,6850 -94040,20820 -164370,104680 -164370,204980 0,95620 63920,176300 151360,201660 2940,46310 41420,82960 88460,82960 11050,0 21620,-2030 31380,-5730 12620,75870 19830,151140 12550,225510 -562600,-86790 -1196270,-188200 -1893300,-191070l-20 -190c-4320,-42210 870,-98030 -2260,-138780 13860,5830 29080,9050 45060,9050 64290,0 116410,-52110 116410,-116400 0,-54510 -37460,-100250 -88040,-112920 1280,-6510 1960,-13230 1960,-20120 0,-57260 -46430,-103680 -103690,-103680 -57260,0 -103690,46420 -103690,103680 0,1200 30,2400 70,3590 -49290,10920 -86150,54870 -86150,107440 0,50110 33500,92400 79330,105690 1550,24270 21710,43480 46370,43480 5790,0 11330,-1060 16440,-3000 6840,41140 10660,81940 6160,122240 -534860,3080 -1106310,65630 -1711070,238120 -46480,31160 -187000,28400 -350210,28220l0 438850 14632280 0 0 -438850c-389740,15110 -601280,-73680 -898740,-73680 -71090,0 -150620,4660 -235110,11540 -730,-43910 2250,-92600 -670,-130600 16990,7150 35660,11100 55260,11100 78820,0 142720,-63900 142720,-142730 0,-66830 -45930,-122920 -107940,-138450 1570,-7980 2400,-16230 2400,-24670 0,-70210 -56920,-127140 -127140,-127140 -70210,0 -127140,56930 -127140,127140 0,1470 40,2940 90,4400 -60430,13380 -105630,67270 -105630,131730 0,61450 41080,113300 97270,129600 1890,29760 26620,53310 56850,53310 7100,0 13890,-1310 20160,-3680 6560,39400 10840,78540 9780,117330 -400760,36990 -881850,103930 -1105950,-35000 -323400,-200500 -893790,-231020 -1532820,-209570 -2460,-67810 3180,-146580 -1450,-206760 24520,10310 51450,16010 79720,16010 113720,0 205900,-92190 205900,-205910 0,-96410 -66260,-177330 -155720,-199730 2260,-11510 3460,-23410 3460,-35590 0,-101290 -82120,-183410 -183410,-183410 -101300,0 -183410,82120 -183410,183410 0,2130 40,4240 120,6350 -87180,19310 -152390,97050 -152390,190040 0,88650 59260,163450 140330,186960 2720,42930 38400,76910 82010,76910 10250,0 20050,-1880 29090,-5310z"/>
  </g>
 </g>
</svg>
