<?xml version="1.0" encoding="UTF-8"?>
<!DOCTYPE svg PUBLIC "-//W3C//DTD SVG 1.1//EN" "http://www.w3.org/Graphics/SVG/1.1/DTD/svg11.dtd">
<!-- Creator: CorelDRAW 2017 -->
<svg xmlns="http://www.w3.org/2000/svg" xml:space="preserve" width="98px" height="98px" version="1.1" style="shape-rendering:geometricPrecision; text-rendering:geometricPrecision; image-rendering:optimizeQuality; fill-rule:evenodd; clip-rule:evenodd"
viewBox="0 0 70170 70170"
 xmlns:xlink="http://www.w3.org/1999/xlink">
 <defs>
  <style type="text/css">
   <![CDATA[
    .fil1 {fill:#F0C342}
    .fil0 {fill:#474366;fill-rule:nonzero}
   ]]>
  </style>
 </defs>
 <g id="Layer_x0020_1">
  <metadata id="CorelCorpID_0Corel-Layer"/>
  <circle class="fil0" cx="35080" cy="35080" r="35080"/>
  <path class="fil1" d="M20290 32180c120,1030 40,18870 30,20880 -20,2150 940,1520 5410,1520l18600 0c1370,0 3330,110 4630,-10 820,-70 900,-580 900,-1400 -10,-2160 -90,-19880 30,-20990 580,290 930,650 1830,670 2460,50 3690,-2670 2310,-4520 -360,-480 -14130,-9750 -15650,-10800 -470,-310 -2820,-2030 -3290,-2030 -520,0 -14150,9430 -15800,10550 -630,430 -2800,1840 -3090,2220 -1520,1970 -130,4550 2140,4580 920,10 1350,-350 1950,-670zm1770 -380l0 21010c1340,130 13060,170 13910,-40 -130,-3300 0,-7540 -10,-11040 -10,-1900 50,-1920 1900,-1920l6350 0c1600,0 1300,860 1300,2270l0 10720 2610 30 0 -21030c0,-1070 200,-700 -1130,-1620 -590,-410 -1140,-760 -1720,-1170 -1000,-690 -9900,-6870 -10180,-6860 -230,0 -11070,7460 -12660,8540 -450,300 -370,460 -370,1110zm13030 -14360l-15630 10620c-550,380 -1970,1180 -2120,1710 -340,1210 920,1670 1920,990 760,-530 1480,-1010 2270,-1550l8920 -6090c610,-420 4160,-2960 4640,-2960 420,0 1920,1100 2300,1360l11200 7640c780,550 1450,980 2190,1500 1000,690 2340,520 2070,-790 -140,-720 -3520,-2740 -4260,-3260 -1490,-1050 -2930,-2020 -4450,-3060l-9050 -6110zm-9760 22440c-1000,390 -670,1530 -670,3700 0,5580 -700,4910 3840,4910 5690,0 4850,610 4850,-3760 0,-5610 740,-4920 -3810,-4920 -820,0 -3670,-140 -4210,70zm12440 12950l6010 10 10 -11240 -6030 0 10 11230zm-12630 -22460c-810,480 -480,2400 -480,3390 0,1010 -350,3050 580,3380 490,170 7310,120 7630,-50 780,-420 480,-2320 480,-3330 0,-1000 330,-3100 -510,-3420 -550,-210 -7350,-180 -7700,30zm13070 6830l6000 0c1680,0 1300,-1010 1300,-2520 0,-5000 550,-4420 -3260,-4420 -1310,0 -2620,-10 -3930,0 -950,0 -1430,0 -1490,950l-10 4870c30,930 470,1120 1390,1120zm-11800 -1730l5180 -10 30 -3460 -5230 -10 20 3480zm12160 -10l5170 0 40 -3470 -5220 0 10 3470zm-12180 7820l5230 10 -20 -1750 -5140 10 -70 1730zm20 3490l5150 -10 50 -1740 -5150 0 -50 1750zm11360 6060l-10 -11230 6030 0c-80,-50 -30,-80 -270,-120 -80,-10 -250,-10 -340,-20 -1090,-10 -4990,-60 -5500,90 -140,1040 -40,7800 -40,9880 0,560 -90,1130 130,1400z"/>
 </g>
</svg>
