<?xml version="1.0" encoding="UTF-8"?>
<!DOCTYPE svg PUBLIC "-//W3C//DTD SVG 1.1//EN" "http://www.w3.org/Graphics/SVG/1.1/DTD/svg11.dtd">
<!-- Creator: CorelDRAW 2017 -->
<svg xmlns="http://www.w3.org/2000/svg" xml:space="preserve" width="322px" height="82px" version="1.1" style="shape-rendering:geometricPrecision; text-rendering:geometricPrecision; image-rendering:optimizeQuality; fill-rule:evenodd; clip-rule:evenodd"
viewBox="0 0 3104940 791000"
 xmlns:xlink="http://www.w3.org/1999/xlink">
 <defs>
  <style type="text/css">
   <![CDATA[
    .fil0 {fill:#F0C342}
    .fil2 {fill:white;fill-rule:nonzero}
    .fil1 {fill:url(#id0)}
   ]]>
  </style>
  <linearGradient id="id0" gradientUnits="userSpaceOnUse" x1="1061440" y1="-3500" x2="1061440" y2="728260">
   <stop offset="0" style="stop-opacity:1; stop-color:#F83F83"/>
   <stop offset="1" style="stop-opacity:1; stop-color:#E2056F"/>
  </linearGradient>
 </defs>
 <g id="Layer_x0020_1">
  <metadata id="CorelCorpID_0Corel-Layer"/>
  <g id="_2107421796960">
   <rect class="fil0" x="28960" y="80240" width="3075970" height="710760" rx="230700" ry="140280"/>
   <rect class="fil1" width="3075970" height="710760" rx="230700" ry="140280"/>
   <path class="fil2" d="M420320 404570c0,-7870 -2800,-14240 -8400,-19020 -5600,-4780 -15440,-9320 -29490,-13520 -24520,-7090 -43060,-15490 -55560,-25190 -12550,-9710 -18830,-23030 -18830,-39870 0,-16900 7200,-30710 21580,-41370 14380,-10720 32730,-16080 55080,-16080 22640,0 41080,6040 55270,18050 14240,12020 21140,26850 20660,44460l-290 820 -40020 0c0,-9360 -3190,-16940 -9560,-22780 -6320,-5790 -15250,-8690 -26790,-8690 -11000,0 -19550,2410 -25580,7290 -6030,4880 -9080,11050 -9080,18630 0,6900 3240,12600 9710,17040 6470,4440 17610,9120 33450,14100 22730,6270 39920,14620 51600,25000 11730,10380 17570,23990 17570,40840 0,17620 -6950,31520 -20850,41700 -13950,10190 -32300,15260 -55130,15260 -22400,0 -41990,-5790 -58650,-17330 -16700,-11540 -24810,-27760 -24320,-48560l280 -870 40170 0c0,12260 3710,21240 11190,26930 7540,5700 17960,8550 31330,8550 11250,0 19840,-2320 25780,-6900 5940,-4640 8880,-10770 8880,-18490z"/>
   <polygon id="1" class="fil2" points="635180,284280 576910,284280 576910,458340 535590,458340 535590,284280 477620,284280 477620,252420 635180,252420 "/>
   <path id="2" class="fil2" d="M754550 414030l-72260 0 -14050 44310 -41710 0 70870 -205920 42280 0 70570 205920 -41700 0 -14000 -44310zm-62130 -31860l51940 0 -25480 -81530 -820 0 -25640 81530z"/>
   <path id="3" class="fil2" d="M870790 376090l0 82250 -41320 0 0 -205920 77660 0c23470,0 41860,5360 55080,16070 13230,10670 19890,25640 19890,44750 0,10670 -2800,19840 -8350,27470 -5600,7620 -13710,13800 -24470,18530 12160,3570 20900,9560 26210,17960 5360,8400 8010,18730 8010,31090l0 15150c0,5750 770,11730 2310,18010 1550,6270 4250,10910 8020,13900l0 2990 -42580 0c-3760,-2990 -6220,-8060 -7330,-15110 -1160,-7090 -1740,-13750 -1740,-20080l0 -14580c0,-10230 -2800,-18240 -8400,-23940 -5600,-5690 -13520,-8540 -23700,-8540l-39290 0zm0 -31860l35620 0c11590,0 20270,-2460 25970,-7340 5700,-4920 8540,-12160 8540,-21770 0,-9460 -2840,-16940 -8540,-22490 -5700,-5550 -14140,-8350 -25250,-8350l-36340 0 0 59950z"/>
   <polygon id="4" class="fil2" points="1158870,284280 1100600,284280 1100600,458340 1059290,458340 1059290,284280 1001310,284280 1001310,252420 1158870,252420 "/>
   <path id="5" class="fil2" d="M1365180 404570c0,-7870 -2800,-14240 -8400,-19020 -5600,-4780 -15450,-9320 -29500,-13520 -24520,-7090 -43050,-15490 -55560,-25190 -12550,-9710 -18820,-23030 -18820,-39870 0,-16900 7190,-30710 21580,-41370 14380,-10720 32720,-16080 55070,-16080 22640,0 41080,6040 55270,18050 14240,12020 21140,26850 20660,44460l-290 820 -40010 0c0,-9360 -3190,-16940 -9560,-22780 -6330,-5790 -15260,-8690 -26790,-8690 -11010,0 -19550,2410 -25580,7290 -6040,4880 -9080,11050 -9080,18630 0,6900 3240,12600 9700,17040 6470,4440 17620,9120 33450,14100 22740,6270 39920,14620 51610,25000 11730,10380 17570,23990 17570,40840 0,17620 -6960,31520 -20860,41700 -13950,10190 -32290,15260 -55120,15260 -22400,0 -42000,-5790 -58650,-17330 -16700,-11540 -24810,-27760 -24330,-48560l290 -870 40160 0c0,12260 3720,21240 11200,26930 7530,5700 17960,8550 31330,8550 11250,0 19840,-2320 25770,-6900 5940,-4640 8890,-10770 8890,-18490z"/>
   <path id="6" class="fil2" d="M1593160 388110l290 820c380,22160 -6370,39730 -20270,52760 -13910,13030 -33220,19550 -57930,19550 -24810,0 -44940,-7970 -60390,-23900 -15440,-15930 -23210,-36390 -23210,-61490l0 -40840c0,-24950 7570,-45420 22630,-61450 15110,-16030 34710,-24040 58850,-24040 25440,0 45320,6520 59660,19600 14330,13080 21330,30890 20950,53440l-290 820 -40160 0c0,-13570 -3240,-23950 -9750,-31190 -6520,-7190 -16660,-10810 -30410,-10810 -12360,0 -22160,5020 -29400,15010 -7290,10040 -10910,22790 -10910,38330l0 41030c0,15740 3810,28580 11440,38620 7680,9990 17960,15010 30990,15010 12890,0 22450,-3470 28620,-10380 6180,-6950 9270,-17230 9270,-30890l40020 0z"/>
   <path id="7" class="fil2" d="M1664170 376090l0 82250 -41320 0 0 -205920 77660 0c23470,0 41860,5360 55080,16070 13230,10670 19890,25640 19890,44750 0,10670 -2800,19840 -8350,27470 -5600,7620 -13710,13800 -24470,18530 12160,3570 20900,9560 26210,17960 5360,8400 8010,18730 8010,31090l0 15150c0,5750 770,11730 2320,18010 1540,6270 4250,10910 8010,13900l0 2990 -42580 0c-3760,-2990 -6220,-8060 -7330,-15110 -1160,-7090 -1740,-13750 -1740,-20080l0 -14580c0,-10230 -2800,-18240 -8400,-23940 -5600,-5690 -13520,-8540 -23700,-8540l-39290 0zm0 -31860l35620 0c11590,0 20270,-2460 25970,-7340 5700,-4920 8540,-12160 8540,-21770 0,-9460 -2840,-16940 -8540,-22490 -5700,-5550 -14140,-8350 -25250,-8350l-36340 0 0 59950z"/>
   <path id="8" class="fil2" d="M1979950 373920c0,25240 -7960,46100 -23940,62600 -16020,16460 -36780,24720 -62320,24720 -25340,0 -45950,-8260 -61780,-24720 -15840,-16500 -23750,-37360 -23750,-62600l0 -37080c0,-25150 7870,-46000 23650,-62510 15780,-16550 36400,-24810 61740,-24810 25540,0 46340,8260 62370,24810 16020,16510 24030,37360 24030,62510l0 37080zm-41270 -37460c0,-16120 -4000,-29300 -12020,-39630 -8010,-10290 -19060,-15450 -33110,-15450 -14050,0 -24960,5120 -32680,15400 -7720,10280 -11580,23460 -11580,39680l0 37460c0,16360 3910,29680 11730,40010 7810,10280 18720,15450 32670,15450 14150,0 25200,-5170 33120,-15450 7920,-10330 11870,-23650 11870,-40010l0 -37460z"/>
   <polygon id="9" class="fil2" points="2053520,426480 2145140,426480 2145140,458340 2012200,458340 2012200,252420 2053520,252420 "/>
   <polygon id="10" class="fil2" points="2210210,426480 2301830,426480 2301830,458340 2168890,458340 2168890,252420 2210210,252420 "/>
   <polygon id="11" class="fil2" points="2369460,458340 2328140,458340 2328140,252420 2369460,252420 "/>
   <polygon id="12" class="fil2" points="2577070,458340 2535900,458340 2452770,317630 2451900,317730 2451900,458340 2410580,458340 2410580,252420 2451900,252420 2535080,392980 2535900,392890 2535900,252420 2577070,252420 "/>
   <path id="13" class="fil2" d="M2773780 430150c-6130,8110 -15690,15300 -28630,21630 -12990,6320 -29350,9460 -49140,9460 -25200,0 -45760,-7820 -61690,-23460 -15930,-15640 -23890,-35960 -23890,-60920l0 -42960c0,-24860 7670,-45180 22970,-60870 15350,-15690 35050,-23510 59180,-23510 25110,0 44320,6080 57640,18300 13320,12210 20180,28280 20420,48170l-240 870 -38910 0c-770,-10960 -4250,-19600 -10470,-25920 -6230,-6370 -15310,-9560 -27280,-9560 -12640,0 -22830,4880 -30550,14630 -7730,9700 -11590,22250 -11590,37550l0 43200c0,15600 4010,28290 12020,37990 8010,9750 18780,14630 32390,14630 9610,0 17330,-970 23170,-2940 5840,-1980 10280,-4400 13270,-7290l0 -37850 -36440 0 0 -28670 77770 0 0 77520z"/>
  </g>
 </g>
</svg>
