<?xml version="1.0" encoding="UTF-8"?>
<!DOCTYPE svg PUBLIC "-//W3C//DTD SVG 1.1//EN" "http://www.w3.org/Graphics/SVG/1.1/DTD/svg11.dtd">
<!-- Creator: CorelDRAW 2017 -->
<svg xmlns="http://www.w3.org/2000/svg" xml:space="preserve" width="98px" height="98px" version="1.1" style="shape-rendering:geometricPrecision; text-rendering:geometricPrecision; image-rendering:optimizeQuality; fill-rule:evenodd; clip-rule:evenodd"
viewBox="0 0 60580 60580"
 xmlns:xlink="http://www.w3.org/1999/xlink">
 <defs>
  <style type="text/css">
   <![CDATA[
    .fil1 {fill:#F0C342}
    .fil0 {fill:#474366;fill-rule:nonzero}
    .fil2 {fill:#F0C342;fill-rule:nonzero}
   ]]>
  </style>
 </defs>
 <g id="Layer_x0020_1">
  <metadata id="CorelCorpID_0Corel-Layer"/>
  <circle class="fil0" cx="30290" cy="30290" r="30290"/>
  <g id="_2107378963344">
   <path class="fil1" d="M15810 29650c0,320 -50,14790 20,15140 100,580 510,760 1140,760l26550 0c1560,0 1240,-980 1240,-2570l0 -5690c0,-2520 -60,-5130 0,-7640 550,-130 1530,-970 1840,-1390 170,-220 310,-400 470,-660 260,-450 480,-1010 600,-1600 170,-920 130,-1100 -270,-1790 -1600,-2750 -3150,-5590 -4740,-8350 -390,-680 -400,-830 -1380,-830l-21890 0c-930,0 -1060,80 -1440,770 -530,950 -1050,1870 -1590,2800 -1080,1850 -2110,3720 -3170,5580 -400,700 -460,830 -280,1780 110,610 330,1150 590,1610 140,260 270,420 440,640 380,500 1280,1260 1870,1440zm1850 470l0 13580c290,30 2650,40 2880,-10 -20,-2720 0,-5440 0,-8150 0,-1200 -10,-2350 940,-3160 1050,-890 1660,-810 3290,-810 1570,0 2310,-80 3280,820 890,810 950,1620 950,3150 0,2710 -20,5440 0,8150l13910 10 10 -13590c-1290,30 -2790,-450 -3590,-1280 -270,-270 -360,-320 -590,-620 -20,-20 -80,-100 -80,-100 -10,-10 -30,-40 -40,-50 -70,-70 -10,-20 -80,-60 -100,100 -90,110 -160,200 -60,80 -120,140 -180,220 -140,160 -210,250 -380,380 -340,280 -490,420 -920,660 -1540,850 -3400,890 -4940,10 -700,-400 -800,-570 -1290,-1040 -190,-170 -220,-300 -380,-440 -360,420 -690,820 -1150,1150 -1650,1170 -3680,1300 -5460,320 -900,-490 -1110,-860 -1660,-1480 -300,320 -80,180 -550,620 -290,270 -50,140 -640,570 -180,120 -320,210 -530,330 -940,540 -1500,510 -2640,620zm-2150 -6270l29560 10 -3960 -6980 -21660 10 -3940 6960zm16940 7770c-1310,250 -1980,1270 -1980,2530 0,960 -120,3600 150,4330 210,540 620,970 1030,1210 630,370 1130,340 1910,340 780,0 4010,50 4500,-40 1280,-250 1960,-1290 1960,-2520 10,-990 130,-3580 -150,-4330 -220,-580 -590,-960 -1020,-1230 -580,-350 -1170,-340 -1920,-340 -770,0 -3980,-50 -4480,50zm-10060 12080l4770 0c0,-840 70,-9020 -40,-9440 -260,-990 -1300,-840 -2350,-840 -910,0 -2020,-220 -2330,810 -120,390 -60,8710 -50,9470zm10310 -10250c-400,150 -390,440 -390,920l0 2650c0,1420 50,1170 2820,1170 430,0 2430,40 2670,-30 370,-120 380,-480 380,-920l0 -2650c0,-1420 0,-1170 -2820,-1170 -410,0 -2450,-50 -2660,30zm-11670 -7750l-6280 0c220,1380 1540,2560 3120,2560 890,0 1810,-410 2260,-910 420,-480 750,-810 900,-1650zm16540 0l-6280 0c220,1380 1550,2560 3130,2560 1640,0 2860,-1150 3150,-2560zm-8270 10l-6290 -10c270,1390 1520,2560 3150,2560 1580,0 2920,-1180 3140,-2550zm16540 10l-6290 -20c250,1400 1550,2580 3160,2570 1610,-10 2850,-1170 3130,-2550z"/>
   <path class="fil2" d="M21200 22640c-150,-130 -260,-270 -340,-440 -90,-160 -130,-320 -130,-500l0 0c0,-40 20,-80 40,-120 30,-30 60,-60 100,-80 50,-20 90,-40 140,-40l620 0c10,10 10,10 20,10 0,0 10,0 20,0l20 0c50,20 90,50 130,80 30,40 50,80 50,120l0 70c0,70 20,130 50,200 40,60 90,110 150,160 70,40 140,70 230,90 60,10 120,20 180,20l20 0c20,0 40,0 60,0 10,0 20,0 20,-10l10 0c110,0 200,-30 290,-70 90,-40 150,-100 200,-170 50,-70 80,-140 80,-220l20 -340c-10,-120 -40,-220 -100,-300 -60,-80 -150,-140 -270,-190 -140,-60 -350,-100 -640,-100l-170 -20c-340,-20 -590,-90 -770,-220 -170,-140 -290,-290 -340,-470 -50,-170 -80,-370 -80,-580l10 -240 10 -90c30,-150 60,-270 90,-350 20,-80 60,-150 100,-220 50,-60 120,-130 210,-190 130,-110 300,-190 490,-250 190,-50 400,-80 630,-70l270 0c200,0 400,30 580,90 190,60 350,150 500,260 140,110 250,250 330,400 70,150 110,320 110,480l0 10c0,40 -10,70 -30,100 -20,40 -50,60 -90,80 -40,20 -80,30 -130,30l-600 0c-70,-10 -120,-30 -160,-60 -50,-40 -70,-80 -70,-140l0 -40c0,-70 -10,-130 -50,-190 -40,-60 -90,-110 -150,-150 -70,-40 -140,-70 -220,-90 -60,-20 -110,-20 -180,-20l-70 0c0,0 -20,0 -40,0 -110,10 -200,40 -280,80 -80,40 -150,90 -190,150 -50,70 -70,140 -70,220l0 390c10,90 50,160 110,220 70,50 160,80 290,110 120,20 280,40 490,40 510,30 900,160 1150,380 250,220 380,540 380,960 0,120 -10,240 -20,350 -20,110 -50,220 -100,350 -50,120 -120,230 -210,340 -150,170 -350,310 -580,410 -230,100 -470,150 -730,150l-270 0c-210,0 -410,-30 -600,-100 -200,-70 -370,-160 -520,-280zm4380 120l0 -3810 -710 0c-70,0 -130,-20 -180,-50 -50,-30 -70,-70 -70,-120l0 -460c0,-50 20,-90 70,-120 50,-30 110,-40 180,-40l2550 0c40,0 90,10 120,20 40,20 70,40 100,60 20,30 30,50 30,80l0 460c0,30 -10,60 -30,80 -30,30 -60,50 -100,60 -30,20 -80,30 -120,30l-740 0 0 3810c0,60 -20,100 -70,140 -40,30 -90,50 -160,50l-650 0c-30,0 -70,-10 -100,-30 -40,-10 -70,-40 -90,-60 -20,-30 -30,-60 -30,-100zm2780 -430c-150,-210 -220,-430 -220,-670l0 -2250c0,-160 30,-310 100,-460 70,-140 160,-270 290,-390 120,-120 270,-210 440,-290 250,-120 530,-170 840,-170l290 0c200,0 390,20 570,80 180,50 350,120 500,220 150,100 280,210 370,340 150,190 220,410 220,660l10 2260c0,150 -40,310 -100,450 -70,150 -170,280 -290,400 -130,120 -280,220 -450,300 -250,130 -530,190 -820,190l-290 0c-200,0 -390,-30 -580,-80 -180,-60 -350,-140 -500,-240 -150,-100 -280,-220 -380,-350zm1600 -140c120,0 230,-30 340,-80 100,-50 190,-120 250,-210 60,-80 90,-170 90,-270l0 -2240c0,-90 -30,-180 -90,-260 -60,-80 -150,-150 -250,-190 -110,-50 -220,-70 -350,-70l-30 0c-120,0 -240,20 -350,70 -100,40 -190,110 -250,190 -60,80 -100,170 -100,260l0 2240c0,100 40,190 100,270 60,90 150,160 250,210 110,50 230,80 350,80l40 0zm2580 600l0 -4420c0,-40 10,-70 30,-100 20,-30 50,-50 90,-70 30,-20 70,-30 120,-30l1710 0c260,10 500,50 700,130 200,80 360,200 470,340 110,140 170,310 170,490l0 840c0,110 -30,210 -80,320 -50,100 -130,190 -230,280 -90,80 -210,150 -330,200l0 20 880 2010c0,0 0,20 0,50 0,20 -10,50 -40,70 -30,20 -70,30 -120,30l-760 0c-40,0 -70,-10 -110,-20 -40,-20 -80,-40 -110,-60 -30,-20 -50,-50 -60,-70l-700 -1710c-80,-30 -150,-50 -220,-50 -100,0 -180,30 -240,80l0 1670c0,50 -20,80 -70,110 -40,30 -100,50 -160,50l-700 0c-70,0 -130,-20 -170,-50 -50,-30 -70,-60 -70,-110zm1690 -2580c90,0 170,-10 240,-50 80,-30 140,-70 180,-130 40,-50 70,-110 70,-180l0 -620c0,-70 -30,-130 -70,-190 -40,-60 -100,-100 -180,-140 -70,-30 -150,-50 -240,-50l-480 0c-30,0 -60,10 -80,30 -20,20 -30,40 -30,70l0 1150c0,30 10,50 40,80 30,20 60,30 100,30l450 0zm2570 2540l0 -4420c0,-50 30,-90 70,-130 40,-30 100,-50 170,-50l2570 0c60,0 120,20 170,50 40,40 60,80 60,130l0 470c0,40 -10,70 -30,100 -20,30 -50,50 -80,60 -40,20 -80,30 -120,30l-1760 0 0 1040 1330 0c70,0 120,20 160,50 40,30 60,70 60,120l0 480c0,50 -20,100 -60,130 -40,30 -90,40 -160,40l-1330 0 0 1250 1760 0c60,0 120,20 170,50 40,40 60,80 60,130l0 470c0,40 -10,70 -30,100 -20,20 -50,50 -80,60 -40,20 -80,30 -120,30l-2570 0c-70,0 -120,-20 -170,-60 -40,-30 -70,-80 -70,-130z"/>
  </g>
 </g>
</svg>
