<?xml version="1.0" encoding="UTF-8"?>
<!DOCTYPE svg PUBLIC "-//W3C//DTD SVG 1.1//EN" "http://www.w3.org/Graphics/SVG/1.1/DTD/svg11.dtd">
<!-- Creator: CorelDRAW 2017 -->
<svg xmlns="http://www.w3.org/2000/svg" xml:space="preserve" width="2.66642in" height="2.66642in" version="1.1" style="shape-rendering:geometricPrecision; text-rendering:geometricPrecision; image-rendering:optimizeQuality; fill-rule:evenodd; clip-rule:evenodd"
viewBox="0 0 2180 2180"
 xmlns:xlink="http://www.w3.org/1999/xlink">
 <defs>
  <style type="text/css">
   <![CDATA[
    .fil9 {fill:none}
    .fil2 {fill:black}
    .fil3 {fill:#14B9A1}
    .fil1 {fill:#CCCCCC}
    .fil6 {fill:#FECB4C}
    .fil5 {fill:#FF6633}
    .fil4 {fill:#FF9933}
    .fil0 {fill:white}
    .fil8 {fill:black;fill-rule:nonzero}
    .fil7 {fill:#FFFF99;fill-rule:nonzero}
   ]]>
  </style>
 </defs>
 <g id="Layer_x0020_1">
  <metadata id="CorelCorpID_0Corel-Layer"/>
  <g id="_2382736143248">
   <g>
    <circle class="fil0" cx="1280" cy="1228" r="760"/>
    <circle class="fil0" cx="622" cy="674" r="482"/>
    <ellipse class="fil1" cx="1254" cy="1849" rx="249" ry="42"/>
    <circle class="fil1" cx="622" cy="674" r="436"/>
    <g>
     <rect class="fil2" x="482" y="472" width="280" height="406" rx="140" ry="140"/>
     <rect class="fil3" x="503" y="497" width="239" height="355" rx="119" ry="123"/>
     <rect class="fil2" x="599" y="531" width="46" height="97" rx="23" ry="23"/>
    </g>
    <g>
     <path class="fil4" d="M1465 822c250,-31 397,150 329,404 -68,254 -326,486 -576,517 -250,31 -397,-150 -329,-404 68,-254 326,-486 576,-517z"/>
     <g>
      <circle class="fil5" transform="matrix(38.6403 -4.79698 -10.5367 39.3509 1269.51 1232.55)" r="12"/>
      <circle class="fil6" transform="matrix(26.1739 -3.24935 -7.13728 26.6553 1269.51 1232.55)" r="12"/>
      <circle class="fil5" transform="matrix(16.0645 -1.99432 -4.38058 16.36 1269.51 1232.55)" r="12"/>
      <circle class="fil6" transform="matrix(6.09078 -0.756138 -1.66087 6.2028 1269.51 1232.55)" r="12"/>
     </g>
     <path class="fil7" d="M1260 1249l-433 -367 32 -38 433 367c-6,18 -17,30 -32,38z"/>
    </g>
    <g>
     <rect class="fil2" transform="matrix(1.82343 1.56685 0.138032 1.36737 879.314 850.324)" width="18" height="35"/>
     <rect class="fil2" transform="matrix(1.82343 1.56685 1.37257 -0.0693253 835.929 900.813)" width="18" height="35"/>
     <rect class="fil2" transform="matrix(1.82343 1.56685 0.138032 1.36737 835.144 812.369)" width="18" height="35"/>
     <rect class="fil2" transform="matrix(1.82343 1.56685 1.37257 -0.0693253 791.759 862.858)" width="18" height="35"/>
    </g>
    <g>
     <path class="fil8" d="M508 492c3,2 4,6 2,9 -2,3 -6,4 -9,2l-39 -26c-3,-2 -4,-6 -2,-9 2,-3 6,-4 9,-2l39 26z"/>
     <path class="fil8" d="M533 468c2,3 2,7 -1,9 -3,2 -7,2 -9,-1l-37 -48c-2,-3 -2,-7 1,-9 3,-2 7,-2 9,1l37 48z"/>
     <path class="fil8" d="M564 461c0,3 -2,6 -6,7 -3,0 -6,-2 -7,-6l-3 -46c0,-3 2,-6 6,-7 3,0 6,2 7,6l3 46z"/>
    </g>
   </g>
   <rect class="fil9" width="2180" height="2180"/>
  </g>
 </g>
</svg>
