<?xml version="1.0" encoding="UTF-8"?>
<!DOCTYPE svg PUBLIC "-//W3C//DTD SVG 1.1//EN" "http://www.w3.org/Graphics/SVG/1.1/DTD/svg11.dtd">
<!-- Creator: CorelDRAW 2017 -->
<svg xmlns="http://www.w3.org/2000/svg" xml:space="preserve" width="2.66642in" height="2.66642in" version="1.1" style="shape-rendering:geometricPrecision; text-rendering:geometricPrecision; image-rendering:optimizeQuality; fill-rule:evenodd; clip-rule:evenodd"
viewBox="0 0 2806 2806"
 xmlns:xlink="http://www.w3.org/1999/xlink">
 <defs>
  <style type="text/css">
   <![CDATA[
    .fil6 {fill:none}
    .fil5 {fill:#14B9A1}
    .fil2 {fill:#663300}
    .fil4 {fill:#F7931C}
    .fil0 {fill:#FECB4C}
    .fil3 {fill:white}
    .fil1 {fill:white;fill-rule:nonzero}
   ]]>
  </style>
 </defs>
 <g id="Layer_x0020_1">
  <metadata id="CorelCorpID_0Corel-Layer"/>
  <g id="_2382734401344">
   <g>
    <circle class="fil0" cx="1403" cy="1642" r="764"/>
    <path class="fil1" d="M1403 837c222,0 424,90 569,236 146,146 236,347 236,569 0,222 -90,424 -236,569 -146,146 -347,236 -569,236 -222,0 -424,-90 -569,-236 -146,-146 -236,-347 -236,-569 0,-222 90,-424 236,-569 146,-146 347,-236 569,-236zm511 294c-131,-131 -312,-212 -511,-212 -200,0 -380,81 -511,212 -131,131 -212,312 -212,511 0,200 81,380 212,511 131,131 312,212 511,212 200,0 380,-81 511,-212 131,-131 212,-312 212,-511 0,-200 -81,-380 -212,-511z"/>
    <path class="fil2" d="M1402 973l0 0c8,0 15,7 15,15l0 152c0,8 -7,15 -15,15l0 0c-8,0 -15,-7 -15,-15l0 -152c0,-8 7,-15 15,-15zm337 1257l0 0c-7,4 -16,2 -20,-5l-76 -131c-4,-7 -2,-16 5,-20l0 0c7,-4 16,-2 20,5l76 131c4,7 2,16 -5,20zm-583 -1009l0 0c-7,4 -16,2 -20,-5l-76 -131c-4,-7 -2,-16 5,-20l0 0c7,-4 16,-2 20,5l76 131c4,7 2,16 -5,20zm583 -157l0 0c7,4 10,13 5,20l-76 131c-4,7 -13,10 -20,5l0 0c-7,-4 -10,-13 -5,-20l76 -131c4,-7 13,-10 20,-5zm-583 1009l0 0c7,4 10,13 5,20l-76 131c-4,7 -13,10 -20,5l0 0c-7,-4 -10,-13 -5,-20l76 -131c4,-7 13,-10 20,-5zm919 -426l0 0c0,8 -7,15 -15,15l-152 0c-8,0 -15,-7 -15,-15l0 0c0,-8 7,-15 15,-15l152 0c8,0 15,7 15,15zm-1165 0l0 0c0,8 -7,15 -15,15l-152 0c-8,0 -15,-7 -15,-15l0 0c0,-8 7,-15 15,-15l152 0c8,0 15,7 15,15zm1075 -337l0 0c4,7 2,16 -5,20l-131 76c-7,4 -16,2 -20,-5l0 0c-4,-7 -2,-16 5,-20l131 -76c7,-4 16,-2 20,5zm-1009 583l0 0c4,7 2,16 -5,20l-131 76c-7,4 -16,2 -20,-5l0 0c-4,-7 -2,-16 5,-20l131 -76c7,-4 16,-2 20,5zm1009 91l0 0c-4,7 -13,10 -20,5l-131 -76c-7,-4 -10,-13 -5,-20l0 0c4,-7 13,-10 20,-5l131 76c7,4 10,13 5,20zm-583 155l0 0c8,0 15,7 15,15l0 152c0,8 -7,15 -15,15l0 0c-8,0 -15,-7 -15,-15l0 -152c0,-8 7,-15 15,-15zm-426 -738l0 0c-4,7 -13,10 -20,5l-131 -76c-7,-4 -10,-13 -5,-20l0 0c4,-7 13,-10 20,-5l131 76c7,4 10,13 5,20z"/>
    <rect class="fil3" x="1215" y="695" width="376" height="141" rx="25" ry="34"/>
    <g>
     <rect class="fil3" x="429" y="1269" width="1947" height="747" rx="239" ry="131"/>
     <rect class="fil4" x="480" y="1326" width="1846" height="634" rx="226" ry="112"/>
    </g>
    <path class="fil1" d="M715 1461l117 0 20 22 -24 21 -117 0 -19 -21 23 -22zm-28 321l117 0 19 21 -23 22 -117 0 -20 -22 24 -21zm146 -274l23 -21 20 21 -11 114 -23 21 -20 -21 11 -114zm-169 0l24 -21 19 21 -9 114 -24 21 -20 -21 10 -114zm155 157l23 -22 19 22 -9 113 -24 21 -20 -21 11 -113zm-169 0l24 -22 20 22 -11 113 -24 21 -19 -21 10 -113z"/>
    <path id="1" class="fil1" d="M1082 1461l117 0 20 22 -24 21 -117 0 -19 -21 23 -22zm-28 321l117 0 19 21 -23 22 -117 0 -20 -22 24 -21zm146 -274l23 -21 20 21 -11 114 -23 21 -20 -21 11 -114zm-169 0l24 -21 19 21 -9 114 -24 21 -20 -21 10 -114zm155 157l23 -22 19 22 -9 113 -24 21 -20 -21 11 -113zm-169 0l24 -22 20 22 -11 113 -24 21 -19 -21 10 -113z"/>
    <path id="2" class="fil1" d="M1398 1539l43 0 -3 42 -43 0 3 -42zm-14 161l44 0 -4 42 -44 0 4 -42z"/>
    <path id="3" class="fil1" d="M1637 1461l117 0 20 22 -24 21 -117 0 -19 -21 23 -22zm-28 321l117 0 19 21 -23 22 -117 0 -20 -22 24 -21zm146 -274l23 -21 20 21 -11 114 -23 21 -20 -21 11 -114zm-169 0l24 -21 19 21 -9 114 -24 21 -20 -21 10 -114zm155 157l23 -22 19 22 -9 113 -24 21 -20 -21 11 -113zm-169 0l24 -22 20 22 -11 113 -24 21 -19 -21 10 -113z"/>
    <path id="4" class="fil1" d="M2004 1461l117 0 20 22 -24 21 -117 0 -19 -21 23 -22zm-28 321l117 0 19 21 -23 22 -117 0 -20 -22 24 -21zm146 -274l23 -21 20 21 -11 114 -23 21 -20 -21 11 -114zm-169 0l24 -21 19 21 -9 114 -24 21 -20 -21 10 -114zm155 157l23 -22 19 22 -9 113 -24 21 -20 -21 11 -113zm-169 0l24 -22 20 22 -11 113 -24 21 -19 -21 10 -113z"/>
    <circle class="fil1" cx="680" cy="761" r="403"/>
    <circle class="fil1" cx="2126" cy="761" r="403"/>
    <circle class="fil5" cx="680" cy="761" r="340"/>
    <path class="fil3" d="M697 919c21,0 23,-30 35,-53 6,4 57,56 66,66 9,9 16,20 29,17 7,-2 21,-18 27,-24 8,-8 21,-17 9,-31l-26 -26c-1,-1 -2,-2 -3,-3l-34 -34c-4,-4 -12,-10 -13,-15l28 -11c9,-4 19,-9 19,-21 0,-7 -3,-12 -7,-15 -4,-4 -123,-55 -140,-63l-62 -28c-11,-5 -21,-11 -32,0 -10,11 -5,20 0,31l55 125c5,10 9,20 14,32 5,11 9,20 14,31 4,11 9,23 23,23l0 0zm-173 -126c6,0 10,-5 13,-9 7,-7 32,-30 32,-35 0,-5 -6,-14 -16,-3l-31 31c-2,2 -6,5 -6,9 0,3 3,9 7,9l0 0zm-14 -186c0,6 15,18 21,24 8,8 17,21 25,21 4,0 6,-5 7,-7 1,-5 -41,-46 -46,-46 -5,0 -7,4 -7,9l0 0zm-19 85c0,4 0,10 9,10l49 0c13,0 12,-16 1,-16l-53 0c-3,0 -6,3 -6,6zm112 -112l0 53c0,13 16,11 16,-1l0 -49c0,-12 -16,-10 -16,-2zm47 70c0,5 3,9 7,9 8,0 30,-25 36,-32 1,-1 18,-16 4,-21 -4,-1 -7,1 -9,3l-12 13c-6,7 -26,23 -26,27l0 0z"/>
    <circle class="fil5" cx="2126" cy="761" r="340"/>
    <path class="fil3" d="M2143 919c21,0 23,-30 35,-53 6,4 57,56 66,66 9,9 16,20 29,17 7,-2 21,-18 27,-24 8,-8 21,-17 9,-31l-26 -26c-1,-1 -2,-2 -3,-3l-34 -34c-4,-4 -12,-10 -13,-15l28 -11c9,-4 19,-9 19,-21 0,-7 -3,-12 -7,-15 -4,-4 -123,-55 -140,-63l-62 -28c-11,-5 -21,-11 -32,0 -10,11 -5,20 0,31l55 125c5,10 9,20 14,32 5,11 9,20 14,31 4,11 9,23 23,23l0 0zm-173 -126c6,0 10,-5 13,-9 7,-7 32,-30 32,-35 0,-5 -6,-14 -16,-3l-31 31c-2,2 -6,5 -6,9 0,3 3,9 7,9l0 0zm-14 -186c0,6 15,18 21,24 8,8 17,21 25,21 4,0 6,-5 7,-7 1,-5 -41,-46 -46,-46 -5,0 -7,4 -7,9l0 0zm-19 85c0,4 0,10 9,10l49 0c13,0 12,-16 1,-16l-53 0c-3,0 -6,3 -6,6zm112 -112l0 53c0,13 16,11 16,-1l0 -49c0,-12 -16,-10 -16,-2zm47 70c0,5 3,9 7,9 8,0 30,-25 36,-32 1,-1 18,-16 4,-21 -4,-1 -7,1 -9,3l-12 13c-6,7 -26,23 -26,27l0 0z"/>
   </g>
   <rect class="fil6" width="2806" height="2806"/>
  </g>
 </g>
</svg>
