<?xml version="1.0" encoding="UTF-8"?>
<!DOCTYPE svg PUBLIC "-//W3C//DTD SVG 1.1//EN" "http://www.w3.org/Graphics/SVG/1.1/DTD/svg11.dtd">
<!-- Creator: CorelDRAW 2017 -->
<svg xmlns="http://www.w3.org/2000/svg" xml:space="preserve" width="112px" height="112px" version="1.1" style="shape-rendering:geometricPrecision; text-rendering:geometricPrecision; image-rendering:optimizeQuality; fill-rule:evenodd; clip-rule:evenodd"
viewBox="0 0 306530 306530"
 xmlns:xlink="http://www.w3.org/1999/xlink">
 <defs>
  <style type="text/css">
   <![CDATA[
    .fil5 {fill:none}
    .fil1 {fill:#F7931C}
    .fil2 {fill:#FECB4C}
    .fil0 {fill:white}
    .fil4 {fill:#FF6633;fill-rule:nonzero}
    .fil3 {fill:white;fill-rule:nonzero}
   ]]>
  </style>
 </defs>
 <g id="Layer_x0020_1">
  <metadata id="CorelCorpID_0Corel-Layer"/>
  <g id="_3111286393424">
   <g>
    <rect class="fil0" x="24190" y="19170" width="258150" height="133120" rx="31630" ry="23420"/>
    <rect class="fil1" x="33170" y="27110" width="240180" height="117250" rx="29430" ry="20630"/>
    <path class="fil0" d="M44730 90420l17370 0c1300,0 2350,1060 2350,2350l0 11220c0,1290 -1050,2350 -2350,2350l-17370 0c-1290,0 -2350,-1060 -2350,-2350l0 -11220c0,-1290 1060,-2350 2350,-2350zm187040 24600l17370 0c1290,0 2350,1060 2350,2350l0 11220c0,1290 -1060,2350 -2350,2350l-17370 0c-1290,0 -2350,-1060 -2350,-2350l0 -11220c0,-1290 1060,-2350 2350,-2350zm-133130 0l117210 0c1300,0 2350,1060 2350,2350l0 11220c0,1290 -1050,2350 -2350,2350l-117210 0c-1300,0 -2350,-1060 -2350,-2350l0 -11220c0,-1290 1050,-2350 2350,-2350zm-33280 0l17360 0c1300,0 2350,1060 2350,2350l0 11220c0,1290 -1050,2350 -2350,2350l-17360 0c-1300,0 -2360,-1060 -2360,-2350l0 -11220c0,-1290 1060,-2350 2360,-2350zm179070 -24600l17370 0c1290,0 2350,1060 2350,2350l0 11220c0,1290 -1060,2350 -2350,2350l-17370 0c-1290,0 -2350,-1060 -2350,-2350l0 -11220c0,-1290 1060,-2350 2350,-2350zm-33280 0l17360 0c1300,0 2360,1060 2360,2350l0 11220c0,1290 -1060,2350 -2360,2350l-17360 0c-1300,0 -2350,-1060 -2350,-2350l0 -11220c0,-1290 1050,-2350 2350,-2350zm-33280 0l17360 0c1300,0 2350,1060 2350,2350l0 11220c0,1290 -1050,2350 -2350,2350l-17360 0c-1300,0 -2360,-1060 -2360,-2350l0 -11220c0,-1290 1060,-2350 2360,-2350zm-33290 0l17370 0c1290,0 2350,1060 2350,2350l0 11220c0,1290 -1060,2350 -2350,2350l-17370 0c-1290,0 -2350,-1060 -2350,-2350l0 -11220c0,-1290 1060,-2350 2350,-2350zm-33280 0l17370 0c1290,0 2350,1060 2350,2350l0 11220c0,1290 -1060,2350 -2350,2350l-17370 0c-1290,0 -2350,-1060 -2350,-2350l0 -11220c0,-1290 1060,-2350 2350,-2350zm-33280 0l17360 0c1300,0 2350,1060 2350,2350l0 11220c0,1290 -1050,2350 -2350,2350l-17360 0c-1300,0 -2350,-1060 -2350,-2350l0 -11220c0,-1290 1050,-2350 2350,-2350z"/>
    <path class="fil0" d="M32760 66910l17370 0c1290,0 2350,1050 2350,2350l0 11210c0,1300 -1060,2350 -2350,2350l-17370 0c-1300,0 -2350,-1050 -2350,-2350l0 -11210c0,-1300 1050,-2350 2350,-2350zm199700 0l17360 0c1300,0 2360,1050 2360,2350l0 11210c0,1300 -1060,2350 -2360,2350l-17360 0c-1300,0 -2350,-1050 -2350,-2350l0 -11210c0,-1300 1050,-2350 2350,-2350zm-33290 0l17370 0c1300,0 2350,1050 2350,2350l0 11210c0,1300 -1050,2350 -2350,2350l-17370 0c-1290,0 -2350,-1050 -2350,-2350l0 -11210c0,-1300 1060,-2350 2350,-2350zm-33280 0l17370 0c1290,0 2350,1050 2350,2350l0 11210c0,1300 -1060,2350 -2350,2350l-17370 0c-1290,0 -2350,-1050 -2350,-2350l0 -11210c0,-1300 1060,-2350 2350,-2350zm-33280 0l17360 0c1300,0 2360,1050 2360,2350l0 11210c0,1300 -1060,2350 -2360,2350l-17360 0c-1300,0 -2350,-1050 -2350,-2350l0 -11210c0,-1300 1050,-2350 2350,-2350zm-33280 0l17360 0c1300,0 2350,1050 2350,2350l0 11210c0,1300 -1050,2350 -2350,2350l-17360 0c-1300,0 -2360,-1050 -2360,-2350l0 -11210c0,-1300 1060,-2350 2360,-2350zm-33290 0l17370 0c1290,0 2350,1050 2350,2350l0 11210c0,1300 -1060,2350 -2350,2350l-17370 0c-1290,0 -2350,-1050 -2350,-2350l0 -11210c0,-1300 1060,-2350 2350,-2350z"/>
    <path class="fil0" d="M264840 66910l10700 0 0 15910 -10700 0c-1290,0 -2350,-1050 -2350,-2350l0 -11210c0,-1300 1060,-2350 2350,-2350z"/>
    <path class="fil0" d="M44730 40750l17370 0c1300,0 2350,1050 2350,2350l0 11210c0,1300 -1050,2350 -2350,2350l-17370 0c-1290,0 -2350,-1050 -2350,-2350l0 -11210c0,-1300 1060,-2350 2350,-2350zm199700 0l17370 0c1290,0 2350,1050 2350,2350l0 11210c0,1300 -1060,2350 -2350,2350l-17370 0c-1290,0 -2350,-1050 -2350,-2350l0 -11210c0,-1300 1060,-2350 2350,-2350zm-33280 0l17360 0c1300,0 2360,1050 2360,2350l0 11210c0,1300 -1060,2350 -2360,2350l-17360 0c-1300,0 -2350,-1050 -2350,-2350l0 -11210c0,-1300 1050,-2350 2350,-2350zm-33280 0l17360 0c1300,0 2350,1050 2350,2350l0 11210c0,1300 -1050,2350 -2350,2350l-17360 0c-1300,0 -2360,-1050 -2360,-2350l0 -11210c0,-1300 1060,-2350 2360,-2350zm-33290 0l17370 0c1290,0 2350,1050 2350,2350l0 11210c0,1300 -1060,2350 -2350,2350l-17370 0c-1290,0 -2350,-1050 -2350,-2350l0 -11210c0,-1300 1060,-2350 2350,-2350zm-33280 0l17370 0c1290,0 2350,1050 2350,2350l0 11210c0,1300 -1060,2350 -2350,2350l-17370 0c-1290,0 -2350,-1050 -2350,-2350l0 -11210c0,-1300 1060,-2350 2350,-2350zm-33280 0l17360 0c1300,0 2350,1050 2350,2350l0 11210c0,1300 -1050,2350 -2350,2350l-17360 0c-1300,0 -2350,-1050 -2350,-2350l0 -11210c0,-1300 1050,-2350 2350,-2350z"/>
    <circle class="fil2" cx="153270" cy="200000" r="82900"/>
    <path class="fil3" d="M153260 112650c24120,0 45970,9780 61770,25590 15810,15800 25590,37640 25590,61760 0,24120 -9780,45960 -25590,61770 -15810,15810 -37650,25590 -61770,25590 -24110,0 -45950,-9780 -61760,-25590 -15810,-15810 -25590,-37650 -25590,-61770 0,-24120 9780,-45960 25590,-61760 15810,-15810 37650,-25590 61760,-25590zm55480 31880c-14200,-14190 -33810,-22970 -55480,-22970 -21660,0 -41270,8780 -55460,22970 -14200,14190 -22980,33810 -22980,55470 0,21670 8780,41280 22980,55470 14190,14200 33800,22980 55460,22980 21670,0 41280,-8780 55480,-22980 14190,-14190 22970,-33800 22970,-55470 0,-21660 -8780,-41270 -22970,-55470z"/>
    <path class="fil4" d="M121900 174840l16240 0 2750 3020 -3290 2890 -16240 0 -2620 -2890 3160 -3020zm-3830 44430l16240 0 2620 2880 -3160 3020 -16240 0 -2750 -3020 3290 -2880zm20200 -37990l3160 -2880 2750 2880 -1480 15840 -3150 2890 -2760 -2890 1480 -15840zm-23350 0l3290 -2880 2610 2880 -1270 15840 -3290 2890 -2750 -2890 1410 -15840zm21400 21750l3230 -3020 2610 3020 -1270 15700 -3290 2880 -2750 -2880 1470 -15700zm-23350 0l3290 -3020 2750 3020 -1480 15700 -3280 2880 -2620 -2880 1340 -15700z"/>
    <path id="1" class="fil4" d="M172630 174840l16240 0 2750 3020 -3290 2890 -16240 0 -2620 -2890 3160 -3020zm-3830 44430l16240 0 2620 2880 -3150 3020 -16240 0 -2750 -3020 3280 -2880zm20200 -37990l3160 -2880 2750 2880 -1480 15840 -3150 2890 -2750 -2890 1470 -15840zm-23350 0l3290 -2880 2620 2880 -1280 15840 -3290 2890 -2750 -2890 1410 -15840zm21410 21750l3220 -3020 2610 3020 -1270 15700 -3290 2880 -2750 -2880 1480 -15700zm-23360 0l3290 -3020 2750 3020 -1470 15700 -3290 2880 -2620 -2880 1340 -15700z"/>
   </g>
   <rect class="fil5" width="306530" height="306530"/>
  </g>
 </g>
</svg>
