<?xml version="1.0" encoding="UTF-8"?>
<!DOCTYPE svg PUBLIC "-//W3C//DTD SVG 1.1//EN" "http://www.w3.org/Graphics/SVG/1.1/DTD/svg11.dtd">
<!-- Creator: CorelDRAW 2017 -->
<svg xmlns="http://www.w3.org/2000/svg" xml:space="preserve" width="3.11514in" height="3.11512in" version="1.1" style="shape-rendering:geometricPrecision; text-rendering:geometricPrecision; image-rendering:optimizeQuality; fill-rule:evenodd; clip-rule:evenodd"
viewBox="0 0 2335 2335"
 xmlns:xlink="http://www.w3.org/1999/xlink">
 <defs>
  <style type="text/css">
   <![CDATA[
    .fil2 {fill:#151136}
    .fil1 {fill:#20325D}
    .fil0 {fill:#231B4B}
    .fil5 {fill:#CC6633}
    .fil6 {fill:#FF9966}
    .fil3 {fill:#336699;fill-rule:nonzero}
    .fil4 {fill:#6699FF;fill-rule:nonzero}
   ]]>
  </style>
 </defs>
 <g id="Layer_x0020_1">
  <metadata id="CorelCorpID_0Corel-Layer"/>
  <g id="_2000873780048">
   <g>
    <rect class="fil0" width="2335" height="2335" rx="542" ry="542"/>
    <path class="fil1" d="M542 0l1251 0c156,0 296,66 395,172l-2041 1990c-91,-97 -147,-227 -147,-370l0 -1251c0,-298 244,-542 542,-542z"/>
   </g>
   <g>
    <path class="fil2" d="M405 1795l567 539 821 0c179,0 338,-87 436,-222l-294 -318 -1530 0z"/>
    <polygon class="fil2" points="405,1795 465,1852 523,1795 "/>
   </g>
   <g>
    <rect class="fil3" x="476" y="620" width="26" height="1165"/>
    <rect class="fil4" x="458" y="599" width="26" height="1165"/>
    <path class="fil5" d="M685 1780l157 0 0 -500c0,-15 -12,-28 -28,-28l-129 0c-15,0 -28,12 -28,28l0 472c0,15 12,28 28,28z"/>
    <path class="fil6" d="M629 1768l184 0 0 -500c0,-15 -12,-28 -28,-28l-129 0c-15,0 -28,12 -28,28l0 500z"/>
    <path class="fil5" d="M979 1780l184 0 0 -669c0,-15 -12,-28 -28,-28l-129 0c-15,0 -28,12 -28,28l0 668c0,0 0,0 0,0z"/>
    <path class="fil6" d="M950 1764l184 0 0 -669c0,-15 -12,-28 -28,-28l-129 0c-15,0 -28,12 -28,28l0 669z"/>
    <path class="fil5" d="M1301 1780l184 0 0 -891c0,-15 -12,-28 -28,-28l-129 0c-15,0 -28,12 -28,28l0 891z"/>
    <path class="fil6" d="M1275 1759l181 0 0 -891c0,-15 -12,-28 -28,-28l-129 0c-15,0 -28,12 -28,28l0 887c0,2 2,4 4,4z"/>
    <path class="fil5" d="M1625 1780l179 0c2,0 3,-1 3,-3l0 -1182c0,-15 -12,-28 -28,-28l-129 0c-15,0 -28,12 -28,28l0 1183c0,1 1,2 2,2z"/>
    <path class="fil6" d="M1593 1768l184 0 0 -1201c0,-15 -12,-28 -28,-28l-129 0c-15,0 -28,12 -28,28l0 1201z"/>
    <polygon class="fil3" points="405,1768 1935,1768 1935,1795 405,1795 "/>
    <polygon class="fil4" points="399,1753 1930,1753 1930,1780 399,1780 "/>
   </g>
  </g>
 </g>
</svg>
