<?xml version="1.0" encoding="UTF-8"?>
<!DOCTYPE svg PUBLIC "-//W3C//DTD SVG 1.1//EN" "http://www.w3.org/Graphics/SVG/1.1/DTD/svg11.dtd">
<!-- Creator: CorelDRAW 2017 -->
<svg xmlns="http://www.w3.org/2000/svg" xml:space="preserve" width="1.66004in" height="1.66004in" version="1.1" style="shape-rendering:geometricPrecision; text-rendering:geometricPrecision; image-rendering:optimizeQuality; fill-rule:evenodd; clip-rule:evenodd"
viewBox="0 0 4881 4881"
 xmlns:xlink="http://www.w3.org/1999/xlink">
 <defs>
  <style type="text/css">
   <![CDATA[
    .fil7 {fill:none}
    .fil5 {fill:#FBFCCB}
    .fil2 {fill:#FD4B1D}
    .fil4 {fill:#FDDE56}
    .fil3 {fill:#FE9F33}
    .fil6 {fill:white}
    .fil0 {fill:#14B9A1;fill-rule:nonzero}
    .fil1 {fill:white;fill-rule:nonzero}
   ]]>
  </style>
 </defs>
 <g id="Layer_x0020_1">
  <metadata id="CorelCorpID_0Corel-Layer"/>
  <g id="_2267968861760">
   <g>
    <path class="fil0" d="M843 1326c220,0 420,89 565,234 144,144 234,344 234,565 0,220 -89,420 -234,565 -144,144 -344,234 -565,234 -220,0 -420,-89 -565,-234 -144,-144 -234,-344 -234,-565 0,-220 89,-420 234,-565 144,-144 344,-234 565,-234zm1 162l114 641c35,194 -260,180 -230,11l116 -652zm467 169c-120,-120 -285,-194 -468,-194 -183,0 -348,74 -468,194 -120,120 -194,285 -194,468 0,183 74,348 194,468 120,120 285,194 468,194 183,0 348,-74 468,-194 120,-120 194,-285 194,-468 0,-183 -74,-348 -194,-468z"/>
    <path class="fil1" d="M2500 4485c-27,7 -55,13 -86,15l-120 26 -14 2 -276 3 -12 -1 -82 -14c-404,-67 -713,-284 -916,-567 -227,-317 -320,-717 -264,-1079 15,-95 71,-249 141,-380 61,-117 135,-221 203,-261l138 -82 -35 156c-7,32 -15,58 -22,82 -7,25 -14,49 -19,74 58,-79 103,-221 141,-341 16,-50 30,-96 45,-135 89,-232 202,-421 262,-521 20,-33 33,-55 34,-59l45 -129 79 116c7,10 9,14 13,23l0 0c2,6 3,9 5,16 1,3 2,8 4,15l1 4 19 77c11,24 32,47 58,68 18,15 38,28 59,39 25,-50 50,-112 74,-178 39,-111 73,-232 94,-327 35,-159 46,-258 40,-347 -6,-90 -30,-176 -67,-305l-35 -124 123 39c78,25 155,76 222,131 65,54 121,111 160,152 53,56 98,113 138,179 39,66 72,141 98,233 15,53 22,149 30,262 7,96 15,206 29,309 -31,-30 -62,-29 -118,7 -189,124 -244,109 -97,314 19,27 32,60 60,78 23,15 53,21 81,3l154 -100c6,9 12,17 19,24 8,-14 14,-31 19,-50 10,-11 17,-33 18,-44 1,-8 -1,-17 -4,-27 3,-19 5,-39 7,-60 6,9 14,18 24,28 39,40 111,49 170,12 28,-18 45,-40 54,-67l119 219c-10,-4 -19,-8 -28,-11 -41,-14 -96,-24 -143,-26 -23,-1 -131,5 -152,19l-249 162c-40,26 -78,115 -92,152 -19,52 -29,105 -30,165 -2,58 8,114 28,178 15,49 64,137 100,183l744 -482c11,26 21,52 30,79 -179,112 -411,271 -570,374 -187,121 -172,82 -111,175l529 815c3,5 8,14 14,24 -25,42 -51,83 -80,121 -69,93 -178,210 -296,306 -95,77 -197,141 -294,170l-128 58 -4 1c-27,11 -52,20 -78,27zm75 -2441c-140,98 -116,80 -149,27 -17,-27 -35,-54 -53,-82l117 -77 85 131zm-259 -62l123 190 -484 596c-1,1 -9,10 -9,10 -1,1 -2,1 -3,2 -1,0 -2,1 -3,1 -1,0 -2,1 -3,1 -1,0 -2,1 -3,1 -126,-187 -260,-399 -382,-589 28,-17 583,-160 666,-184 15,-4 33,-9 48,-13 14,-4 37,-8 49,-13zm-431 -1137c0,86 -16,174 -42,235l-26 61 -62 -23c-50,-19 -85,-56 -106,-102 -21,-45 -30,-100 -26,-153l4 -18c4,-12 6,-17 8,-24 21,-64 59,-180 102,-213l64 -48 38 70c33,60 47,138 47,215zm-552 1039c-6,57 -28,111 -51,158l-38 76 -85 -66 -4 -3c-11,-10 -24,-24 -35,-39 -23,-31 -43,-73 -46,-121 -3,-50 12,-105 60,-159l0 0c15,-16 33,-33 55,-49l56 -41 41 57c44,61 55,126 48,188zm1734 -488c-12,33 -30,54 -61,79l-41 34 -43 -31c-160,-115 -95,-231 -30,-347l43 -76 64 51c53,43 60,86 69,140 1,9 3,19 6,33l1 9c4,47 3,78 -8,107z"/>
    <g>
     <path class="fil2" d="M1921 4448c-11,-9 -8,-11 -31,-20 -32,-12 -1,-1 -37,-9 -215,-92 -390,-155 -516,-399 -128,-248 -147,-514 -106,-794 28,-192 85,-329 121,-494l18 18c11,12 12,13 23,26l93 136c46,67 88,123 141,174 157,151 337,-90 435,-449l-105 129c-1,1 -9,10 -9,10 -1,1 -2,1 -3,2 -1,0 -2,1 -3,1 -1,0 -2,1 -3,1 -1,0 -2,1 -3,1 -126,-187 -260,-399 -382,-589 23,-14 395,-111 577,-160 -2,-58 -7,-115 -15,-171l72 50c44,33 71,58 95,80 12,-3 26,-6 34,-10l71 109c75,68 139,141 211,225l29 42c5,-23 11,-46 19,-68 14,-37 52,-126 92,-152l138 -90c-17,-13 -33,-31 -46,-54l-98 64c-28,18 -58,12 -81,-3 -29,-18 -42,-52 -60,-78 -146,-205 -91,-190 97,-314 18,-12 33,-20 46,-24 -28,-217 -31,-451 -54,-535 -48,-171 -120,-278 -219,-383 -75,-80 -216,-221 -352,-265 76,268 100,356 28,686 -39,180 -123,448 -205,579 -80,-25 -181,-94 -213,-173l-21 -82c-9,-29 -4,-20 -16,-38 -13,38 -178,270 -297,582 -68,179 -143,555 -321,579 -21,-115 19,-189 43,-298 -123,72 -285,428 -311,592 -101,651 306,1432 1123,1567zm947 -1713c12,26 24,53 35,80 13,-8 28,-18 45,-28 142,-92 341,-228 510,-336 -9,-27 -18,-53 -29,-79l-561 364zm149 505c37,278 2,565 -123,820 -91,185 -126,177 -188,244l-21 30c200,-58 441,-292 560,-453 34,-46 65,-95 93,-147l-321 -494zm201 -1274l-71 -131c-3,2 -5,4 -8,6 -43,26 -92,29 -131,14 -6,45 -14,89 -27,125l7 -5c21,-14 129,-20 152,-19 25,1 52,4 78,9zm-643 77c-140,98 -116,80 -149,27 -17,-27 -35,-54 -53,-82l117 -77 85 131z"/>
     <path class="fil3" d="M1853 4420c-57,-75 -182,-123 -217,-311 -31,-168 41,-293 121,-384 -2,18 -9,58 -7,74 15,141 157,2 196,-42 141,-161 163,-489 199,-692 93,142 100,569 236,621 30,-46 38,-81 51,-150 2,3 5,8 7,10 2,2 5,7 7,10 86,135 154,299 163,459 7,127 -43,301 -132,360 -89,59 -121,29 -72,58 58,-5 98,-18 149,-38l132 -60 21 -30c62,-67 97,-59 188,-244 125,-254 160,-541 123,-820l-181 -278c-55,-85 -73,-60 67,-147 -11,-27 -23,-54 -35,-80l-124 80c-36,-46 -85,-134 -100,-183 -19,-63 -29,-119 -28,-178 1,-34 5,-66 11,-97l-29 -42c-72,-84 -137,-157 -211,-225l52 81 -379 467c-97,359 -278,600 -435,449 -53,-51 -95,-107 -141,-174l-93 -136c-11,-13 -12,-14 -23,-26l-18 -18c-36,164 -93,301 -121,494 -41,280 -23,546 106,794 126,244 302,307 516,399zm429 -2429c-23,-22 -51,-46 -95,-80l-72 -50c8,56 13,113 15,171 42,-11 73,-20 89,-24 15,-4 33,-9 48,-13 4,-1 9,-2 14,-4z"/>
     <path class="fil4" d="M1853 4420c36,7 5,-4 37,9 22,8 20,11 31,20l82 14c-104,-86 -162,-99 -188,-299 139,89 200,71 264,-74 42,-95 65,-275 96,-336 24,123 0,331 101,409 86,-20 96,-89 152,-160 16,88 5,190 -16,277 -29,121 -61,123 -132,180l126 -28c-49,-30 -17,1 72,-58 89,-59 139,-233 132,-360 -9,-159 -77,-324 -163,-459 -2,-3 -5,-8 -7,-10 -2,-2 -4,-7 -7,-10 -13,68 -21,104 -51,150 -137,-52 -144,-478 -236,-621 -36,203 -58,531 -199,692 -39,44 -180,184 -196,42 -2,-15 5,-55 7,-74 -80,91 -152,216 -121,384 35,188 160,236 217,311z"/>
     <path class="fil5" d="M2003 4462l276 -3c71,-57 104,-59 132,-180 20,-87 31,-189 16,-277 -56,72 -66,140 -152,160 -101,-78 -77,-286 -101,-409 -30,60 -53,240 -96,336 -64,144 -125,163 -264,74 26,199 84,213 188,299z"/>
     <path class="fil2" d="M1779 1052c42,-99 56,-283 -2,-390 -31,23 -72,162 -86,204 -5,81 21,161 88,186z"/>
     <path class="fil2" d="M1220 2010c41,-82 74,-185 9,-275 -148,108 -70,223 -28,261l19 14z"/>
     <path class="fil2" d="M2962 1421c42,-35 49,-52 43,-128 -12,-56 -8,-100 -50,-134 -51,90 -105,181 7,262z"/>
    </g>
    <path class="fil6" d="M4288 3335c-19,22 -832,547 -847,545 -21,-3 -62,-82 -76,-103l-529 -815c-60,-93 -76,-54 111,-175 200,-130 518,-349 697,-451 110,151 220,338 323,497l285 439c27,41 33,46 35,63zm-749 -1163l59 91 -854 554c-36,-46 -85,-134 -100,-183 -19,-63 -29,-119 -28,-178 2,-60 12,-113 30,-165 14,-37 52,-126 92,-152l249 -162c21,-14 129,-20 152,-19 47,2 102,12 143,26 81,27 194,92 256,188zm-1224 -190l123 190 -484 596c-1,1 -9,10 -9,10 -1,1 -2,1 -3,2 -1,0 -2,1 -3,1 -1,0 -2,1 -3,1 -1,0 -2,1 -3,1 -126,-187 -260,-399 -382,-589 28,-17 583,-160 666,-184 15,-4 33,-9 48,-13 14,-4 37,-8 49,-13zm2022 1426c21,21 69,96 76,122 11,41 5,74 -26,108 -25,28 -451,298 -519,342 -163,106 -244,199 -344,43 -50,-77 -51,-57 26,-107 97,-63 746,-491 787,-508zm-1492 -1699c32,49 99,134 96,180 -1,14 -12,42 -24,50l-186 120c-28,18 -58,12 -81,-3 -29,-18 -42,-52 -60,-78 -146,-205 -91,-190 97,-314 78,-51 108,-31 158,45zm-272 336c-140,98 -116,80 -149,27 -17,-27 -35,-54 -53,-82l117 -77 85 131zm625 -357c6,63 -4,120 -61,155 -59,37 -131,28 -170,-12 -33,-34 -42,-55 -50,-118 -11,-91 -28,-101 108,-198 51,-36 58,-31 129,-40 79,-10 665,-94 691,-84 47,17 69,142 9,162 -54,18 -291,-74 -656,135zm560 127c-29,3 -38,-26 -110,-55 -145,-60 -275,-47 -434,-39 15,-16 192,-105 242,-94l245 57c87,17 80,92 57,131zm-694 -150c89,11 66,133 -14,120 -78,-12 -62,-130 14,-120zm473 948l-453 294c-12,8 -16,25 -8,37l447 688c8,12 25,16 37,8l453 -294c12,-8 16,-25 8,-37l-447 -688c-8,-12 -25,-16 -37,-8zm85 466c-30,-27 -41,-51 -45,-88 54,75 124,48 178,133 32,50 32,109 14,157 -4,11 -17,38 -26,46 -4,-35 -5,-58 -29,-94 -17,-26 -51,-50 -83,-41 9,10 20,19 26,33 12,29 -14,52 -36,33 -12,-11 -15,-24 -20,-37 -5,18 -2,37 10,60 16,30 34,33 48,42 -47,12 -85,-23 -96,-74 -11,-47 -17,-99 -70,-111 58,56 5,112 50,182 17,26 31,32 50,50 -38,5 -91,-13 -122,-45 -92,-97 -23,-247 -59,-340 -15,-39 -29,-42 -50,-60 60,-21 102,7 134,56 34,52 57,98 127,100z"/>
    <rect class="fil6" x="4267" y="3007" width="371" height="75" rx="27" ry="37"/>
    <rect class="fil6" x="4465" y="3150" width="371" height="75" rx="27" ry="37"/>
    <rect class="fil6" x="4379" y="3306" width="371" height="75" rx="27" ry="37"/>
   </g>
   <rect class="fil7" width="4881" height="4881"/>
  </g>
 </g>
</svg>
