<?xml version="1.0" encoding="UTF-8"?>
<!DOCTYPE svg PUBLIC "-//W3C//DTD SVG 1.1//EN" "http://www.w3.org/Graphics/SVG/1.1/DTD/svg11.dtd">
<!-- Creator: CorelDRAW 2017 -->
<svg xmlns="http://www.w3.org/2000/svg" xml:space="preserve" width="2.66642in" height="2.66642in" version="1.1" style="shape-rendering:geometricPrecision; text-rendering:geometricPrecision; image-rendering:optimizeQuality; fill-rule:evenodd; clip-rule:evenodd"
viewBox="0 0 2593 2593"
 xmlns:xlink="http://www.w3.org/1999/xlink">
 <defs>
  <style type="text/css">
   <![CDATA[
    .fil4 {fill:none}
    .fil2 {fill:#F7931C}
    .fil1 {fill:#FECB4C}
    .fil0 {fill:white}
    .fil3 {fill:white;fill-rule:nonzero}
   ]]>
  </style>
 </defs>
 <g id="Layer_x0020_1">
  <metadata id="CorelCorpID_0Corel-Layer"/>
  <g id="_2382734363616">
   <g>
    <rect class="fil0" x="167" y="557" width="2259" height="728" rx="115" ry="115"/>
    <rect class="fil1" x="226" y="617" width="2141" height="608" rx="109" ry="96"/>
    <rect class="fil0" x="292" y="1160" width="2010" height="876" rx="246" ry="154"/>
    <rect class="fil2" x="361" y="1212" width="1870" height="772" rx="229" ry="136"/>
    <path class="fil3" d="M633 1423l113 0 19 21 -23 20 -113 0 -18 -20 22 -21zm-27 310l113 0 18 20 -22 21 -113 0 -19 -21 23 -20zm141 -265l22 -20 19 20 -10 110 -22 20 -19 -20 10 -110zm-163 0l23 -20 18 20 -9 110 -23 20 -19 -20 10 -110zm149 151l22 -21 18 21 -9 109 -23 20 -19 -20 10 -109zm-163 0l23 -21 19 21 -10 109 -23 20 -18 -20 9 -109z"/>
    <path id="1" class="fil3" d="M986 1423l113 0 19 21 -23 20 -113 0 -18 -20 22 -21zm-27 310l113 0 18 20 -22 21 -113 0 -19 -21 23 -20zm141 -265l22 -20 19 20 -10 110 -22 20 -19 -20 10 -110zm-163 0l23 -20 18 20 -9 110 -23 20 -19 -20 10 -110zm149 151l22 -21 18 21 -9 109 -23 20 -19 -20 10 -109zm-163 0l23 -21 19 21 -10 109 -23 20 -18 -20 9 -109z"/>
    <path id="2" class="fil3" d="M1291 1494l41 0 -3 40 -41 0 3 -40zm-14 155l42 0 -4 40 -42 0 4 -40z"/>
    <path id="3" class="fil3" d="M1523 1423l113 0 19 21 -23 20 -113 0 -18 -20 22 -21zm-27 310l113 0 18 20 -22 21 -113 0 -19 -21 23 -20zm141 -265l22 -20 19 20 -10 110 -22 20 -19 -20 10 -110zm-163 0l23 -20 18 20 -9 110 -23 20 -19 -20 10 -110zm149 151l22 -21 18 21 -9 109 -23 20 -19 -20 10 -109zm-163 0l23 -21 19 21 -10 109 -23 20 -18 -20 9 -109z"/>
    <path id="4" class="fil3" d="M1876 1423l113 0 19 21 -23 20 -113 0 -18 -20 22 -21zm-27 310l113 0 18 20 -22 21 -113 0 -19 -21 23 -20zm141 -265l22 -20 19 20 -10 110 -22 20 -19 -20 10 -110zm-163 0l23 -20 18 20 -9 110 -23 20 -19 -20 10 -110zm149 151l22 -21 18 21 -9 109 -23 20 -19 -20 10 -109zm-163 0l23 -21 19 21 -10 109 -23 20 -18 -20 9 -109z"/>
    <path class="fil2" d="M354 746l150 0c11,0 20,9 20,20l0 97c0,11 -9,20 -20,20l-150 0c-11,0 -20,-9 -20,-20l0 -97c0,-11 9,-20 20,-20zm1617 213l150 0c11,0 20,9 20,20l0 97c0,11 -9,20 -20,20l-150 0c-11,0 -20,-9 -20,-20l0 -97c0,-11 9,-20 20,-20zm-1151 0l1013 0c11,0 20,9 20,20l0 97c0,11 -9,20 -20,20l-1013 0c-11,0 -20,-9 -20,-20l0 -97c0,-11 9,-20 20,-20zm-288 0l150 0c11,0 20,9 20,20l0 97c0,11 -9,20 -20,20l-150 0c-11,0 -20,-9 -20,-20l0 -97c0,-11 9,-20 20,-20zm1548 -213l150 0c11,0 20,9 20,20l0 97c0,11 -9,20 -20,20l-150 0c-11,0 -20,-9 -20,-20l0 -97c0,-11 9,-20 20,-20zm-288 0l150 0c11,0 20,9 20,20l0 97c0,11 -9,20 -20,20l-150 0c-11,0 -20,-9 -20,-20l0 -97c0,-11 9,-20 20,-20zm-288 0l150 0c11,0 20,9 20,20l0 97c0,11 -9,20 -20,20l-150 0c-11,0 -20,-9 -20,-20l0 -97c0,-11 9,-20 20,-20zm-288 0l150 0c11,0 20,9 20,20l0 97c0,11 -9,20 -20,20l-150 0c-11,0 -20,-9 -20,-20l0 -97c0,-11 9,-20 20,-20zm-288 0l150 0c11,0 20,9 20,20l0 97c0,11 -9,20 -20,20l-150 0c-11,0 -20,-9 -20,-20l0 -97c0,-11 9,-20 20,-20zm-288 0l150 0c11,0 20,9 20,20l0 97c0,11 -9,20 -20,20l-150 0c-11,0 -20,-9 -20,-20l0 -97c0,-11 9,-20 20,-20z"/>
    <path class="fil0" d="M358 722l150 0c11,0 20,9 20,20l0 97c0,11 -9,20 -20,20l-150 0c-11,0 -20,-9 -20,-20l0 -97c0,-11 9,-20 20,-20zm1617 213l150 0c11,0 20,9 20,20l0 97c0,11 -9,20 -20,20l-150 0c-11,0 -20,-9 -20,-20l0 -97c0,-11 9,-20 20,-20zm-1151 0l1013 0c11,0 20,9 20,20l0 97c0,11 -9,20 -20,20l-1013 0c-11,0 -20,-9 -20,-20l0 -97c0,-11 9,-20 20,-20zm-288 0l150 0c11,0 20,9 20,20l0 97c0,11 -9,20 -20,20l-150 0c-11,0 -20,-9 -20,-20l0 -97c0,-11 9,-20 20,-20zm1548 -213l150 0c11,0 20,9 20,20l0 97c0,11 -9,20 -20,20l-150 0c-11,0 -20,-9 -20,-20l0 -97c0,-11 9,-20 20,-20zm-288 0l150 0c11,0 20,9 20,20l0 97c0,11 -9,20 -20,20l-150 0c-11,0 -20,-9 -20,-20l0 -97c0,-11 9,-20 20,-20zm-288 0l150 0c11,0 20,9 20,20l0 97c0,11 -9,20 -20,20l-150 0c-11,0 -20,-9 -20,-20l0 -97c0,-11 9,-20 20,-20zm-288 0l150 0c11,0 20,9 20,20l0 97c0,11 -9,20 -20,20l-150 0c-11,0 -20,-9 -20,-20l0 -97c0,-11 9,-20 20,-20zm-288 0l150 0c11,0 20,9 20,20l0 97c0,11 -9,20 -20,20l-150 0c-11,0 -20,-9 -20,-20l0 -97c0,-11 9,-20 20,-20zm-288 0l150 0c11,0 20,9 20,20l0 97c0,11 -9,20 -20,20l-150 0c-11,0 -20,-9 -20,-20l0 -97c0,-11 9,-20 20,-20z"/>
    <path class="fil2" d="M1616 973l0 49c0,6 -3,12 -7,16 -4,4 -10,7 -16,7l-594 0c-6,0 -12,-3 -16,-7 -4,-4 -7,-10 -7,-16l0 -49 23 53 593 0 23 -53z"/>
   </g>
   <rect class="fil4" width="2593" height="2593"/>
  </g>
 </g>
</svg>
