<?xml version="1.0" encoding="UTF-8"?>
<!DOCTYPE svg PUBLIC "-//W3C//DTD SVG 1.1//EN" "http://www.w3.org/Graphics/SVG/1.1/DTD/svg11.dtd">
<!-- Creator: CorelDRAW 2017 -->
<svg xmlns="http://www.w3.org/2000/svg" xml:space="preserve" width="3.11514in" height="3.11512in" version="1.1" style="shape-rendering:geometricPrecision; text-rendering:geometricPrecision; image-rendering:optimizeQuality; fill-rule:evenodd; clip-rule:evenodd"
viewBox="0 0 3422 3422"
 xmlns:xlink="http://www.w3.org/1999/xlink">
 <defs>
  <style type="text/css">
   <![CDATA[
    .fil15 {fill:#151136}
    .fil1 {fill:#20325D}
    .fil0 {fill:#231B4B}
    .fil13 {fill:#5353CF}
    .fil14 {fill:#6666FF}
    .fil5 {fill:#7CCF7C}
    .fil9 {fill:#8AB8B8}
    .fil10 {fill:#99CCCC}
    .fil6 {fill:#99FF99}
    .fil7 {fill:#B85CB8}
    .fil8 {fill:#CC66CC}
    .fil2 {fill:#CF7C29}
    .fil11 {fill:#CFA600}
    .fil3 {fill:#FF9933}
    .fil12 {fill:#FFCC00}
    .fil4 {fill:#FFCC99}
   ]]>
  </style>
 </defs>
 <g id="Layer_x0020_1">
  <metadata id="CorelCorpID_0Corel-Layer"/>
  <g id="_2000717639984">
   <g>
    <rect class="fil0" width="3422" height="3422" rx="794" ry="794"/>
    <path class="fil1" d="M794 0l1833 0c228,0 434,97 579,252l-2992 2917c-133,-142 -215,-333 -215,-542l0 -1833c0,-437 357,-794 794,-794z"/>
   </g>
   <g>
    <path class="fil2" d="M1702 681l761 -196c54,-14 165,81 145,141l-656 2034c-19,60 -81,118 -136,127l-841 147c-55,10 -161,4 -166,-98l757 -2029c22,-59 81,-113 136,-127z"/>
    <rect class="fil3" transform="matrix(4.13423 -0.720215 -1.55872 4.83431 1506.25 650.757)" width="252" height="466" rx="24" ry="24"/>
    <rect class="fil4" transform="matrix(3.7722 -0.657147 -1.49422 4.63428 1536.85 689.433)" width="252" height="466" rx="24" ry="24"/>
    <rect class="fil5" transform="matrix(14.3586 -2.50139 -2.8828 8.94092 1823.91 1113.69)" width="67" height="67" rx="9" ry="9"/>
    <rect class="fil6" transform="matrix(14.3586 -2.50139 -2.8828 8.94092 1794.29 1081.85)" width="67" height="67" rx="9" ry="9"/>
    <rect class="fil7" transform="matrix(4.13423 -0.720215 -1.55872 4.83431 1595.77 794.457)" width="67" height="67" rx="9" ry="9"/>
    <rect class="fil8" transform="matrix(4.13423 -0.720215 -1.55872 4.83431 1571.71 768.213)" width="67" height="67" rx="9" ry="9"/>
    <path class="fil9" d="M1136 2171l268 -47 -17 54 -268 47 17 -54zm99 -307l563 -98 -17 54 -563 98 17 -54zm-33 102l563 -98 -17 54 -563 98 17 -54zm-33 102l563 -98 -17 54 -563 98 17 -54z"/>
    <path class="fil10" d="M1120 2162l268 -47 -17 54 -268 47 17 -54zm99 -307l563 -98 -17 54 -563 98 17 -54zm-33 102l563 -98 -17 54 -563 98 17 -54zm-33 102l563 -98 -17 54 -563 98 17 -54z"/>
    <polygon class="fil11" points="1353,2279 1356,2332 1407,2328 1353,2376 1346,2433 1311,2409 1256,2449 1287,2386 1260,2353 1315,2339 "/>
    <polygon class="fil11" points="1545,2245 1547,2299 1598,2295 1544,2342 1538,2400 1502,2376 1447,2416 1479,2353 1452,2320 1506,2306 "/>
    <polygon class="fil11" points="1736,2212 1738,2266 1789,2261 1736,2309 1729,2367 1694,2342 1638,2383 1670,2320 1643,2287 1698,2272 "/>
    <polygon class="fil11" points="1927,2179 1929,2232 1980,2228 1927,2276 1920,2333 1885,2309 1830,2349 1861,2287 1834,2254 1889,2239 "/>
    <polygon class="fil11" points="2119,2145 2121,2199 2172,2195 2118,2242 2111,2300 2076,2276 2021,2316 2053,2253 2025,2220 2080,2206 "/>
    <polygon class="fil11" points="2310,2112 2312,2166 2363,2161 2310,2209 2303,2267 2267,2243 2212,2283 2244,2220 2217,2187 2271,2172 "/>
    <polygon class="fil12" points="1343,2265 1345,2318 1396,2314 1343,2362 1336,2420 1300,2395 1245,2435 1277,2373 1250,2340 1304,2325 "/>
    <polygon class="fil12" points="1534,2231 1536,2285 1587,2281 1534,2329 1527,2386 1492,2362 1436,2402 1468,2339 1441,2306 1496,2292 "/>
    <polygon class="fil12" points="1725,2198 1728,2252 1779,2247 1725,2295 1718,2353 1683,2329 1628,2369 1659,2306 1632,2273 1687,2259 "/>
    <polygon class="fil12" points="1917,2165 1919,2219 1970,2214 1916,2262 1909,2320 1874,2295 1819,2335 1851,2273 1823,2240 1878,2225 "/>
    <polygon class="fil12" points="2108,2131 2110,2185 2161,2181 2108,2229 2101,2286 2066,2262 2010,2302 2042,2239 2015,2206 2069,2192 "/>
    <polygon class="fil12" points="2299,2098 2301,2152 2352,2148 2299,2195 2292,2253 2257,2229 2202,2269 2233,2206 2206,2173 2261,2159 "/>
    <rect class="fil13" transform="matrix(4.13423 -0.720215 -1.55872 4.83431 766.642 2635.35)" width="96" height="45" rx="6" ry="6"/>
    <rect class="fil13" transform="matrix(5.01055 -0.872878 -1.55872 4.83431 1227.86 2555)" width="96" height="45" rx="6" ry="6"/>
    <rect class="fil14" transform="matrix(4.13423 -0.720215 -1.55872 4.83431 728.377 2617.85)" width="96" height="45" rx="6" ry="6"/>
    <rect class="fil14" transform="matrix(5.01055 -0.872878 -1.55872 4.83431 1189.59 2537.51)" width="96" height="45" rx="6" ry="6"/>
   </g>
   <ellipse class="fil15" cx="1711" cy="3160" rx="1022" ry="119"/>
  </g>
 </g>
</svg>
