<?xml version="1.0" encoding="UTF-8"?>
<!DOCTYPE svg PUBLIC "-//W3C//DTD SVG 1.1//EN" "http://www.w3.org/Graphics/SVG/1.1/DTD/svg11.dtd">
<!-- Creator: CorelDRAW 2017 -->
<svg xmlns="http://www.w3.org/2000/svg" xml:space="preserve" width="3.11514in" height="3.11512in" version="1.1" style="shape-rendering:geometricPrecision; text-rendering:geometricPrecision; image-rendering:optimizeQuality; fill-rule:evenodd; clip-rule:evenodd"
viewBox="0 0 2734 2734"
 xmlns:xlink="http://www.w3.org/1999/xlink">
 <defs>
  <style type="text/css">
   <![CDATA[
    .fil2 {fill:#151136}
    .fil4 {fill:#1B2E35}
    .fil1 {fill:#20325D}
    .fil3 {fill:#213941}
    .fil0 {fill:#231B4B}
    .fil9 {fill:#4B5F65}
    .fil6 {fill:#BABDC1}
    .fil7 {fill:#D23B34}
    .fil8 {fill:#EEB331}
    .fil5 {fill:#FEFCF2}
   ]]>
  </style>
 </defs>
 <g id="Layer_x0020_1">
  <metadata id="CorelCorpID_0Corel-Layer"/>
  <g id="_2000873773168">
   <g>
    <rect class="fil0" width="2734" height="2734" rx="635" ry="635"/>
    <path class="fil1" d="M635 0l1464 0c182,0 347,78 463,202l-2390 2330c-106,-114 -172,-266 -172,-433l0 -1464c0,-349 286,-635 635,-635z"/>
   </g>
   <path class="fil2" d="M1173 2335l274 399 652 0c349,0 635,-286 635,-635l0 -568 -549 -721 -631 775 -382 750z"/>
   <path class="fil3" d="M1102 2319c841,225 1557,-663 1126,-1444 -111,-173 -196,-274 -382,-380 -408,-233 -934,-121 -1209,192 -89,101 -150,194 -205,336 -111,288 -62,622 99,877 129,204 339,357 572,420z"/>
   <path class="fil4" d="M1102 2319c841,225 1557,-663 1126,-1444 -105,-164 -187,-263 -353,-363 -12,280 -135,1468 -1326,1416 130,190 331,331 553,391z"/>
   <path class="fil5" d="M1345 619l-16 -29c-176,17 -307,86 -436,185 -48,36 -35,27 -35,49l-8 26 -29 4c-46,15 -119,145 -150,206 -36,71 -74,193 -76,279 35,1 47,-1 38,37 -13,7 -23,8 -44,8 3,119 8,205 45,309 16,45 35,83 56,125 21,41 45,71 71,111 24,-6 45,-46 61,-53 35,-14 46,15 12,48 -24,24 -30,21 -39,45 91,104 338,231 546,226 3,-33 -10,-105 24,-105 34,0 21,75 24,105 208,8 453,-124 546,-226 -7,-18 0,-6 -14,-22 -8,-9 -13,-12 -22,-20 -18,-16 -31,-25 -23,-48 28,-34 61,30 90,55 45,-26 128,-158 160,-230 42,-92 69,-206 72,-320 -34,0 -77,4 -103,-7l-2 -30c30,-14 71,-7 105,-8 -3,-118 -31,-224 -72,-320 -29,-68 -116,-205 -158,-228 -34,24 -48,63 -89,59 -18,-51 38,-52 54,-97l-13 -7c-41,-23 -67,-47 -112,-68 -41,-19 -77,-37 -122,-51 -66,-21 -230,-63 -299,-34 0,39 -18,51 -40,26z"/>
   <path class="fil3" d="M1296 1275c-9,16 -13,21 -26,31 -31,108 27,187 145,149 23,-17 19,-19 36,-34l14 -29c63,-2 128,0 190,0 41,0 154,19 158,-28 4,-53 -113,-33 -151,-33 -63,0 -132,3 -194,-1 -33,-44 -18,-43 -74,-70 3,-81 9,-490 -8,-535 -66,-17 -53,28 -53,85l0 449 -36 16z"/>
   <path class="fil6" d="M857 824c0,-22 -13,-12 35,-49 129,-99 260,-168 436,-185l16 29 -5 -92c-218,4 -446,113 -546,227 10,25 39,50 64,70z"/>
   <path class="fil6" d="M594 1338c2,-85 40,-207 76,-279 31,-62 104,-191 150,-206 -18,-22 -39,-42 -61,-63 -43,26 -129,158 -158,228 -44,103 -65,195 -73,319l65 1z"/>
   <path class="fil7" d="M1415 1454c34,19 171,166 209,204 36,37 67,68 104,104 19,18 33,33 52,52 12,12 25,33 41,34 35,1 7,3 18,-8 16,-22 -12,-39 -26,-53 -19,-18 -33,-33 -52,-52l-208 -208c-25,-24 -86,-80 -103,-107 -17,15 -13,18 -36,34z"/>
   <path class="fil6" d="M760 1928c-26,-40 -50,-69 -71,-111 -21,-42 -40,-79 -56,-125 -37,-103 -42,-190 -45,-309l-58 -1c4,118 29,218 70,315 19,45 41,82 66,121l63 83c19,21 6,12 31,26z"/>
   <path class="fil6" d="M1385 594c69,-29 233,13 299,34 45,14 81,32 122,51 45,21 71,45 112,68 -24,-54 -175,-130 -228,-153 -92,-41 -195,-64 -303,-66l-2 66z"/>
   <path class="fil7" d="M1270 1306c12,-10 17,-15 26,-31l-93 -112 -49 48c16,17 41,44 56,57 32,27 25,-9 59,38z"/>
   <path class="fil8" d="M1386 1405c41,-47 30,-96 -45,-89 -44,48 -31,98 45,89z"/>
   <path class="fil9" d="M1786 529c-379,-197 -855,-90 -1107,197 -83,95 -142,182 -193,317 -27,69 -44,142 -51,214 10,-54 24,-106 44,-158 55,-141 116,-234 204,-333 252,-286 716,-402 1104,-237z"/>
  </g>
 </g>
</svg>
